<svg xmlns="http://www.w3.org/2000/svg" xmlns:xlink="http://www.w3.org/1999/xlink" width="512" zoomAndPan="magnify" viewBox="0 0 384 383.999986" height="512" preserveAspectRatio="xMidYMid meet" version="1.0"><defs><clipPath id="049f5486e3"><path d="M 2.441406 2.441406 L 381.558594 2.441406 L 381.558594 381.558594 L 2.441406 381.558594 Z M 2.441406 2.441406 " clip-rule="nonzero"/></clipPath><clipPath id="2d95ef9b7c"><path d="M 192 2.441406 C 87.308594 2.441406 2.441406 87.308594 2.441406 192 C 2.441406 296.691406 87.308594 381.558594 192 381.558594 C 296.691406 381.558594 381.558594 296.691406 381.558594 192 C 381.558594 87.308594 296.691406 2.441406 192 2.441406 Z M 192 2.441406 " clip-rule="nonzero"/></clipPath><clipPath id="b838955339"><path d="M 149 255 L 307 255 L 307 368.980469 L 149 368.980469 Z M 149 255 " clip-rule="nonzero"/></clipPath></defs><rect x="-38.4" width="460.8" fill="#ffffff" y="-38.399999" height="460.799983" fill-opacity="1"/><rect x="-38.4" width="460.8" fill="#00ff19" y="-38.399999" height="460.799983" fill-opacity="1"/><g clip-path="url(#049f5486e3)"><g clip-path="url(#2d95ef9b7c)"><path fill="#231f20" d="M 2.441406 2.441406 L 381.558594 2.441406 L 381.558594 381.558594 L 2.441406 381.558594 Z M 2.441406 2.441406 " fill-opacity="1" fill-rule="nonzero"/></g></g><path fill="#ffffff" d="M 227.761719 35.609375 C 220.917969 33.609375 213.390625 37.574219 208.09375 41.765625 C 202.441406 46.753906 198.007812 53.152344 191.21875 56.753906 C 181.792969 62.460938 170.035156 61.738281 160.605469 56.5 C 159.144531 55.792969 158.125 55.179688 157.425781 53.675781 C 155.964844 50.558594 154.757812 47.320312 153.527344 44.105469 C 150.414062 35.671875 150.105469 40.730469 151.410156 46.070312 C 153.960938 57.214844 158.753906 68.871094 168.859375 75.09375 C 177.28125 76.507812 185.9375 76.507812 194.476562 76.550781 C 198.804688 76.378906 203.21875 76.789062 207.519531 76.28125 C 211.558594 75.574219 215.5625 76.734375 219.355469 78.0625 C 225.5625 80.164062 231.34375 83.101562 236.699219 86.878906 C 242.054688 90.65625 246.761719 95.117188 250.828125 100.257812 C 259.394531 90.710938 261.589844 76.414062 272.621094 69.015625 C 294.929688 49.789062 329.824219 69.570312 337.59375 94.578125 C 343.796875 114.355469 335.886719 124.078125 318.207031 132.128906 C 310.898438 135.089844 302.882812 139.660156 294.859375 136.917969 C 293.152344 135.726562 293.371094 133.210938 292.917969 131.375 C 291.464844 124.878906 292.140625 118.046875 295.925781 112.449219 C 300.550781 104.285156 312.691406 98.542969 313.824219 88.902344 C 309.832031 91.628906 306.964844 98.324219 302.183594 92.433594 C 299.359375 89.976562 294.484375 86.265625 291.25 90.058594 C 287.945312 93.769531 285.382812 97.933594 283.5625 102.554688 C 279.324219 113.308594 278.886719 125.359375 272.96875 135.46875 C 269.074219 131.941406 265.496094 128.035156 261.757812 124.320312 C 260.828125 123.371094 259.988281 122.34375 258.511719 122.632812 C 258.84375 124.984375 260.863281 126.683594 261.984375 128.71875 C 264.691406 132.738281 267.402344 136.757812 270.15625 140.726562 C 273.339844 147.03125 280.609375 148.628906 286.957031 150.070312 C 310.003906 153.296875 329.9375 128.742188 353.0625 140.886719 C 364.320312 146.480469 369.035156 161.585938 366.019531 173.253906 C 362.398438 183.621094 338.195312 173.472656 332.078125 169.085938 C 329.59375 166.75 330.941406 162.46875 332.835938 160.183594 C 335.121094 157.421875 338.945312 157.136719 342.277344 157.117188 C 344.339844 157.144531 346.394531 157.285156 348.441406 157.539062 C 348.839844 157.414062 348.746094 157.351562 348.667969 156.933594 C 344.339844 144.75 328.574219 151.480469 320.339844 155.484375 C 313.984375 158.308594 307.277344 160.167969 300.566406 162.066406 C 301.484375 163.417969 303.3125 163.558594 304.664062 164.328125 C 310.40625 166.828125 316.167969 169.269531 321.902344 171.804688 C 335.320312 177.773438 350.300781 184.046875 357.574219 197.632812 C 371.640625 219.859375 360.703125 243.820312 351.59375 265.59375 C 348.414062 271.949219 340.503906 274.273438 333.9375 275.207031 C 319.296875 277.113281 304.675781 272.382812 292.671875 264.097656 C 289.492188 261.992188 286.632812 259.515625 284.097656 256.667969 C 281.230469 254.378906 281.90625 251.019531 283.277344 248.078125 C 286.984375 239.222656 297.515625 236.355469 306.351562 237.148438 C 314.121094 237.578125 321.457031 242.042969 329.308594 241.089844 C 332.503906 240.339844 334.4375 237.746094 335.898438 234.984375 C 339.429688 228.820312 338.535156 221.234375 334.902344 215.324219 C 327.324219 201.828125 313.78125 196.441406 299.402344 193.304688 C 279.578125 188 260.085938 185.246094 245.253906 169.597656 C 242.464844 166.988281 239.351562 164.714844 236.878906 161.828125 C 232.640625 155.773438 229.816406 148.820312 225.148438 143.042969 C 222.875 139.976562 220.253906 137.222656 217.929688 134.207031 C 215.8125 131.425781 212.535156 129.636719 209.746094 127.566406 C 203.277344 122.773438 196.835938 117.914062 190.007812 113.625 C 173.054688 103.335938 152.574219 100.101562 136.050781 89.058594 C 128.351562 81.449219 124.566406 70.636719 122.066406 60.320312 C 120.214844 52.628906 119.304688 44.683594 120.214844 36.800781 C 120.527344 33.414062 120.449219 29.472656 123.039062 26.914062 C 128.734375 22.121094 136.242188 20.179688 143.386719 18.710938 C 151.277344 16.632812 157.710938 22.253906 163.605469 26.738281 C 170.1875 31.726562 176.320312 36.789062 183.644531 29.746094 C 191.855469 22.753906 200.980469 15.984375 212.210938 15.496094 C 220.308594 14.996094 228.296875 17.027344 236.160156 18.765625 C 241.863281 20.261719 247.691406 21.730469 252.945312 24.464844 C 257.394531 27.339844 262.035156 30.164062 265.183594 34.535156 C 268.914062 40.074219 271.640625 46.875 270.898438 53.644531 C 270.304688 60.460938 264.816406 64.945312 258.890625 67.4375 C 253.84375 69.882812 248.355469 72.035156 242.703125 72.339844 C 229.484375 71.996094 208.945312 73.929688 204.605469 57.75 C 205.578125 50.1875 211.042969 43.46875 217.78125 40.09375 C 221.003906 38.378906 224.652344 37.496094 227.761719 35.609375 Z M 304.996094 242.535156 C 302.976562 243.042969 300.511719 243.242188 298.878906 244.710938 C 298.542969 244.992188 298.308594 245.34375 298.179688 245.765625 C 298.054688 246.1875 298.050781 246.609375 298.175781 247.03125 C 298.296875 247.453125 298.527344 247.808594 298.859375 248.09375 C 299.195312 248.378906 299.578125 248.550781 300.015625 248.609375 C 301.992188 249.4375 312.558594 249.695312 311.351562 246.066406 C 310.453125 243.363281 307.339844 242.972656 304.996094 242.523438 Z M 238.066406 54.027344 C 240.3125 58.34375 252.351562 53.84375 254.0625 50.496094 C 250.472656 47.3125 240.882812 50.558594 238.066406 54.027344 Z M 303.539062 119.515625 C 306.613281 118.957031 312.242188 113.769531 309.683594 110.605469 C 308.125 109.285156 305.398438 111.273438 304.339844 112.417969 C 303.878906 112.878906 303.507812 113.398438 303.226562 113.984375 C 302.945312 114.570312 302.769531 115.183594 302.695312 115.828125 C 302.621094 116.472656 302.660156 117.113281 302.804688 117.746094 C 302.949219 118.378906 303.195312 118.96875 303.539062 119.515625 Z M 214.457031 51.308594 C 217.570312 53.046875 221.90625 56.359375 225.367188 53.792969 C 225.71875 53.5 225.8125 53.484375 225.507812 53.089844 C 223.523438 50.257812 216.121094 46.484375 214.457031 51.308594 Z M 341.789062 163.71875 C 342.320312 166.105469 347.914062 167.25 349.105469 165.039062 C 349.769531 163.457031 347.347656 162.273438 346.148438 162.097656 C 345.335938 161.984375 344.546875 162.074219 343.777344 162.363281 C 343.011719 162.648438 342.355469 163.101562 341.816406 163.71875 Z M 341.789062 163.71875 " fill-opacity="1" fill-rule="nonzero"/><path fill="#ffffff" d="M 79.820312 162.046875 C 72.828125 160.109375 65.828125 158.140625 59.210938 155.082031 C 50.984375 151.035156 36.359375 145.195312 31.972656 157.132812 C 36.851562 157.46875 42.566406 155.953125 46.703125 159.25 C 49.734375 161.820312 51.605469 167.449219 47.453125 169.890625 C 42.859375 172.632812 37.980469 174.703125 32.820312 176.101562 C 20.707031 179.230469 12.339844 178.988281 14.289062 163.714844 C 14.832031 147.46875 25.339844 137.3125 41.65625 137.78125 C 59.042969 137.675781 73.308594 151.246094 90.808594 150.40625 C 96.65625 150.144531 102.109375 148.289062 107.574219 146.394531 C 112.714844 144.886719 115.625 140.195312 118.597656 136.097656 C 121.261719 132.566406 123.964844 129.035156 126.789062 125.597656 C 127.15625 125.171875 127.730469 124.566406 126.664062 124.523438 C 123.78125 126.167969 121.226562 128.570312 118.660156 130.730469 C 116.097656 132.894531 113.839844 135.675781 111.210938 137.75 C 110.539062 137.71875 109.914062 137.527344 109.332031 137.1875 C 107.253906 133.566406 105.488281 129.796875 104.027344 125.886719 C 100.222656 115.613281 99.609375 104.15625 93.292969 94.90625 C 88.203125 86.195312 84.953125 87.425781 78.039062 93.570312 C 73.652344 98.40625 70.269531 90.976562 66.660156 89.035156 C 68.207031 99.417969 82.148438 105.476562 86.316406 115.125 C 89.847656 120.957031 88.808594 128.046875 87.402344 134.367188 C 87.179688 137.539062 83.703125 137.898438 81.167969 138.027344 C 70.277344 137.511719 58.101562 130.449219 49.089844 124.550781 C 37.945312 117.03125 38.023438 101.535156 43.382812 90.433594 C 46.175781 84.742188 50.214844 79.671875 54.5625 75.09375 C 72.410156 55.835938 93.617188 53.695312 112.679688 72.769531 C 117.300781 77.242188 119.121094 83.710938 123.703125 88.238281 C 129.488281 95.546875 137.984375 100.644531 146.683594 103.773438 C 155.082031 106.457031 163.542969 109.035156 171.65625 112.511719 C 175.300781 113.667969 180.273438 116.164062 179.109375 120.789062 C 177.695312 123.613281 174.335938 125.089844 172.160156 127.347656 C 167.257812 131.863281 162.019531 136.199219 158.203125 141.699219 C 155.011719 146.988281 152.738281 152.859375 148.59375 157.546875 C 144.121094 162.683594 138.59375 166.730469 133.519531 171.253906 C 118.9375 186.242188 97.582031 188.460938 78.484375 194.011719 C 70.46875 196.242188 61.957031 198.246094 55.59375 203.933594 C 44.296875 212.550781 37.988281 227.402344 48.808594 239.132812 C 58.609375 246.898438 77.628906 227.457031 94.558594 243.53125 C 96.8125 246.109375 99.796875 252.007812 97.863281 255.136719 C 94.859375 258.808594 91.347656 261.90625 87.332031 264.4375 C 74.210938 273.449219 57.175781 278.441406 41.429688 274.8125 C 35.917969 273.25 30.425781 269.789062 28.382812 264.21875 C 25.578125 258.128906 23.167969 251.886719 21.152344 245.496094 C 17.269531 232.78125 14.019531 218.460938 19.035156 205.613281 C 25.183594 186.242188 44.457031 177.765625 61.773438 170.5 C 67.574219 167.9375 73.449219 165.554688 79.183594 162.84375 C 79.683594 162.589844 79.839844 162.617188 79.820312 162.046875 Z M 77.261719 249.230469 C 89.644531 247.910156 77.390625 239.894531 71.613281 243.582031 C 70.390625 244.289062 68.527344 246.222656 69.820312 247.640625 C 71.847656 249.230469 74.839844 248.730469 77.261719 249.230469 Z M 77.382812 120.046875 C 80.046875 116.128906 76.492188 110.464844 71.945312 110.710938 C 69.246094 111.472656 71.238281 114.949219 72.164062 116.359375 C 72.800781 117.25 73.566406 118.011719 74.460938 118.644531 C 75.355469 119.277344 76.328125 119.742188 77.382812 120.046875 Z M 34.710938 166.050781 C 34.832031 166.382812 34.980469 166.214844 35.296875 166.121094 C 36.554688 165.710938 38.582031 165.5625 38.894531 164.003906 C 38.609375 161.03125 33.039062 161.550781 31.945312 163.742188 C 31.101562 165.542969 33.304688 166.199219 34.710938 166.050781 Z M 34.710938 166.050781 " fill-opacity="1" fill-rule="nonzero"/><path fill="#ffffff" d="M 156.417969 241.09375 C 155.003906 243.214844 155.160156 245.882812 154.164062 248.15625 C 148.621094 262.5 137.046875 273.722656 125.265625 283.1875 C 121.734375 286.46875 115.527344 288.675781 114.933594 293.992188 C 114.875 296.675781 117.382812 298.230469 118.527344 300.347656 C 104.234375 298.730469 98.542969 283.179688 104.472656 271.136719 C 108.289062 264.519531 114.402344 259.464844 117.546875 252.378906 C 122.222656 244.726562 115.503906 237.777344 112.886719 230.75 C 108.738281 221.949219 106.15625 214.851562 110.679688 205.492188 C 100.597656 206.109375 88.511719 203.277344 79.855469 209.589844 C 72.304688 216.75 80.5625 221.03125 87.800781 217.980469 C 91.394531 216.625 94.050781 213.425781 97.601562 212.035156 C 101.71875 211.328125 101.707031 216.40625 100.609375 219.039062 C 97.871094 228.285156 85.644531 230.917969 77.304688 228.742188 C 67.820312 226.179688 63.582031 215.507812 70.773438 207.992188 C 80.179688 198.277344 94.882812 197.878906 107.292969 194.730469 C 114.804688 192.914062 121.664062 189.039062 127.808594 184.433594 C 132.914062 180.902344 136.855469 175.605469 142.347656 172.773438 C 142.808594 172.539062 143.054688 173.007812 143.054688 173.480469 C 143.761719 182.429688 142.808594 191.644531 144.933594 200.414062 C 150.796875 220.960938 169.417969 234.914062 188.777344 241.949219 C 192.386719 242.753906 195.839844 240.234375 199.195312 239.125 C 212.613281 232.882812 225.070312 222.921875 232.0625 209.703125 C 237.449219 200.359375 237.105469 189.519531 237.359375 179.09375 C 237.65625 178.019531 236.871094 172.386719 238.21875 172.894531 C 240.882812 173.535156 242.769531 176 244.703125 177.796875 C 252.160156 184.597656 260.542969 190.839844 270.21875 194.039062 C 284.152344 198.140625 302.359375 197.40625 311.578125 210.421875 C 314.007812 214.46875 314.304688 219.257812 311.464844 223.136719 C 304.082031 233.617188 282.351562 230.996094 279.683594 217.734375 C 279.300781 215.910156 279.0625 213.277344 281.039062 212.246094 C 284.960938 210.996094 289.035156 216.992188 292.902344 218.03125 C 309.304688 223.269531 307.027344 205.078125 285.707031 205.464844 C 280.4375 204.949219 275.183594 205.777344 269.917969 205.613281 C 273.601562 213.121094 272.691406 220.246094 269.089844 227.550781 C 266.476562 234.9375 262.734375 241.808594 259.253906 248.777344 C 257.421875 254.011719 256.230469 259.386719 255.675781 264.902344 C 255.117188 270.417969 255.214844 275.921875 255.960938 281.414062 C 248.078125 278.863281 242.542969 272.542969 237.5 266.265625 C 231.800781 259.203125 226.433594 251.644531 225.015625 242.507812 C 224.746094 241.84375 224.058594 240.792969 223.25 241.371094 C 221.335938 242.261719 219.535156 243.398438 217.667969 244.394531 C 211.003906 247.570312 194.6875 256.3125 187.894531 254.519531 C 176.800781 251.527344 166.609375 246.089844 156.417969 241.09375 Z M 156.417969 241.09375 " fill-opacity="1" fill-rule="nonzero"/><path fill="#ffffff" d="M 97.566406 273.660156 C 98.921875 275.070312 98.195312 276.519531 97.785156 278.136719 C 96.515625 283.484375 96.375 289.308594 98.839844 294.339844 C 105.492188 307.679688 122.679688 310.582031 136.042969 307.53125 C 140.101562 306.980469 142.582031 303.292969 145.152344 300.46875 C 153.410156 291.695312 160.464844 281.726562 169.59375 273.820312 C 182.886719 262.621094 195.402344 260.585938 211.566406 267.007812 C 221.503906 270.261719 260.105469 289.71875 241.085938 301.160156 C 236.269531 304.027344 230.496094 304.378906 225.015625 304.761719 C 204.058594 303.46875 183.605469 311.625 167.632812 324.925781 C 162.125 329.679688 156.820312 334.726562 150.441406 338.34375 C 139.144531 344.699219 120.230469 352.800781 107.46875 348.359375 C 103.941406 346.675781 100.539062 344.765625 97.269531 342.625 C 89.050781 336.734375 78.835938 331.449219 76.082031 320.898438 C 73.492188 310.742188 75.257812 297.523438 80.765625 288.601562 C 85.511719 282.753906 90.914062 277.261719 97.566406 273.660156 Z M 200.675781 277.347656 C 201.234375 280.007812 204.292969 280.585938 206.328125 281.832031 C 208.804688 283.144531 215.867188 286.527344 217.476562 282.996094 C 216.136719 277.417969 209.644531 275.171875 204.425781 275.933594 C 203.15625 275.996094 201.257812 275.839844 200.699219 277.347656 Z M 200.675781 277.347656 " fill-opacity="1" fill-rule="nonzero"/><g clip-path="url(#b838955339)"><path fill="#ffffff" d="M 263.601562 255.636719 C 270.390625 265.03125 281.441406 269.664062 289.851562 277.289062 C 292.679688 279.964844 294.988281 283.234375 297.394531 286.257812 C 299.621094 289.414062 302.699219 292.113281 304.253906 295.671875 C 306.894531 305.199219 307.785156 316.324219 303.101562 325.335938 C 295.785156 337.285156 281.652344 343.027344 269.84375 349.628906 C 255.96875 357.296875 240.890625 362.117188 225.351562 364.890625 C 217.527344 366.917969 209.496094 367.449219 201.460938 367.785156 C 185.570312 368.761719 168.847656 369.050781 153.613281 363.957031 C 141.085938 356.789062 159.628906 347.785156 165.367188 343.351562 C 174.921875 337.425781 183.664062 329.121094 194.96875 326.859375 C 218.191406 322.332031 226.46875 342.523438 248.261719 330.574219 C 254.667969 327.375 260.679688 323.0625 264.964844 317.253906 C 271.964844 309.191406 270.542969 300.304688 268.191406 290.679688 C 265.96875 285.402344 262.847656 280.488281 261.609375 274.839844 C 260.375 269.1875 261.179688 263.539062 261.902344 257.890625 C 262.019531 256.773438 262.304688 255.847656 263.601562 255.636719 Z M 199.285156 338.027344 C 192.535156 333.082031 184.398438 339.277344 179.625 344.199219 C 178.601562 346.082031 181.582031 345.53125 182.492188 345.335938 C 186.714844 344.4375 198.699219 343.292969 199.285156 338.027344 Z M 199.285156 338.027344 " fill-opacity="1" fill-rule="nonzero"/></g><path fill="#ffffff" d="M 219.941406 146.246094 C 215.988281 153.902344 206.523438 158.417969 198.542969 160.78125 C 189.277344 163.332031 179.703125 160.222656 171.707031 155.394531 C 168.535156 153.34375 163.019531 150.648438 163.359375 146.277344 C 171.988281 133.5625 188.304688 118.414062 203.402344 131.027344 C 209.667969 135.175781 216.574219 139.261719 219.941406 146.246094 Z M 196.363281 146.183594 C 196.496094 135.371094 189.417969 128.046875 185.945312 142.617188 C 184.53125 147.066406 187.765625 152.300781 191.742188 154.191406 C 195.667969 154.460938 195.316406 148.8125 196.363281 146.183594 Z M 196.363281 146.183594 " fill-opacity="1" fill-rule="nonzero"/><path fill="#ffffff" d="M 186.785156 203.898438 C 186.882812 205.160156 187.613281 207.957031 186.171875 208.757812 C 184.46875 209.703125 183.882812 206.816406 183.613281 205.789062 C 182.0625 199.871094 180.542969 193.945312 178.789062 188.085938 C 177.859375 180.796875 172.535156 182.867188 167.09375 181.601562 C 163.351562 181.066406 154.199219 179.894531 155.265625 174.574219 C 158.882812 169.414062 176.253906 177.25 180.445312 180.261719 C 184.40625 182.449219 185.386719 186.074219 185.648438 190.308594 C 185.832031 191.554688 187.285156 203.898438 186.785156 203.898438 Z M 186.785156 203.898438 " fill-opacity="1" fill-rule="nonzero"/><path fill="#ffffff" d="M 225.472656 176.179688 C 222.648438 182.484375 209.058594 181.539062 202.746094 183.359375 C 201.480469 183.574219 198.324219 184.667969 198.390625 182.300781 C 199.328125 178.332031 226.644531 167.652344 225.472656 176.179688 Z M 225.472656 176.179688 " fill-opacity="1" fill-rule="nonzero"/></svg>