<svg xmlns="http://www.w3.org/2000/svg" xmlns:xlink="http://www.w3.org/1999/xlink" width="512" zoomAndPan="magnify" viewBox="0 0 384 383.999986" height="512" preserveAspectRatio="xMidYMid meet" version="1.0"><path fill="#ffffff" d="M 232.054688 23.753906 C 224.695312 21.601562 216.59375 25.863281 210.898438 30.378906 C 204.820312 35.742188 200.046875 42.625 192.746094 46.5 C 182.601562 52.640625 169.953125 51.863281 159.808594 46.226562 C 158.238281 45.46875 157.144531 44.804688 156.390625 43.1875 C 154.820312 39.835938 153.519531 36.351562 152.199219 32.894531 C 148.847656 23.820312 148.511719 29.261719 149.917969 35.003906 C 152.660156 46.992188 157.820312 59.539062 168.691406 66.230469 C 177.75 67.75 187.0625 67.75 196.25 67.796875 C 200.90625 67.613281 205.65625 68.054688 210.28125 67.507812 C 214.628906 66.746094 218.933594 67.992188 223.015625 69.421875 C 226.335938 70.546875 229.558594 71.90625 232.6875 73.492188 C 235.8125 75.082031 238.808594 76.890625 241.671875 78.910156 C 244.539062 80.929688 247.242188 83.148438 249.789062 85.558594 C 252.335938 87.96875 254.695312 90.550781 256.871094 93.300781 C 266.085938 83.03125 268.449219 67.652344 280.316406 59.691406 C 304.316406 39.007812 341.859375 60.289062 350.214844 87.191406 C 356.886719 108.464844 348.375 118.929688 329.359375 127.589844 C 321.496094 130.773438 312.871094 135.6875 304.242188 132.742188 C 302.402344 131.457031 302.640625 128.753906 302.152344 126.777344 C 300.585938 119.789062 301.316406 112.441406 305.390625 106.414062 C 310.367188 97.632812 323.425781 91.457031 324.640625 81.085938 C 320.347656 84.015625 317.265625 91.21875 312.121094 84.882812 C 309.082031 82.238281 303.839844 78.25 300.359375 82.332031 C 296.804688 86.320312 294.046875 90.800781 292.085938 95.769531 C 287.527344 107.34375 287.054688 120.304688 280.6875 131.183594 C 276.503906 127.386719 272.652344 123.183594 268.632812 119.1875 C 267.628906 118.167969 266.726562 117.058594 265.136719 117.371094 C 265.492188 119.902344 267.667969 121.730469 268.875 123.921875 C 271.785156 128.242188 274.703125 132.566406 277.664062 136.835938 C 281.09375 143.621094 288.910156 145.339844 295.742188 146.886719 C 320.53125 150.359375 341.980469 123.941406 366.855469 137.011719 C 378.964844 143.027344 384.039062 159.28125 380.796875 171.832031 C 376.898438 182.984375 350.863281 172.066406 344.28125 167.347656 C 341.605469 164.832031 343.058594 160.230469 345.09375 157.769531 C 347.554688 154.796875 351.667969 154.492188 355.253906 154.46875 C 357.472656 154.5 359.683594 154.652344 361.886719 154.925781 C 362.3125 154.789062 362.210938 154.722656 362.128906 154.273438 C 357.472656 141.167969 340.511719 148.40625 331.65625 152.714844 C 324.816406 155.753906 317.597656 157.753906 310.382812 159.796875 C 311.367188 161.246094 313.335938 161.398438 314.789062 162.226562 C 320.964844 164.917969 327.164062 167.546875 333.332031 170.273438 C 347.769531 176.695312 363.882812 183.441406 371.710938 198.058594 C 386.84375 221.96875 375.074219 247.746094 365.273438 271.171875 C 361.855469 278.007812 353.347656 280.507812 346.28125 281.511719 C 330.53125 283.5625 314.804688 278.472656 301.886719 269.558594 C 298.464844 267.296875 295.390625 264.632812 292.664062 261.566406 C 289.578125 259.105469 290.308594 255.488281 291.78125 252.328125 C 295.769531 242.800781 307.097656 239.714844 316.601562 240.566406 C 324.960938 241.03125 332.855469 245.832031 341.304688 244.808594 C 344.738281 244 346.820312 241.214844 348.390625 238.242188 C 352.191406 231.609375 351.226562 223.449219 347.320312 217.089844 C 339.167969 202.570312 324.597656 196.773438 309.128906 193.402344 C 287.800781 187.695312 266.832031 184.730469 250.875 167.894531 C 247.875 165.09375 244.523438 162.644531 241.863281 159.539062 C 237.304688 153.027344 234.265625 145.542969 229.246094 139.328125 C 226.800781 136.03125 223.980469 133.066406 221.480469 129.824219 C 219.203125 126.832031 215.675781 124.90625 212.675781 122.683594 C 205.714844 117.523438 198.785156 112.296875 191.441406 107.683594 C 173.207031 96.613281 151.171875 93.132812 133.394531 81.25 C 125.113281 73.070312 121.039062 61.4375 118.351562 50.335938 C 116.359375 42.0625 115.378906 33.515625 116.359375 25.035156 C 116.695312 21.390625 116.609375 17.148438 119.398438 14.398438 C 125.523438 9.242188 133.597656 7.152344 141.289062 5.570312 C 149.773438 3.335938 156.695312 9.386719 163.039062 14.210938 C 170.121094 19.574219 176.714844 25.023438 184.59375 17.445312 C 193.429688 9.925781 203.246094 2.640625 215.328125 2.113281 C 224.042969 1.574219 232.632812 3.761719 241.089844 5.632812 C 247.230469 7.242188 253.496094 8.824219 259.148438 11.761719 C 263.9375 14.855469 268.929688 17.894531 272.316406 22.597656 C 276.328125 28.554688 279.261719 35.871094 278.464844 43.15625 C 277.824219 50.488281 271.921875 55.3125 265.546875 57.996094 C 260.113281 60.625 254.210938 62.941406 248.132812 63.269531 C 233.910156 62.894531 211.816406 64.976562 207.144531 47.570312 C 208.191406 39.433594 214.074219 32.210938 221.320312 28.578125 C 224.785156 26.730469 228.714844 25.78125 232.054688 23.753906 Z M 315.144531 246.363281 C 312.972656 246.910156 310.320312 247.125 308.566406 248.703125 C 308.203125 249.007812 307.953125 249.386719 307.816406 249.839844 C 307.675781 250.292969 307.675781 250.746094 307.808594 251.199219 C 307.941406 251.65625 308.1875 252.035156 308.546875 252.34375 C 308.90625 252.652344 309.320312 252.835938 309.789062 252.898438 C 311.914062 253.789062 323.28125 254.070312 321.984375 250.164062 C 321.019531 247.253906 317.667969 246.835938 315.144531 246.347656 Z M 243.140625 43.566406 C 245.558594 48.210938 258.511719 43.371094 260.351562 39.769531 C 256.492188 36.34375 246.171875 39.835938 243.140625 43.566406 Z M 313.578125 114.019531 C 316.882812 113.421875 322.941406 107.835938 320.191406 104.433594 C 318.511719 103.011719 315.578125 105.152344 314.4375 106.386719 C 313.945312 106.878906 313.546875 107.4375 313.242188 108.066406 C 312.9375 108.699219 312.75 109.359375 312.671875 110.050781 C 312.59375 110.746094 312.632812 111.433594 312.789062 112.113281 C 312.945312 112.792969 313.207031 113.429688 313.578125 114.019531 Z M 217.742188 40.640625 C 221.09375 42.511719 225.757812 46.074219 229.480469 43.316406 C 229.859375 42.996094 229.960938 42.984375 229.632812 42.558594 C 227.496094 39.511719 219.535156 35.453125 217.742188 40.640625 Z M 354.730469 161.574219 C 355.296875 164.140625 361.316406 165.375 362.601562 162.996094 C 363.3125 161.292969 360.707031 160.015625 359.417969 159.828125 C 358.542969 159.707031 357.691406 159.804688 356.867188 160.113281 C 356.042969 160.421875 355.339844 160.910156 354.757812 161.574219 Z M 354.730469 161.574219 " fill-opacity="1" fill-rule="nonzero"/><path fill="#ffffff" d="M 72.902344 159.773438 C 65.378906 157.691406 57.851562 155.574219 50.730469 152.28125 C 41.878906 147.929688 26.144531 141.644531 21.425781 154.484375 C 26.675781 154.851562 32.824219 153.21875 37.273438 156.765625 C 40.535156 159.53125 42.546875 165.585938 38.082031 168.214844 C 33.140625 171.164062 27.890625 173.390625 22.339844 174.894531 C 9.308594 178.257812 0.304688 178 2.402344 161.566406 C 2.988281 144.09375 14.292969 133.167969 31.84375 133.667969 C 50.546875 133.554688 65.894531 148.15625 84.722656 147.253906 C 91.011719 146.972656 96.878906 144.972656 102.757812 142.9375 C 108.289062 141.3125 111.421875 136.265625 114.621094 131.859375 C 117.484375 128.0625 120.394531 124.261719 123.433594 120.5625 C 123.828125 120.105469 124.441406 119.453125 123.296875 119.40625 C 120.195312 121.175781 117.445312 123.761719 114.6875 126.085938 C 111.929688 128.410156 109.5 131.402344 106.671875 133.636719 C 105.949219 133.601562 105.273438 133.398438 104.652344 133.03125 C 102.417969 129.132812 100.515625 125.082031 98.945312 120.875 C 94.851562 109.820312 94.1875 97.496094 87.398438 87.542969 C 81.917969 78.175781 78.425781 79.496094 70.984375 86.105469 C 66.269531 91.3125 62.628906 83.320312 58.746094 81.230469 C 60.410156 92.398438 75.40625 98.917969 79.890625 109.296875 C 83.6875 115.570312 82.574219 123.199219 81.0625 130 C 80.816406 133.410156 77.078125 133.796875 74.351562 133.933594 C 62.636719 133.378906 49.539062 125.78125 39.84375 119.4375 C 27.855469 111.347656 27.9375 94.675781 33.703125 82.734375 C 36.707031 76.609375 41.050781 71.15625 45.730469 66.230469 C 64.929688 45.511719 87.746094 43.210938 108.253906 63.730469 C 113.222656 68.542969 115.183594 75.5 120.113281 80.371094 C 126.335938 88.234375 135.476562 93.71875 144.835938 97.085938 C 153.867188 99.972656 162.972656 102.746094 171.699219 106.484375 C 175.621094 107.730469 180.96875 110.410156 179.714844 115.386719 C 178.195312 118.425781 174.582031 120.015625 172.238281 122.445312 C 166.96875 127.300781 161.328125 131.964844 157.226562 137.886719 C 153.792969 143.574219 151.347656 149.890625 146.886719 154.933594 C 142.078125 160.457031 136.128906 164.8125 130.671875 169.679688 C 114.984375 185.804688 92.007812 188.1875 71.464844 194.160156 C 62.839844 196.5625 53.6875 198.71875 46.839844 204.835938 C 34.683594 214.105469 27.898438 230.082031 39.539062 242.703125 C 50.085938 251.058594 70.546875 230.144531 88.757812 247.4375 C 91.179688 250.207031 94.394531 256.554688 92.3125 259.917969 C 89.082031 263.871094 85.304688 267.207031 80.984375 269.925781 C 66.867188 279.621094 48.542969 284.992188 31.601562 281.085938 C 25.671875 279.40625 19.761719 275.683594 17.566406 269.6875 C 14.546875 263.140625 11.953125 256.425781 9.785156 249.546875 C 5.609375 235.871094 2.113281 220.464844 7.507812 206.644531 C 14.125 185.804688 34.859375 176.6875 53.488281 168.867188 C 59.726562 166.109375 66.046875 163.550781 72.21875 160.632812 C 72.757812 160.359375 72.921875 160.390625 72.902344 159.773438 Z M 70.148438 253.566406 C 83.46875 252.144531 70.285156 243.523438 64.070312 247.488281 C 62.757812 248.25 60.753906 250.332031 62.140625 251.859375 C 64.324219 253.566406 67.542969 253.027344 70.148438 253.566406 Z M 70.28125 114.589844 C 73.144531 110.375 69.320312 104.28125 64.429688 104.546875 C 61.527344 105.367188 63.667969 109.105469 64.664062 110.625 C 65.351562 111.582031 66.175781 112.402344 67.136719 113.082031 C 68.097656 113.761719 69.148438 114.265625 70.28125 114.589844 Z M 24.375 164.082031 C 24.503906 164.4375 24.664062 164.257812 25.003906 164.15625 C 26.355469 163.71875 28.539062 163.558594 28.871094 161.878906 C 28.566406 158.679688 22.574219 159.242188 21.394531 161.597656 C 20.492188 163.535156 22.863281 164.242188 24.375 164.082031 Z M 24.375 164.082031 " fill-opacity="1" fill-rule="nonzero"/><path fill="#ffffff" d="M 155.304688 244.816406 C 153.785156 247.09375 153.953125 249.964844 152.882812 252.414062 C 146.917969 267.84375 134.464844 279.914062 121.792969 290.097656 C 117.992188 293.628906 111.316406 296 110.675781 301.722656 C 110.617188 304.609375 113.3125 306.28125 114.542969 308.558594 C 99.164062 306.820312 93.042969 290.089844 99.425781 277.136719 C 103.527344 270.015625 110.105469 264.574219 113.488281 256.957031 C 118.515625 248.71875 111.292969 241.242188 108.472656 233.683594 C 104.011719 224.21875 101.230469 216.582031 106.101562 206.515625 C 95.253906 207.175781 82.253906 204.128906 72.9375 210.921875 C 64.816406 218.625 73.699219 223.230469 81.484375 219.949219 C 85.351562 218.488281 88.210938 215.046875 92.03125 213.550781 C 96.460938 212.789062 96.445312 218.253906 95.269531 221.085938 C 92.320312 231.03125 79.167969 233.867188 70.195312 231.527344 C 59.992188 228.769531 55.433594 217.289062 63.167969 209.203125 C 73.289062 198.75 89.105469 198.324219 102.457031 194.9375 C 110.539062 192.984375 117.917969 188.8125 124.527344 183.859375 C 130.019531 180.058594 134.257812 174.363281 140.171875 171.316406 C 140.664062 171.0625 140.929688 171.566406 140.929688 172.074219 C 141.691406 181.699219 140.664062 191.617188 142.949219 201.050781 C 149.257812 223.152344 169.292969 238.167969 190.117188 245.734375 C 194 246.601562 197.714844 243.886719 201.324219 242.695312 C 215.757812 235.976562 229.160156 225.265625 236.683594 211.042969 C 242.480469 200.992188 242.109375 189.328125 242.382812 178.113281 C 242.699219 176.960938 241.859375 170.898438 243.308594 171.445312 C 246.171875 172.136719 248.203125 174.785156 250.285156 176.714844 C 258.304688 184.03125 267.324219 190.75 277.734375 194.191406 C 292.722656 198.605469 312.3125 197.816406 322.226562 211.816406 C 324.839844 216.171875 325.160156 221.324219 322.105469 225.492188 C 314.164062 236.769531 290.785156 233.949219 287.914062 219.679688 C 287.503906 217.722656 287.246094 214.886719 289.375 213.777344 C 293.589844 212.433594 297.972656 218.882812 302.136719 220 C 319.777344 225.636719 317.332031 206.066406 294.394531 206.484375 C 288.726562 205.929688 283.074219 206.820312 277.40625 206.644531 C 281.375 214.71875 280.394531 222.386719 276.519531 230.242188 C 273.707031 238.1875 269.679688 245.582031 265.933594 253.082031 C 263.964844 258.710938 262.683594 264.492188 262.085938 270.425781 C 261.488281 276.359375 261.589844 282.28125 262.394531 288.191406 C 253.914062 285.445312 247.957031 278.648438 242.535156 271.894531 C 236.402344 264.296875 230.628906 256.164062 229.101562 246.335938 C 228.8125 245.621094 228.074219 244.488281 227.203125 245.109375 C 225.144531 246.066406 223.207031 247.292969 221.199219 248.363281 C 214.027344 251.78125 196.476562 261.1875 189.167969 259.257812 C 177.230469 256.035156 166.269531 250.1875 155.304688 244.816406 Z M 155.304688 244.816406 " fill-opacity="1" fill-rule="nonzero"/><path fill="#ffffff" d="M 91.992188 279.847656 C 93.453125 281.367188 92.667969 282.925781 92.230469 284.664062 C 90.863281 290.414062 90.710938 296.683594 93.359375 302.09375 C 100.519531 316.445312 119.011719 319.566406 133.386719 316.285156 C 137.753906 315.691406 140.421875 311.726562 143.1875 308.6875 C 152.070312 299.25 159.660156 288.523438 169.480469 280.023438 C 183.78125 267.972656 197.242188 265.785156 214.636719 272.691406 C 225.324219 276.191406 266.855469 297.125 246.394531 309.433594 C 241.210938 312.515625 234.996094 312.898438 229.101562 313.308594 C 206.558594 311.917969 184.554688 320.691406 167.371094 335 C 161.445312 340.113281 155.738281 345.542969 148.878906 349.433594 C 136.722656 356.273438 116.375 364.988281 102.644531 360.207031 C 98.851562 358.398438 95.191406 356.339844 91.675781 354.039062 C 82.832031 347.703125 71.84375 342.019531 68.882812 330.667969 C 66.09375 319.742188 67.992188 305.519531 73.917969 295.925781 C 79.023438 289.632812 84.835938 283.722656 91.992188 279.847656 Z M 202.917969 283.8125 C 203.519531 286.675781 206.808594 287.300781 208.996094 288.636719 C 211.664062 290.050781 219.261719 293.691406 220.996094 289.890625 C 219.550781 283.890625 212.570312 281.472656 206.953125 282.292969 C 205.585938 282.363281 203.542969 282.195312 202.941406 283.8125 Z M 202.917969 283.8125 " fill-opacity="1" fill-rule="nonzero"/><path fill="#ffffff" d="M 270.613281 260.457031 C 277.917969 270.5625 289.804688 275.546875 298.855469 283.753906 C 301.894531 286.632812 304.378906 290.148438 306.96875 293.402344 C 309.363281 296.796875 312.675781 299.699219 314.347656 303.53125 C 317.1875 313.777344 318.144531 325.746094 313.109375 335.441406 C 305.238281 348.292969 290.035156 354.472656 277.332031 361.574219 C 262.402344 369.828125 246.179688 375.007812 229.464844 377.992188 C 221.046875 380.175781 212.410156 380.746094 203.761719 381.109375 C 186.667969 382.15625 168.675781 382.46875 152.289062 376.992188 C 138.808594 369.28125 158.761719 359.59375 164.929688 354.820312 C 175.210938 348.445312 184.617188 339.511719 196.78125 337.082031 C 221.761719 332.210938 230.667969 353.933594 254.113281 341.078125 C 261.003906 337.636719 267.46875 332.992188 272.082031 326.746094 C 279.609375 318.070312 278.082031 308.511719 275.554688 298.15625 C 273.160156 292.480469 269.800781 287.195312 268.472656 281.117188 C 267.144531 275.039062 268.007812 268.960938 268.785156 262.882812 C 268.914062 261.679688 269.21875 260.6875 270.613281 260.457031 Z M 201.421875 349.09375 C 194.160156 343.773438 185.40625 350.4375 180.269531 355.734375 C 179.167969 357.761719 182.375 357.167969 183.355469 356.957031 C 187.898438 355.992188 200.792969 354.761719 201.421875 349.09375 Z M 201.421875 349.09375 " fill-opacity="1" fill-rule="nonzero"/><path fill="#ffffff" d="M 223.644531 142.777344 C 219.390625 151.015625 209.210938 155.867188 200.625 158.414062 C 190.65625 161.15625 180.355469 157.8125 171.753906 152.617188 C 168.34375 150.414062 162.410156 147.511719 162.773438 142.808594 C 172.058594 129.132812 189.609375 112.835938 205.851562 126.40625 C 212.589844 130.863281 220.023438 135.265625 223.644531 142.777344 Z M 198.277344 142.710938 C 198.421875 131.078125 190.808594 123.199219 187.070312 138.871094 C 185.550781 143.660156 189.03125 149.289062 193.308594 151.324219 C 197.53125 151.613281 197.152344 145.535156 198.277344 142.710938 Z M 198.277344 142.710938 " fill-opacity="1" fill-rule="nonzero"/><path fill="#ffffff" d="M 187.976562 204.796875 C 188.082031 206.15625 188.863281 209.167969 187.3125 210.023438 C 185.484375 211.042969 184.851562 207.933594 184.5625 206.832031 C 182.890625 200.46875 181.257812 194.09375 179.375 187.785156 C 178.371094 179.945312 172.644531 182.171875 166.792969 180.8125 C 162.765625 180.234375 152.917969 178.972656 154.066406 173.253906 C 157.957031 167.699219 176.648438 176.132812 181.152344 179.367188 C 185.414062 181.722656 186.46875 185.621094 186.75 190.179688 C 186.949219 191.515625 188.515625 204.796875 187.976562 204.796875 Z M 187.976562 204.796875 " fill-opacity="1" fill-rule="nonzero"/><path fill="#ffffff" d="M 229.59375 174.976562 C 226.554688 181.761719 211.9375 180.742188 205.144531 182.703125 C 203.785156 182.929688 200.390625 184.109375 200.457031 181.5625 C 201.46875 177.292969 230.855469 165.804688 229.59375 174.976562 Z M 229.59375 174.976562 " fill-opacity="1" fill-rule="nonzero"/></svg>