<svg xmlns="http://www.w3.org/2000/svg" xmlns:xlink="http://www.w3.org/1999/xlink" width="192" zoomAndPan="magnify" viewBox="0 0 144 143.999998" height="192" preserveAspectRatio="xMidYMid meet" version="1.0"><defs><clipPath id="80f2525d59"><path d="M 6.011719 6.011719 L 137.988281 6.011719 L 137.988281 137.988281 L 6.011719 137.988281 Z M 6.011719 6.011719 " clip-rule="nonzero"/></clipPath><clipPath id="2761642c32"><path d="M 72 6.011719 C 35.554688 6.011719 6.011719 35.554688 6.011719 72 C 6.011719 108.445312 35.554688 137.988281 72 137.988281 C 108.445312 137.988281 137.988281 108.445312 137.988281 72 C 137.988281 35.554688 108.445312 6.011719 72 6.011719 Z M 72 6.011719 " clip-rule="nonzero"/></clipPath><clipPath id="bb949b11e0"><path d="M 1.140625 1.230469 L 142.890625 1.230469 L 142.890625 142.980469 L 1.140625 142.980469 Z M 1.140625 1.230469 " clip-rule="nonzero"/></clipPath></defs><g clip-path="url(#80f2525d59)"><g clip-path="url(#2761642c32)"><path fill="#fcfdf2" d="M 6.011719 6.011719 L 137.988281 6.011719 L 137.988281 137.988281 L 6.011719 137.988281 Z M 6.011719 6.011719 " fill-opacity="1" fill-rule="nonzero"/></g></g><path fill="#272727" d="M 82.757812 92.261719 C 83.742188 91.378906 84.726562 90.46875 85.703125 89.542969 C 92.578125 88.78125 98.925781 87.445312 104.386719 85.59375 C 104.726562 86.320312 105.054688 87.035156 105.351562 87.738281 L 105.378906 87.796875 C 98.824219 90.035156 91.078125 91.554688 82.757812 92.261719 Z M 88.535156 104.632812 C 87.8125 104.320312 87.074219 103.992188 86.335938 103.636719 C 87.460938 100.3125 88.402344 96.652344 89.132812 92.742188 C 89.976562 92.617188 90.820312 92.496094 91.648438 92.363281 C 90.855469 96.757812 89.816406 100.894531 88.535156 104.632812 Z M 88.921875 86.371094 C 88.855469 86.910156 88.78125 87.445312 88.707031 87.976562 C 88.179688 88.042969 87.644531 88.121094 87.105469 88.179688 C 87.410156 87.886719 87.714844 87.589844 88.019531 87.289062 C 88.316406 86.984375 88.621094 86.675781 88.921875 86.371094 Z M 92.996094 82.03125 C 92.839844 83.839844 92.652344 85.636719 92.417969 87.390625 C 91.601562 87.535156 90.769531 87.667969 89.925781 87.789062 C 90.054688 86.863281 90.171875 85.921875 90.277344 84.960938 C 91.207031 83.988281 92.113281 83.007812 92.996094 82.03125 Z M 73.074219 95.542969 C 77.257812 92.382812 81.453125 88.742188 85.464844 84.726562 C 89.5 80.691406 93.152344 76.519531 96.328125 72.335938 C 96.828125 73.019531 97.320312 73.703125 97.796875 74.386719 C 94.65625 78.476562 91.089844 82.539062 87.179688 86.449219 C 83.261719 90.371094 79.207031 93.925781 75.152344 97.039062 C 74.464844 96.558594 73.765625 96.0625 73.074219 95.542969 Z M 70.859375 93.878906 C 71.269531 93.882812 71.675781 93.882812 72.082031 93.882812 C 72.492188 93.882812 72.90625 93.882812 73.3125 93.878906 C 72.90625 94.195312 72.492188 94.511719 72.082031 94.808594 C 71.679688 94.511719 71.269531 94.195312 70.859375 93.878906 Z M 66.277344 90.136719 C 68.191406 90.226562 70.128906 90.273438 72.082031 90.273438 C 74.042969 90.273438 75.980469 90.226562 77.894531 90.136719 C 76.878906 91.007812 75.863281 91.851562 74.84375 92.667969 C 73.929688 92.691406 73.007812 92.707031 72.082031 92.707031 C 71.160156 92.707031 70.242188 92.691406 69.324219 92.667969 C 68.308594 91.851562 67.292969 91.007812 66.277344 90.136719 Z M 61.839844 71.355469 C 61.839844 66.414062 65.859375 62.390625 70.796875 62.390625 C 75.738281 62.390625 79.753906 66.414062 79.753906 71.355469 C 79.753906 76.292969 75.738281 80.316406 70.796875 80.316406 C 65.859375 80.316406 61.839844 76.292969 61.839844 71.355469 Z M 47.863281 70.367188 C 47.359375 69.675781 46.867188 68.984375 46.382812 68.292969 C 49.523438 64.21875 53.085938 60.15625 56.988281 56.253906 C 60.914062 52.339844 64.964844 48.78125 69.015625 45.664062 C 69.714844 46.148438 70.40625 46.640625 71.105469 47.160156 C 66.914062 50.320312 62.71875 53.960938 58.710938 57.976562 C 54.691406 61.992188 51.039062 66.175781 47.863281 70.367188 Z M 53.300781 77.171875 C 52.433594 76.167969 51.585938 75.160156 50.769531 74.136719 C 50.75 73.210938 50.742188 72.28125 50.742188 71.355469 C 50.742188 70.425781 50.75 69.492188 50.769531 68.566406 C 51.585938 67.550781 52.433594 66.535156 53.300781 65.53125 C 53.214844 67.453125 53.167969 69.394531 53.167969 71.355469 C 53.167969 73.3125 53.214844 75.257812 53.300781 77.171875 Z M 49.5625 72.613281 C 49.238281 72.1875 48.917969 71.773438 48.601562 71.355469 C 48.917969 70.929688 49.238281 70.515625 49.5625 70.089844 C 49.554688 70.515625 49.554688 70.929688 49.554688 71.355469 C 49.554688 71.777344 49.554688 72.1875 49.5625 72.613281 Z M 54.25 54.910156 C 54.121094 55.84375 54.003906 56.777344 53.898438 57.730469 C 52.972656 58.703125 52.066406 59.6875 51.183594 60.675781 C 51.335938 58.863281 51.527344 57.070312 51.757812 55.316406 C 52.578125 55.167969 53.40625 55.035156 54.25 54.910156 Z M 57.066406 54.523438 C 56.761719 54.824219 56.457031 55.117188 56.15625 55.414062 C 55.851562 55.71875 55.550781 56.019531 55.257812 56.328125 C 55.324219 55.792969 55.394531 55.265625 55.46875 54.730469 C 55.996094 54.65625 56.527344 54.585938 57.066406 54.523438 Z M 38.925781 55.167969 C 38.886719 55.078125 38.847656 54.992188 38.808594 54.902344 C 45.359375 52.667969 53.097656 51.148438 61.417969 50.445312 C 60.429688 51.324219 59.449219 52.238281 58.472656 53.167969 C 51.601562 53.917969 45.257812 55.261719 39.800781 57.109375 C 39.492188 56.457031 39.199219 55.808594 38.925781 55.167969 Z M 55.636719 38.074219 C 56.359375 38.386719 57.097656 38.714844 57.84375 39.070312 C 56.714844 42.394531 55.773438 46.050781 55.042969 49.960938 C 54.199219 50.085938 53.359375 50.203125 52.527344 50.339844 C 53.320312 45.945312 54.359375 41.8125 55.636719 38.074219 Z M 73.3125 48.828125 C 72.90625 48.828125 72.492188 48.824219 72.082031 48.824219 C 71.675781 48.824219 71.269531 48.828125 70.859375 48.828125 C 71.273438 48.507812 71.679688 48.195312 72.085938 47.894531 C 72.492188 48.195312 72.90625 48.507812 73.3125 48.828125 Z M 77.894531 52.566406 C 75.980469 52.480469 74.042969 52.4375 72.082031 52.4375 C 70.128906 52.4375 68.191406 52.480469 66.28125 52.566406 C 67.296875 51.695312 68.308594 50.851562 69.328125 50.035156 C 70.246094 50.011719 71.160156 50 72.082031 50 C 73.007812 50 73.933594 50.011719 74.847656 50.035156 C 75.863281 50.851562 76.882812 51.695312 77.894531 52.566406 Z M 93.410156 68.554688 C 93.429688 69.484375 93.4375 70.421875 93.4375 71.355469 C 93.4375 72.285156 93.429688 73.214844 93.410156 74.144531 C 92.589844 75.160156 91.75 76.171875 90.875 77.171875 C 90.964844 75.257812 91.007812 73.3125 91.007812 71.355469 C 91.007812 69.390625 90.964844 67.449219 90.875 65.527344 C 91.75 66.527344 92.589844 67.550781 93.410156 68.554688 Z M 94.613281 70.085938 C 94.945312 70.507812 95.269531 70.925781 95.589844 71.355469 C 95.269531 71.777344 94.945312 72.195312 94.613281 72.625 C 94.621094 72.195312 94.625 71.78125 94.625 71.355469 C 94.625 70.925781 94.621094 70.507812 94.613281 70.085938 Z M 85.464844 57.976562 C 71.152344 43.664062 54.53125 34.054688 44.09375 34.054688 C 41.085938 34.054688 38.753906 34.855469 37.171875 36.441406 C 33.792969 39.8125 34.035156 46.816406 37.835938 55.644531 C 41.847656 64.953125 49.261719 75.28125 58.710938 84.726562 C 73.015625 99.042969 89.636719 108.652344 100.074219 108.652344 C 103.09375 108.652344 105.421875 107.847656 107.003906 106.265625 C 110.332031 102.941406 110.128906 96.023438 106.445312 87.285156 C 102.523438 77.988281 95.070312 67.589844 85.464844 57.976562 " fill-opacity="1" fill-rule="nonzero"/><g clip-path="url(#bb949b11e0)"><path fill="#272727" d="M 109.839844 86.082031 C 109.777344 85.933594 109.71875 85.789062 109.648438 85.636719 C 109.402344 85.054688 109.136719 84.464844 108.859375 83.875 C 116.886719 80.367188 121.464844 75.839844 121.464844 71.355469 C 121.464844 66.871094 116.886719 62.335938 108.859375 58.832031 C 109.136719 58.242188 109.402344 57.65625 109.648438 57.070312 C 109.71875 56.921875 109.777344 56.777344 109.839844 56.628906 C 118.914062 60.558594 123.890625 65.746094 123.890625 71.355469 C 123.890625 76.960938 118.914062 82.148438 109.839844 86.082031 Z M 108.722656 107.984375 C 106.667969 110.039062 103.761719 111.082031 100.078125 111.085938 L 100.074219 111.675781 L 100.074219 111.085938 C 88.867188 111.085938 71.957031 101.410156 56.988281 86.449219 C 47.328125 76.785156 39.730469 66.1875 35.605469 56.601562 C 31.328125 46.671875 31.273438 38.894531 35.457031 34.71875 C 37.507812 32.664062 40.414062 31.621094 44.09375 31.621094 C 55.304688 31.621094 72.21875 41.292969 87.183594 56.253906 C 96.84375 65.917969 104.433594 76.523438 108.566406 86.101562 C 112.84375 96.03125 112.898438 103.808594 108.722656 107.984375 Z M 72.082031 123.160156 C 66.484375 123.160156 61.289062 118.183594 57.355469 109.097656 C 58.085938 108.800781 58.820312 108.464844 59.570312 108.117188 C 63.070312 116.15625 67.59375 120.734375 72.082031 120.734375 C 76.574219 120.734375 81.101562 116.15625 84.609375 108.117188 C 85.351562 108.464844 86.089844 108.800781 86.816406 109.101562 C 82.882812 118.183594 77.6875 123.160156 72.082031 123.160156 Z M 52.265625 107.148438 C 57.355469 105.488281 63.097656 102.507812 68.980469 98.492188 C 69.675781 99.015625 70.375 99.535156 71.070312 100.03125 C 64.5625 104.5625 58.183594 107.875 52.519531 109.632812 C 52.535156 109.4375 52.550781 109.242188 52.550781 109.042969 C 52.550781 108.382812 52.449219 107.75 52.265625 107.148438 Z M 46.019531 114.386719 C 43.070312 114.386719 40.675781 111.984375 40.675781 109.042969 C 40.675781 106.09375 43.070312 103.691406 46.019531 103.691406 C 48.964844 103.691406 51.359375 106.09375 51.359375 109.042969 C 51.359375 111.984375 48.964844 114.386719 46.019531 114.386719 Z M 57.84375 103.636719 C 57.097656 103.992188 56.359375 104.320312 55.636719 104.632812 C 54.359375 100.894531 53.320312 96.757812 52.527344 92.367188 C 53.359375 92.5 54.199219 92.621094 55.042969 92.742188 C 55.773438 96.652344 56.714844 100.3125 57.84375 103.636719 Z M 55.257812 86.375 C 55.550781 86.683594 55.851562 86.988281 56.15625 87.289062 C 56.457031 87.589844 56.761719 87.886719 57.066406 88.179688 C 56.527344 88.121094 55.996094 88.046875 55.46875 87.976562 C 55.394531 87.445312 55.324219 86.910156 55.257812 86.375 Z M 51.183594 82.03125 C 52.066406 83.015625 52.96875 84 53.898438 84.972656 C 54.003906 85.929688 54.121094 86.863281 54.25 87.792969 C 53.40625 87.667969 52.578125 87.539062 51.757812 87.390625 C 51.527344 85.640625 51.335938 83.84375 51.183594 82.03125 Z M 58.472656 89.542969 C 59.449219 90.46875 60.429688 91.378906 61.414062 92.261719 C 53.097656 91.554688 45.359375 90.035156 38.808594 87.800781 C 38.847656 87.710938 38.886719 87.625 38.925781 87.535156 C 39.199219 86.894531 39.492188 86.246094 39.800781 85.59375 C 45.257812 87.445312 51.601562 88.785156 58.472656 89.542969 Z M 35.457031 107.984375 C 31.273438 103.808594 31.328125 96.03125 35.605469 86.101562 C 37.511719 81.683594 40.15625 77.042969 43.402344 72.378906 C 43.898438 73.0625 44.402344 73.75 44.921875 74.4375 C 41.988281 78.738281 39.585938 83.003906 37.835938 87.058594 C 34.035156 95.886719 33.792969 102.894531 37.171875 106.265625 C 37.847656 106.945312 38.65625 107.476562 39.597656 107.863281 C 39.527344 108.246094 39.488281 108.640625 39.488281 109.042969 C 39.488281 109.53125 39.542969 110.007812 39.648438 110.460938 C 37.996094 109.953125 36.59375 109.128906 35.457031 107.984375 Z M 20.277344 71.355469 C 20.277344 69.238281 20.992188 67.175781 22.367188 65.21875 C 22.859375 65.894531 23.472656 66.46875 24.179688 66.914062 C 23.214844 68.371094 22.710938 69.859375 22.710938 71.355469 C 22.710938 75.839844 27.285156 80.367188 35.3125 83.875 C 35.035156 84.464844 34.769531 85.054688 34.519531 85.636719 C 34.453125 85.789062 34.394531 85.933594 34.332031 86.082031 C 25.253906 82.148438 20.277344 76.960938 20.277344 71.355469 Z M 32.761719 57.335938 C 33.269531 57.09375 33.792969 56.859375 34.332031 56.628906 C 34.394531 56.777344 34.453125 56.921875 34.519531 57.070312 C 34.769531 57.65625 35.035156 58.242188 35.3125 58.832031 C 34.824219 59.050781 34.347656 59.261719 33.882812 59.488281 C 33.648438 58.695312 33.261719 57.96875 32.761719 57.335938 Z M 27.632812 56.027344 C 30.582031 56.027344 32.980469 58.429688 32.980469 61.367188 C 32.980469 64.320312 30.582031 66.71875 27.632812 66.71875 C 24.6875 66.71875 22.289062 64.320312 22.289062 61.367188 C 22.289062 58.429688 24.6875 56.027344 27.632812 56.027344 Z M 72.082031 19.542969 C 77.6875 19.542969 82.882812 24.519531 86.816406 33.605469 C 86.089844 33.910156 85.351562 34.242188 84.609375 34.589844 C 81.101562 26.550781 76.574219 21.96875 72.082031 21.96875 C 67.59375 21.96875 63.070312 26.550781 59.570312 34.589844 C 58.820312 34.242188 58.085938 33.910156 57.355469 33.605469 C 61.289062 24.519531 66.484375 19.542969 72.082031 19.542969 Z M 93.582031 35.042969 C 88.097656 36.558594 81.730469 39.757812 75.199219 44.214844 C 74.496094 43.6875 73.800781 43.171875 73.105469 42.675781 C 80.136719 37.773438 87.015625 34.300781 93.015625 32.675781 C 93.046875 33.519531 93.25 34.3125 93.582031 35.042969 Z M 99.535156 27.03125 C 102.480469 27.03125 104.878906 29.425781 104.878906 32.375 C 104.878906 35.324219 102.480469 37.71875 99.535156 37.71875 C 96.585938 37.71875 94.191406 35.324219 94.191406 32.375 C 94.191406 29.425781 96.585938 27.03125 99.535156 27.03125 Z M 86.335938 39.070312 C 87.074219 38.714844 87.8125 38.386719 88.535156 38.074219 C 89.816406 41.8125 90.855469 45.945312 91.648438 50.339844 C 90.820312 50.207031 89.976562 50.085938 89.132812 49.960938 C 88.402344 46.050781 87.460938 42.394531 86.335938 39.070312 Z M 88.921875 56.332031 C 88.621094 56.023438 88.320312 55.71875 88.023438 55.414062 C 87.71875 55.117188 87.414062 54.824219 87.109375 54.523438 C 87.644531 54.585938 88.179688 54.660156 88.707031 54.730469 C 88.78125 55.265625 88.855469 55.796875 88.921875 56.332031 Z M 92.996094 60.675781 C 92.113281 59.695312 91.203125 58.710938 90.277344 57.738281 C 90.171875 56.777344 90.054688 55.847656 89.925781 54.914062 C 90.769531 55.035156 91.601562 55.167969 92.417969 55.316406 C 92.652344 57.070312 92.839844 58.867188 92.996094 60.675781 Z M 105.351562 54.964844 C 105.054688 55.671875 104.726562 56.386719 104.386719 57.117188 C 98.925781 55.265625 92.578125 53.921875 85.703125 53.167969 C 84.730469 52.238281 83.746094 51.324219 82.757812 50.445312 C 91.078125 51.148438 98.824219 52.671875 105.378906 54.90625 Z M 106.042969 32.835938 C 107.054688 33.320312 107.945312 33.949219 108.722656 34.71875 C 112.898438 38.894531 112.84375 46.671875 108.566406 56.601562 C 106.660156 61.023438 104.015625 65.660156 100.773438 70.332031 C 100.28125 69.648438 99.773438 68.964844 99.257812 68.28125 C 102.265625 63.890625 104.703125 59.546875 106.445312 55.417969 C 110.128906 46.683594 110.332031 39.765625 107.003906 36.441406 C 106.53125 35.964844 105.996094 35.566406 105.398438 35.234375 C 105.761719 34.5 105.984375 33.691406 106.042969 32.835938 Z M 72.019531 1.246094 C 32.9375 1.246094 1.253906 32.933594 1.253906 72.015625 C 1.253906 111.09375 32.9375 142.777344 72.019531 142.777344 C 111.101562 142.777344 142.78125 111.09375 142.78125 72.015625 C 142.78125 32.933594 111.101562 1.246094 72.019531 1.246094 " fill-opacity="1" fill-rule="nonzero"/></g></svg>