<svg xmlns="http://www.w3.org/2000/svg" xmlns:xlink="http://www.w3.org/1999/xlink" width="192" zoomAndPan="magnify" viewBox="0 0 144 143.999998" height="192" preserveAspectRatio="xMidYMid meet" version="1.0"><defs><g/><clipPath id="9df68eb71c"><path d="M 1.839844 2.410156 L 142.648438 2.410156 L 142.648438 141.589844 L 1.839844 141.589844 Z M 1.839844 2.410156 " clip-rule="nonzero"/></clipPath><clipPath id="34baf5ebd1"><path d="M 8.589844 2.410156 L 135.410156 2.410156 C 137.203125 2.410156 138.917969 3.121094 140.183594 4.386719 C 141.449219 5.652344 142.160156 7.371094 142.160156 9.160156 L 142.160156 134.839844 C 142.160156 138.566406 139.140625 141.589844 135.410156 141.589844 L 8.589844 141.589844 C 6.796875 141.589844 5.082031 140.878906 3.816406 139.613281 C 2.550781 138.347656 1.839844 136.628906 1.839844 134.839844 L 1.839844 9.160156 C 1.839844 5.433594 4.859375 2.410156 8.589844 2.410156 Z M 8.589844 2.410156 " clip-rule="nonzero"/></clipPath><clipPath id="6ab7d19ae5"><path d="M 2 41 L 142 41 L 142 123 L 2 123 Z M 2 41 " clip-rule="nonzero"/></clipPath><clipPath id="27fd9edeb0"><path d="M 25.246094 5 L 152.066406 53.917969 L 119.101562 139.382812 L -7.71875 90.464844 Z M 25.246094 5 " clip-rule="nonzero"/></clipPath><clipPath id="cf46b47299"><path d="M 25.246094 5 L 152.066406 53.917969 L 119.101562 139.382812 L -7.71875 90.464844 Z M 25.246094 5 " clip-rule="nonzero"/></clipPath><clipPath id="92f13971fe"><path d="M 141.097656 73.195312 C 144.242188 62.511719 138.871094 50.957031 128.726562 46.410156 C 120.894531 42.871094 112.230469 44.183594 105.914062 48.933594 C 102.765625 51.28125 98.414062 51.097656 95.355469 48.59375 C 93 46.652344 90.242188 45.015625 87.238281 43.855469 C 78.433594 40.460938 68.996094 41.53125 61.40625 46.019531 C 57.007812 48.632812 51.546875 48.480469 47.132812 45.914062 C 45.21875 44.773438 43.105469 43.84375 40.894531 43.164062 C 26.570312 38.730469 11.046875 45.902344 5.0625 59.628906 C -1.757812 75.21875 5.863281 93.160156 21.574219 99.21875 C 28.078125 101.726562 34.898438 101.773438 41.03125 99.886719 C 47.230469 97.964844 53.855469 100.75 56.796875 106.542969 C 60.234375 113.269531 66.230469 118.742188 74.085938 121.3125 C 88.535156 126.023438 104.46875 118.835938 110.480469 104.890625 C 111.167969 103.257812 111.714844 101.6875 112.132812 100.011719 C 113.496094 94.386719 117.90625 90.109375 123.609375 89.035156 C 131.585938 87.570312 138.59375 81.769531 141.097656 73.195312 Z M 141.097656 73.195312 " clip-rule="nonzero"/></clipPath><clipPath id="80da07621e"><path d="M 44 31 L 58 31 L 58 44 L 44 44 Z M 44 31 " clip-rule="nonzero"/></clipPath><clipPath id="a97819dc0e"><path d="M 25.246094 5 L 152.066406 53.917969 L 119.101562 139.382812 L -7.71875 90.464844 Z M 25.246094 5 " clip-rule="nonzero"/></clipPath><clipPath id="de1ac091d5"><path d="M 25.246094 5 L 152.066406 53.917969 L 119.101562 139.382812 L -7.71875 90.464844 Z M 25.246094 5 " clip-rule="nonzero"/></clipPath><clipPath id="b9d41810e8"><path d="M 57.007812 39.839844 C 56.855469 40.230469 56.667969 40.601562 56.445312 40.957031 C 56.222656 41.308594 55.964844 41.640625 55.675781 41.941406 C 55.386719 42.246094 55.070312 42.519531 54.726562 42.757812 C 54.386719 43 54.023438 43.207031 53.640625 43.375 C 53.257812 43.546875 52.859375 43.675781 52.453125 43.769531 C 52.042969 43.859375 51.628906 43.910156 51.210938 43.921875 C 50.792969 43.933594 50.375 43.902344 49.964844 43.828125 C 49.550781 43.757812 49.148438 43.648438 48.757812 43.496094 C 48.367188 43.34375 47.992188 43.15625 47.640625 42.933594 C 47.285156 42.710938 46.957031 42.453125 46.652344 42.164062 C 46.351562 41.875 46.078125 41.558594 45.835938 41.214844 C 45.59375 40.875 45.390625 40.511719 45.21875 40.128906 C 45.050781 39.746094 44.917969 39.347656 44.828125 38.941406 C 44.734375 38.53125 44.683594 38.117188 44.675781 37.699219 C 44.664062 37.28125 44.695312 36.863281 44.765625 36.453125 C 44.839844 36.039062 44.949219 35.636719 45.101562 35.246094 C 45.25 34.855469 45.4375 34.484375 45.664062 34.128906 C 45.886719 33.773438 46.144531 33.445312 46.433594 33.140625 C 46.722656 32.839844 47.035156 32.566406 47.378906 32.324219 C 47.722656 32.085938 48.085938 31.878906 48.46875 31.707031 C 48.851562 31.539062 49.246094 31.410156 49.65625 31.316406 C 50.066406 31.226562 50.476562 31.171875 50.898438 31.164062 C 51.316406 31.152344 51.730469 31.183594 52.144531 31.253906 C 52.558594 31.328125 52.960938 31.4375 53.351562 31.589844 C 53.742188 31.738281 54.113281 31.925781 54.46875 32.152344 C 54.820312 32.375 55.148438 32.632812 55.453125 32.921875 C 55.757812 33.210938 56.03125 33.527344 56.269531 33.867188 C 56.511719 34.210938 56.71875 34.574219 56.886719 34.957031 C 57.058594 35.339844 57.1875 35.734375 57.28125 36.144531 C 57.371094 36.554688 57.421875 36.96875 57.433594 37.386719 C 57.441406 37.804688 57.414062 38.21875 57.339844 38.632812 C 57.269531 39.046875 57.15625 39.449219 57.007812 39.839844 Z M 57.007812 39.839844 " clip-rule="nonzero"/></clipPath><clipPath id="cac714ec16"><path d="M 85 30 L 94 30 L 94 38 L 85 38 Z M 85 30 " clip-rule="nonzero"/></clipPath><clipPath id="a2223d494a"><path d="M 25.246094 5 L 152.066406 53.917969 L 119.101562 139.382812 L -7.71875 90.464844 Z M 25.246094 5 " clip-rule="nonzero"/></clipPath><clipPath id="366b51c66e"><path d="M 25.246094 5 L 152.066406 53.917969 L 119.101562 139.382812 L -7.71875 90.464844 Z M 25.246094 5 " clip-rule="nonzero"/></clipPath><clipPath id="5514dcd438"><path d="M 93.289062 35.328125 C 93.105469 35.796875 92.84375 36.214844 92.492188 36.582031 C 92.144531 36.949219 91.742188 37.234375 91.28125 37.4375 C 90.816406 37.640625 90.335938 37.75 89.832031 37.761719 C 89.324219 37.777344 88.835938 37.691406 88.367188 37.507812 C 87.894531 37.328125 87.476562 37.0625 87.113281 36.714844 C 86.746094 36.367188 86.460938 35.960938 86.257812 35.5 C 86.050781 35.039062 85.941406 34.554688 85.929688 34.050781 C 85.917969 33.546875 86.003906 33.058594 86.183594 32.585938 C 86.367188 32.117188 86.632812 31.699219 86.980469 31.332031 C 87.328125 30.964844 87.730469 30.679688 88.195312 30.476562 C 88.65625 30.273438 89.136719 30.164062 89.644531 30.152344 C 90.148438 30.136719 90.636719 30.222656 91.105469 30.40625 C 91.578125 30.585938 91.996094 30.851562 92.363281 31.199219 C 92.726562 31.546875 93.011719 31.953125 93.21875 32.414062 C 93.421875 32.875 93.53125 33.359375 93.542969 33.863281 C 93.554688 34.367188 93.46875 34.855469 93.289062 35.328125 Z M 93.289062 35.328125 " clip-rule="nonzero"/></clipPath><clipPath id="99e7240dd9"><path d="M 120 97 L 133 97 L 133 110 L 120 110 Z M 120 97 " clip-rule="nonzero"/></clipPath><clipPath id="d8eccfd6c4"><path d="M 25.246094 5 L 152.066406 53.917969 L 119.101562 139.382812 L -7.71875 90.464844 Z M 25.246094 5 " clip-rule="nonzero"/></clipPath><clipPath id="ac8f4d7e62"><path d="M 25.246094 5 L 152.066406 53.917969 L 119.101562 139.382812 L -7.71875 90.464844 Z M 25.246094 5 " clip-rule="nonzero"/></clipPath><clipPath id="c8e4f0d520"><path d="M 131.609375 105.398438 C 131.464844 105.765625 131.289062 106.113281 131.078125 106.449219 C 130.867188 106.78125 130.625 107.089844 130.355469 107.375 C 130.082031 107.660156 129.785156 107.917969 129.464844 108.144531 C 129.140625 108.371094 128.800781 108.566406 128.4375 108.726562 C 128.078125 108.886719 127.707031 109.007812 127.320312 109.09375 C 126.9375 109.179688 126.546875 109.230469 126.152344 109.238281 C 125.757812 109.25 125.367188 109.21875 124.976562 109.152344 C 124.589844 109.085938 124.210938 108.980469 123.84375 108.839844 C 123.476562 108.695312 123.125 108.519531 122.792969 108.308594 C 122.457031 108.097656 122.148438 107.855469 121.863281 107.585938 C 121.578125 107.3125 121.320312 107.015625 121.09375 106.695312 C 120.867188 106.371094 120.675781 106.03125 120.515625 105.667969 C 120.355469 105.308594 120.230469 104.9375 120.144531 104.550781 C 120.058594 104.167969 120.011719 103.777344 120 103.382812 C 119.992188 102.988281 120.019531 102.597656 120.085938 102.207031 C 120.15625 101.820312 120.257812 101.441406 120.402344 101.074219 C 120.542969 100.707031 120.71875 100.355469 120.929688 100.023438 C 121.140625 99.6875 121.382812 99.378906 121.65625 99.09375 C 121.925781 98.808594 122.222656 98.550781 122.546875 98.324219 C 122.867188 98.097656 123.210938 97.90625 123.570312 97.746094 C 123.929688 97.585938 124.304688 97.460938 124.6875 97.375 C 125.074219 97.289062 125.464844 97.242188 125.855469 97.230469 C 126.25 97.222656 126.644531 97.25 127.03125 97.316406 C 127.417969 97.386719 127.796875 97.488281 128.167969 97.632812 C 128.535156 97.773438 128.882812 97.949219 129.21875 98.160156 C 129.550781 98.371094 129.859375 98.613281 130.144531 98.886719 C 130.429688 99.15625 130.6875 99.453125 130.914062 99.777344 C 131.140625 100.097656 131.335938 100.441406 131.496094 100.800781 C 131.65625 101.160156 131.777344 101.535156 131.863281 101.917969 C 131.949219 102.304688 132 102.695312 132.007812 103.085938 C 132.019531 103.480469 131.988281 103.875 131.921875 104.261719 C 131.855469 104.652344 131.75 105.027344 131.609375 105.398438 Z M 131.609375 105.398438 " clip-rule="nonzero"/></clipPath></defs><g clip-path="url(#9df68eb71c)"><g clip-path="url(#34baf5ebd1)"><path fill="#4b5ae4" d="M 1.839844 2.410156 L 142.105469 2.410156 L 142.105469 141.589844 L 1.839844 141.589844 Z M 1.839844 2.410156 " fill-opacity="1" fill-rule="nonzero"/></g></g><g clip-path="url(#6ab7d19ae5)"><g clip-path="url(#27fd9edeb0)"><g clip-path="url(#cf46b47299)"><g clip-path="url(#92f13971fe)"><path fill="#fcfdf2" d="M 18.648438 -9.617188 L -29.308594 114.71875 L 125.351562 174.375 L 173.308594 50.039062 Z M 18.648438 -9.617188 " fill-opacity="1" fill-rule="nonzero"/></g></g></g></g><g clip-path="url(#80da07621e)"><g clip-path="url(#a97819dc0e)"><g clip-path="url(#de1ac091d5)"><g clip-path="url(#b9d41810e8)"><path fill="#fcfdf2" d="M 46.320312 26.863281 L 40.375 42.277344 L 55.789062 48.222656 L 61.734375 32.808594 Z M 46.320312 26.863281 " fill-opacity="1" fill-rule="nonzero"/></g></g></g></g><g clip-path="url(#cac714ec16)"><g clip-path="url(#a2223d494a)"><g clip-path="url(#366b51c66e)"><g clip-path="url(#5514dcd438)"><path fill="#fcfdf2" d="M 86.90625 27.574219 L 83.355469 36.785156 L 92.566406 40.339844 L 96.121094 31.128906 Z M 86.90625 27.574219 " fill-opacity="1" fill-rule="nonzero"/></g></g></g></g><g clip-path="url(#99e7240dd9)"><g clip-path="url(#d8eccfd6c4)"><g clip-path="url(#ac8f4d7e62)"><g clip-path="url(#c8e4f0d520)"><path fill="#fcfdf2" d="M 121.550781 93.183594 L 115.953125 107.691406 L 130.460938 113.289062 L 136.054688 98.78125 Z M 121.550781 93.183594 " fill-opacity="1" fill-rule="nonzero"/></g></g></g></g><g fill="#4b5ae4" fill-opacity="1"><g transform="translate(12.074577, 93.570821)"><g><path d="M 2.625 -1.015625 C 1.894531 -0.734375 1.15625 -0.898438 0.40625 -1.515625 C -0.332031 -2.128906 -0.960938 -3.257812 -1.484375 -4.90625 C -2.003906 -6.550781 -2.332031 -8.769531 -2.46875 -11.5625 C -2.5625 -13.382812 -2.816406 -15.179688 -3.234375 -16.953125 C -3.648438 -18.734375 -4.085938 -20.382812 -4.546875 -21.90625 C -5.003906 -23.4375 -5.347656 -24.734375 -5.578125 -25.796875 C -5.671875 -26.160156 -5.613281 -26.597656 -5.40625 -27.109375 C -5.207031 -27.617188 -4.722656 -28.023438 -3.953125 -28.328125 C -3.398438 -28.535156 -2.90625 -28.566406 -2.46875 -28.421875 C -2.03125 -28.273438 -1.671875 -28.054688 -1.390625 -27.765625 C -1.253906 -27.617188 -1.054688 -27.28125 -0.796875 -26.75 C -0.535156 -26.226562 -0.238281 -25.632812 0.09375 -24.96875 C 0.4375 -24.3125 0.785156 -23.71875 1.140625 -23.1875 C 1.503906 -22.65625 1.847656 -22.304688 2.171875 -22.140625 C 2.785156 -21.816406 3.425781 -21.785156 4.09375 -22.046875 C 4.8125 -22.328125 5.289062 -22.796875 5.53125 -23.453125 C 5.644531 -23.765625 5.644531 -24.1875 5.53125 -24.71875 C 5.425781 -25.25 5.257812 -25.8125 5.03125 -26.40625 C 4.8125 -27.007812 4.59375 -27.59375 4.375 -28.15625 C 4.15625 -28.71875 4 -29.164062 3.90625 -29.5 C 3.820312 -29.863281 3.875 -30.296875 4.0625 -30.796875 C 4.25 -31.304688 4.738281 -31.71875 5.53125 -32.03125 C 6.0625 -32.226562 6.546875 -32.253906 6.984375 -32.109375 C 7.429688 -31.960938 7.800781 -31.75 8.09375 -31.46875 C 8.34375 -31.195312 8.710938 -30.601562 9.203125 -29.6875 C 9.703125 -28.769531 10.265625 -27.695312 10.890625 -26.46875 C 11.523438 -25.238281 12.21875 -24.007812 12.96875 -22.78125 C 13.726562 -21.5625 14.492188 -20.492188 15.265625 -19.578125 C 16.234375 -18.421875 17.164062 -17.210938 18.0625 -15.953125 C 18.96875 -14.703125 19.65625 -13.492188 20.125 -12.328125 C 20.59375 -11.160156 20.71875 -10.125 20.5 -9.21875 C 20.28125 -8.320312 19.535156 -7.625 18.265625 -7.125 L 14.40625 -5.625 C 13.863281 -5.40625 13.3125 -5.34375 12.75 -5.4375 C 12.1875 -5.53125 11.648438 -5.875 11.140625 -6.46875 C 10.628906 -7.0625 10.195312 -7.976562 9.84375 -9.21875 C 9.488281 -10.457031 9.265625 -12.132812 9.171875 -14.25 C 9.128906 -15.0625 8.953125 -15.859375 8.640625 -16.640625 C 8.335938 -17.421875 8.082031 -17.875 7.875 -18 C 7.71875 -18.113281 7.441406 -18.132812 7.046875 -18.0625 C 6.648438 -18 6.242188 -17.882812 5.828125 -17.71875 C 5.398438 -17.550781 5.007812 -17.347656 4.65625 -17.109375 C 4.3125 -16.867188 4.078125 -16.65625 3.953125 -16.46875 C 3.773438 -16.175781 3.832031 -15.785156 4.125 -15.296875 C 4.414062 -14.804688 4.65625 -14.425781 4.84375 -14.15625 C 5.613281 -13.070312 6.367188 -11.957031 7.109375 -10.8125 C 7.859375 -9.675781 8.425781 -8.570312 8.8125 -7.5 C 9.207031 -6.4375 9.273438 -5.476562 9.015625 -4.625 C 8.753906 -3.78125 7.988281 -3.113281 6.71875 -2.625 Z M 2.625 -1.015625 "/></g></g></g><g fill="#4b5ae4" fill-opacity="1"><g transform="translate(31.664126, 85.555383)"><g><path d="M 3 -0.140625 C 2.070312 -0.0976562 1.40625 -0.320312 1 -0.8125 C 0.601562 -1.300781 0.367188 -1.878906 0.296875 -2.546875 C 0.222656 -3.210938 0.226562 -3.773438 0.3125 -4.234375 C 0.550781 -5.609375 0.9375 -6.96875 1.46875 -8.3125 C 2.007812 -9.65625 2.460938 -10.976562 2.828125 -12.28125 C 3.148438 -13.375 3.421875 -14.425781 3.640625 -15.4375 C 3.859375 -16.457031 4.101562 -17.507812 4.375 -18.59375 C 4.445312 -18.863281 4.5625 -19.394531 4.71875 -20.1875 C 4.882812 -20.976562 5.113281 -21.867188 5.40625 -22.859375 C 5.707031 -23.859375 6.082031 -24.8125 6.53125 -25.71875 C 6.988281 -26.625 7.53125 -27.304688 8.15625 -27.765625 C 8.625 -28.109375 9.21875 -28.296875 9.9375 -28.328125 C 10.46875 -28.359375 10.988281 -28.273438 11.5 -28.078125 C 12.019531 -27.890625 12.425781 -27.597656 12.71875 -27.203125 C 13.800781 -25.734375 14.625 -24.15625 15.1875 -22.46875 C 15.75 -20.789062 16.351562 -19.097656 17 -17.390625 C 17.34375 -16.492188 17.800781 -15.507812 18.375 -14.4375 C 18.945312 -13.363281 19.519531 -12.285156 20.09375 -11.203125 C 20.675781 -10.117188 21.175781 -9.066406 21.59375 -8.046875 C 22.019531 -7.023438 22.269531 -6.101562 22.34375 -5.28125 C 22.394531 -4.664062 22.367188 -4.023438 22.265625 -3.359375 C 22.171875 -2.703125 21.957031 -2.144531 21.625 -1.6875 C 21.300781 -1.226562 20.820312 -0.984375 20.1875 -0.953125 L 14.9375 -0.703125 C 14.351562 -0.679688 13.882812 -0.941406 13.53125 -1.484375 C 13.1875 -2.035156 12.929688 -2.757812 12.765625 -3.65625 C 12.609375 -4.5625 12.503906 -5.519531 12.453125 -6.53125 C 12.398438 -7.539062 12.378906 -8.503906 12.390625 -9.421875 C 12.398438 -10.347656 12.421875 -11.132812 12.453125 -11.78125 C 12.492188 -12.425781 12.503906 -12.789062 12.484375 -12.875 C 12.441406 -13.09375 12.25 -13.238281 11.90625 -13.3125 C 11.570312 -13.394531 11.203125 -13.425781 10.796875 -13.40625 C 10.367188 -13.382812 9.960938 -13.300781 9.578125 -13.15625 C 9.203125 -13.019531 8.953125 -12.828125 8.828125 -12.578125 C 8.796875 -12.515625 8.875 -12.1875 9.0625 -11.59375 C 9.257812 -11.007812 9.484375 -10.257812 9.734375 -9.34375 C 9.992188 -8.4375 10.222656 -7.476562 10.421875 -6.46875 C 10.617188 -5.46875 10.71875 -4.507812 10.71875 -3.59375 C 10.726562 -2.6875 10.570312 -1.9375 10.25 -1.34375 C 9.925781 -0.757812 9.363281 -0.445312 8.5625 -0.40625 Z M 10.09375 -23.953125 C 9.726562 -23.878906 9.4375 -23.585938 9.21875 -23.078125 C 9 -22.578125 8.835938 -21.984375 8.734375 -21.296875 C 8.640625 -20.617188 8.59375 -19.972656 8.59375 -19.359375 C 8.59375 -18.742188 8.640625 -18.273438 8.734375 -17.953125 C 8.828125 -17.691406 9.03125 -17.5 9.34375 -17.375 C 9.65625 -17.257812 9.984375 -17.210938 10.328125 -17.234375 C 10.785156 -17.253906 11.195312 -17.351562 11.5625 -17.53125 C 11.9375 -17.707031 12.15625 -17.972656 12.21875 -18.328125 C 12.28125 -18.648438 12.257812 -19.125 12.15625 -19.75 C 12.0625 -20.375 11.910156 -21.019531 11.703125 -21.6875 C 11.503906 -22.351562 11.265625 -22.914062 10.984375 -23.375 C 10.710938 -23.832031 10.414062 -24.023438 10.09375 -23.953125 Z M 10.09375 -23.953125 "/></g></g></g><g fill="#4b5ae4" fill-opacity="1"><g transform="translate(52.380591, 84.629545)"><g><path d="M 3.03125 -4.0625 C 2.8125 -5.644531 2.773438 -7.316406 2.921875 -9.078125 C 3.066406 -10.847656 3.378906 -12.585938 3.859375 -14.296875 C 4.335938 -16.015625 4.941406 -17.613281 5.671875 -19.09375 C 6.410156 -20.582031 7.226562 -21.84375 8.125 -22.875 C 8.84375 -23.6875 9.796875 -24.335938 10.984375 -24.828125 C 12.179688 -25.316406 13.3125 -25.429688 14.375 -25.171875 C 14.632812 -25.109375 14.800781 -25.066406 14.875 -25.046875 C 14.957031 -25.023438 15.03125 -25.003906 15.09375 -24.984375 C 15.15625 -24.972656 15.316406 -24.9375 15.578125 -24.875 C 16.796875 -24.582031 17.804688 -24.140625 18.609375 -23.546875 C 19.421875 -22.953125 19.972656 -22.296875 20.265625 -21.578125 C 20.566406 -20.859375 20.523438 -20.175781 20.140625 -19.53125 C 19.910156 -19.113281 19.53125 -18.894531 19 -18.875 C 18.46875 -18.851562 17.90625 -18.914062 17.3125 -19.0625 C 16.894531 -19.15625 16.460938 -19.269531 16.015625 -19.40625 C 15.578125 -19.539062 15.175781 -19.65625 14.8125 -19.75 C 14.476562 -19.832031 14.191406 -19.875 13.953125 -19.875 C 13.710938 -19.875 13.566406 -19.769531 13.515625 -19.5625 C 13.421875 -19.25 13.570312 -18.984375 13.96875 -18.765625 C 14.375 -18.546875 14.878906 -18.335938 15.484375 -18.140625 C 16.085938 -17.941406 16.6875 -17.691406 17.28125 -17.390625 C 17.882812 -17.097656 18.347656 -16.707031 18.671875 -16.21875 C 19.003906 -15.738281 19.078125 -15.113281 18.890625 -14.34375 C 18.703125 -13.5625 18.363281 -13.078125 17.875 -12.890625 C 17.382812 -12.710938 16.828125 -12.675781 16.203125 -12.78125 C 15.578125 -12.882812 14.953125 -13.019531 14.328125 -13.1875 C 13.710938 -13.351562 13.171875 -13.410156 12.703125 -13.359375 C 12.242188 -13.304688 11.945312 -13.007812 11.8125 -12.46875 C 11.601562 -11.601562 11.738281 -10.816406 12.21875 -10.109375 C 12.695312 -9.410156 13.492188 -8.925781 14.609375 -8.65625 C 14.710938 -8.632812 14.8125 -8.617188 14.90625 -8.609375 C 15 -8.597656 15.097656 -8.582031 15.203125 -8.5625 C 15.253906 -8.550781 15.3125 -8.535156 15.375 -8.515625 C 15.445312 -8.503906 15.519531 -8.488281 15.59375 -8.46875 C 16.5 -8.25 17.191406 -7.785156 17.671875 -7.078125 C 18.160156 -6.367188 18.4375 -5.546875 18.5 -4.609375 C 18.570312 -3.671875 18.457031 -2.710938 18.15625 -1.734375 C 17.863281 -0.765625 17.390625 0.0976562 16.734375 0.859375 C 16.085938 1.628906 15.257812 2.1875 14.25 2.53125 C 13.25 2.882812 12.082031 2.898438 10.75 2.578125 L 7.421875 1.78125 C 6.816406 1.632812 6.203125 1.28125 5.578125 0.71875 C 4.953125 0.15625 4.40625 -0.535156 3.9375 -1.359375 C 3.476562 -2.179688 3.175781 -3.082031 3.03125 -4.0625 Z M 3.03125 -4.0625 "/></g></g></g><g fill="#4b5ae4" fill-opacity="1"><g transform="translate(70.98549, 88.482241)"><g><path d="M 4 0.328125 C 2.789062 0.191406 1.941406 -0.144531 1.453125 -0.6875 C 0.972656 -1.226562 0.710938 -1.847656 0.671875 -2.546875 C 0.640625 -3.253906 0.738281 -3.929688 0.96875 -4.578125 C 1.207031 -5.222656 1.460938 -5.734375 1.734375 -6.109375 C 1.929688 -6.335938 2.179688 -6.671875 2.484375 -7.109375 C 2.785156 -7.554688 3.085938 -8.1875 3.390625 -9 C 3.703125 -9.820312 3.945312 -10.914062 4.125 -12.28125 C 4.3125 -13.644531 4.359375 -15.375 4.265625 -17.46875 C 4.222656 -18.207031 4.144531 -19.09375 4.03125 -20.125 C 3.925781 -21.15625 3.882812 -22.191406 3.90625 -23.234375 C 3.9375 -24.273438 4.101562 -25.171875 4.40625 -25.921875 C 4.71875 -26.671875 5.285156 -27.113281 6.109375 -27.25 C 6.410156 -27.300781 6.695312 -27.316406 6.96875 -27.296875 C 7.394531 -27.253906 7.765625 -27.15625 8.078125 -27 C 8.398438 -26.851562 8.609375 -26.71875 8.703125 -26.59375 C 9.035156 -26.695312 9.425781 -26.78125 9.875 -26.84375 C 10.332031 -26.914062 10.8125 -26.929688 11.3125 -26.890625 C 11.375 -26.878906 11.441406 -26.867188 11.515625 -26.859375 C 11.585938 -26.859375 11.648438 -26.851562 11.703125 -26.84375 C 12.972656 -26.644531 14.195312 -25.941406 15.375 -24.734375 C 16.550781 -23.523438 17.492188 -21.878906 18.203125 -19.796875 C 18.921875 -17.710938 19.226562 -15.265625 19.125 -12.453125 C 19.082031 -10.828125 18.859375 -9.222656 18.453125 -7.640625 C 18.054688 -6.066406 17.484375 -4.664062 16.734375 -3.4375 C 15.984375 -2.207031 15.039062 -1.253906 13.90625 -0.578125 C 12.738281 0.0859375 11.578125 0.484375 10.421875 0.609375 C 9.273438 0.742188 8.085938 0.753906 6.859375 0.640625 C 6.753906 0.628906 6.660156 0.617188 6.578125 0.609375 C 6.503906 0.609375 6.425781 0.601562 6.34375 0.59375 C 5.882812 0.519531 5.488281 0.46875 5.15625 0.4375 C 4.832031 0.40625 4.445312 0.367188 4 0.328125 Z M 11.578125 -21.1875 C 11.109375 -21.257812 10.71875 -20.976562 10.40625 -20.34375 C 10.101562 -19.71875 9.894531 -18.921875 9.78125 -17.953125 C 9.664062 -16.984375 9.640625 -16.003906 9.703125 -15.015625 C 9.773438 -14.023438 9.9375 -13.1875 10.1875 -12.5 C 10.445312 -11.820312 10.804688 -11.472656 11.265625 -11.453125 C 11.640625 -11.453125 11.972656 -11.671875 12.265625 -12.109375 C 12.566406 -12.546875 12.8125 -13.125 13 -13.84375 C 13.195312 -14.570312 13.316406 -15.335938 13.359375 -16.140625 C 13.429688 -16.929688 13.414062 -17.703125 13.3125 -18.453125 C 13.207031 -19.210938 13.015625 -19.84375 12.734375 -20.34375 C 12.460938 -20.851562 12.078125 -21.132812 11.578125 -21.1875 Z M 11.578125 -21.1875 "/></g></g></g><g fill="#4b5ae4" fill-opacity="1"><g transform="translate(91.041364, 90.421063)"><g><path d="M 2.984375 -0.34375 C 2.054688 -0.238281 1.378906 -0.414062 0.953125 -0.875 C 0.523438 -1.34375 0.25 -1.90625 0.125 -2.5625 C 0.0078125 -3.21875 -0.0195312 -3.773438 0.03125 -4.234375 C 0.175781 -5.617188 0.46875 -7.003906 0.90625 -8.390625 C 1.34375 -9.785156 1.703125 -11.140625 1.984375 -12.453125 C 2.222656 -13.566406 2.414062 -14.632812 2.5625 -15.65625 C 2.707031 -16.6875 2.882812 -17.75 3.09375 -18.84375 C 3.132812 -19.125 3.207031 -19.664062 3.3125 -20.46875 C 3.414062 -21.269531 3.582031 -22.175781 3.8125 -23.1875 C 4.050781 -24.207031 4.363281 -25.179688 4.75 -26.109375 C 5.132812 -27.035156 5.628906 -27.75 6.234375 -28.25 C 6.671875 -28.632812 7.242188 -28.867188 7.953125 -28.953125 C 8.484375 -29.015625 9.015625 -28.96875 9.546875 -28.8125 C 10.078125 -28.65625 10.5 -28.390625 10.8125 -28.015625 C 11.988281 -26.617188 12.914062 -25.101562 13.59375 -23.46875 C 14.269531 -21.832031 14.988281 -20.179688 15.75 -18.515625 C 16.15625 -17.648438 16.675781 -16.703125 17.3125 -15.671875 C 17.957031 -14.640625 18.609375 -13.601562 19.265625 -12.5625 C 19.929688 -11.519531 20.507812 -10.503906 21 -9.515625 C 21.488281 -8.535156 21.800781 -7.628906 21.9375 -6.796875 C 22.03125 -6.191406 22.046875 -5.554688 21.984375 -4.890625 C 21.929688 -4.222656 21.757812 -3.648438 21.46875 -3.171875 C 21.175781 -2.691406 20.707031 -2.414062 20.0625 -2.34375 L 14.859375 -1.734375 C 14.273438 -1.671875 13.785156 -1.894531 13.390625 -2.40625 C 13.003906 -2.925781 12.695312 -3.628906 12.46875 -4.515625 C 12.25 -5.410156 12.082031 -6.363281 11.96875 -7.375 C 11.851562 -8.382812 11.765625 -9.347656 11.703125 -10.265625 C 11.648438 -11.191406 11.617188 -11.972656 11.609375 -12.609375 C 11.609375 -13.253906 11.59375 -13.617188 11.5625 -13.703125 C 11.5 -13.921875 11.296875 -14.050781 10.953125 -14.09375 C 10.617188 -14.144531 10.25 -14.148438 9.84375 -14.109375 C 9.414062 -14.054688 9.019531 -13.953125 8.65625 -13.796875 C 8.289062 -13.640625 8.054688 -13.425781 7.953125 -13.15625 C 7.921875 -13.101562 8.019531 -12.785156 8.25 -12.203125 C 8.488281 -11.628906 8.765625 -10.894531 9.078125 -10 C 9.390625 -9.113281 9.679688 -8.171875 9.953125 -7.171875 C 10.222656 -6.179688 10.390625 -5.234375 10.453125 -4.328125 C 10.515625 -3.421875 10.40625 -2.660156 10.125 -2.046875 C 9.851562 -1.441406 9.316406 -1.09375 8.515625 -1 Z M 8.421875 -24.59375 C 8.054688 -24.5 7.78125 -24.191406 7.59375 -23.671875 C 7.414062 -23.160156 7.300781 -22.554688 7.25 -21.859375 C 7.195312 -21.160156 7.191406 -20.503906 7.234375 -19.890625 C 7.285156 -19.273438 7.367188 -18.8125 7.484375 -18.5 C 7.597656 -18.257812 7.8125 -18.085938 8.125 -17.984375 C 8.445312 -17.890625 8.78125 -17.863281 9.125 -17.90625 C 9.582031 -17.957031 9.984375 -18.082031 10.328125 -18.28125 C 10.679688 -18.488281 10.878906 -18.765625 10.921875 -19.109375 C 10.960938 -19.441406 10.910156 -19.914062 10.765625 -20.53125 C 10.628906 -21.15625 10.4375 -21.789062 10.1875 -22.4375 C 9.945312 -23.09375 9.671875 -23.640625 9.359375 -24.078125 C 9.046875 -24.515625 8.734375 -24.6875 8.421875 -24.59375 Z M 8.421875 -24.59375 "/></g></g></g><g fill="#4b5ae4" fill-opacity="1"><g transform="translate(115.82603, 87.273696)"><g><path d="M 5.6875 -2.0625 C 4.425781 -1.613281 3.382812 -1.410156 2.5625 -1.453125 C 1.738281 -1.492188 1.070312 -1.6875 0.5625 -2.03125 C 0.0507812 -2.382812 -0.34375 -2.816406 -0.625 -3.328125 C -0.914062 -3.835938 -1.148438 -4.332031 -1.328125 -4.8125 C -1.617188 -5.613281 -1.820312 -6.492188 -1.9375 -7.453125 C -2.0625 -8.421875 -2.175781 -9.398438 -2.28125 -10.390625 C -2.382812 -11.378906 -2.539062 -12.304688 -2.75 -13.171875 C -2.945312 -14.117188 -3.25 -15.054688 -3.65625 -15.984375 C -4.070312 -16.910156 -4.492188 -17.800781 -4.921875 -18.65625 C -5.078125 -19 -5.304688 -19.484375 -5.609375 -20.109375 C -5.921875 -20.734375 -6.203125 -21.414062 -6.453125 -22.15625 C -6.710938 -22.90625 -6.894531 -23.648438 -7 -24.390625 C -7.113281 -25.140625 -7.054688 -25.800781 -6.828125 -26.375 C -6.597656 -26.957031 -6.117188 -27.382812 -5.390625 -27.65625 C -4.941406 -27.8125 -4.445312 -27.878906 -3.90625 -27.859375 C -3.375 -27.847656 -3.039062 -27.863281 -2.90625 -27.90625 C -2.757812 -28 -2.597656 -28.125 -2.421875 -28.28125 C -2.242188 -28.445312 -1.941406 -28.65625 -1.515625 -28.90625 C -1.085938 -29.164062 -0.414062 -29.460938 0.5 -29.796875 C 1.34375 -30.109375 2.28125 -30.273438 3.3125 -30.296875 C 4.34375 -30.316406 5.382812 -30.109375 6.4375 -29.671875 C 7.5 -29.242188 8.472656 -28.492188 9.359375 -27.421875 C 10.253906 -26.359375 10.988281 -24.878906 11.5625 -22.984375 C 11.957031 -21.660156 12.066406 -20.378906 11.890625 -19.140625 C 11.710938 -17.910156 11.070312 -16.851562 9.96875 -15.96875 C 10.789062 -16.03125 11.710938 -15.984375 12.734375 -15.828125 C 13.765625 -15.679688 14.785156 -15.394531 15.796875 -14.96875 C 16.804688 -14.539062 17.695312 -13.929688 18.46875 -13.140625 C 19.238281 -12.347656 19.78125 -11.367188 20.09375 -10.203125 C 20.3125 -9.359375 20.242188 -8.660156 19.890625 -8.109375 C 19.535156 -7.566406 19.050781 -7.140625 18.4375 -6.828125 C 17.820312 -6.523438 17.265625 -6.285156 16.765625 -6.109375 C 15.804688 -5.753906 15.015625 -5.597656 14.390625 -5.640625 C 13.765625 -5.691406 13.253906 -5.863281 12.859375 -6.15625 C 12.472656 -6.445312 12.128906 -6.796875 11.828125 -7.203125 C 11.429688 -7.796875 10.894531 -8.460938 10.21875 -9.203125 C 9.550781 -9.941406 8.859375 -10.648438 8.140625 -11.328125 C 7.421875 -12.003906 6.78125 -12.546875 6.21875 -12.953125 C 5.65625 -13.367188 5.273438 -13.535156 5.078125 -13.453125 C 4.972656 -13.421875 4.929688 -13.347656 4.953125 -13.234375 C 4.941406 -12.910156 5.097656 -12.601562 5.421875 -12.3125 C 5.753906 -12.03125 6.15625 -11.695312 6.625 -11.3125 C 7.101562 -10.9375 7.582031 -10.484375 8.0625 -9.953125 C 8.539062 -9.421875 8.921875 -8.769531 9.203125 -8 C 9.484375 -7.300781 9.585938 -6.582031 9.515625 -5.84375 C 9.453125 -5.113281 9.125 -4.421875 8.53125 -3.765625 C 7.945312 -3.109375 7 -2.539062 5.6875 -2.0625 Z M 1.796875 -26.265625 C 1.472656 -26.109375 1.296875 -25.796875 1.265625 -25.328125 C 1.234375 -24.867188 1.304688 -24.347656 1.484375 -23.765625 C 1.671875 -23.191406 1.929688 -22.65625 2.265625 -22.15625 C 2.609375 -21.664062 2.984375 -21.28125 3.390625 -21 C 3.804688 -20.726562 4.21875 -20.664062 4.625 -20.8125 C 4.71875 -20.851562 4.804688 -20.890625 4.890625 -20.921875 C 5.460938 -21.285156 5.703125 -21.804688 5.609375 -22.484375 C 5.523438 -23.160156 5.265625 -23.820312 4.828125 -24.46875 C 4.410156 -25.0625 3.914062 -25.550781 3.34375 -25.9375 C 2.78125 -26.320312 2.285156 -26.4375 1.859375 -26.28125 C 1.835938 -26.269531 1.828125 -26.265625 1.828125 -26.265625 C 1.828125 -26.265625 1.816406 -26.265625 1.796875 -26.265625 Z M 1.796875 -26.265625 "/></g></g></g><g fill="#4b5ae4" fill-opacity="1"><g transform="translate(68.928955, 107.260615)"><g><path d="M 1.953125 1.140625 C 1.648438 0.972656 1.40625 0.769531 1.21875 0.53125 C 1.039062 0.289062 0.929688 0.0390625 0.890625 -0.21875 C 0.859375 -0.488281 0.914062 -0.753906 1.0625 -1.015625 L 1.71875 -0.671875 C 1.601562 -0.441406 1.582031 -0.210938 1.65625 0.015625 C 1.738281 0.253906 1.929688 0.457031 2.234375 0.625 C 2.523438 0.789062 2.789062 0.847656 3.03125 0.796875 C 3.269531 0.742188 3.453125 0.601562 3.578125 0.375 C 3.671875 0.207031 3.703125 0.0390625 3.671875 -0.125 C 3.640625 -0.289062 3.566406 -0.441406 3.453125 -0.578125 C 3.335938 -0.722656 3.171875 -0.894531 2.953125 -1.09375 C 2.703125 -1.34375 2.507812 -1.554688 2.375 -1.734375 C 2.238281 -1.921875 2.148438 -2.132812 2.109375 -2.375 C 2.066406 -2.613281 2.128906 -2.875 2.296875 -3.15625 C 2.429688 -3.40625 2.617188 -3.59375 2.859375 -3.71875 C 3.097656 -3.84375 3.359375 -3.894531 3.640625 -3.875 C 3.921875 -3.851562 4.210938 -3.757812 4.515625 -3.59375 C 4.953125 -3.351562 5.25 -3.046875 5.40625 -2.671875 C 5.5625 -2.304688 5.554688 -1.9375 5.390625 -1.5625 L 4.734375 -1.921875 C 4.804688 -2.109375 4.796875 -2.316406 4.703125 -2.546875 C 4.617188 -2.773438 4.445312 -2.960938 4.1875 -3.109375 C 3.925781 -3.253906 3.679688 -3.300781 3.453125 -3.25 C 3.234375 -3.207031 3.0625 -3.070312 2.9375 -2.84375 C 2.832031 -2.675781 2.796875 -2.515625 2.828125 -2.359375 C 2.859375 -2.203125 2.925781 -2.054688 3.03125 -1.921875 C 3.144531 -1.785156 3.304688 -1.613281 3.515625 -1.40625 C 3.773438 -1.144531 3.972656 -0.925781 4.109375 -0.75 C 4.242188 -0.570312 4.332031 -0.359375 4.375 -0.109375 C 4.425781 0.140625 4.375 0.410156 4.21875 0.703125 C 4.09375 0.921875 3.910156 1.09375 3.671875 1.21875 C 3.441406 1.351562 3.175781 1.414062 2.875 1.40625 C 2.570312 1.40625 2.265625 1.316406 1.953125 1.140625 Z M 1.953125 1.140625 "/></g></g></g><g fill="#4b5ae4" fill-opacity="1"><g transform="translate(73.234947, 109.511142)"><g><path d="M 2.5625 -4.171875 C 2.4375 -4.210938 2.347656 -4.289062 2.296875 -4.40625 C 2.253906 -4.53125 2.253906 -4.648438 2.296875 -4.765625 C 2.335938 -4.898438 2.414062 -4.992188 2.53125 -5.046875 C 2.644531 -5.097656 2.765625 -5.101562 2.890625 -5.0625 C 3.003906 -5.019531 3.085938 -4.941406 3.140625 -4.828125 C 3.191406 -4.710938 3.195312 -4.585938 3.15625 -4.453125 C 3.113281 -4.335938 3.03125 -4.25 2.90625 -4.1875 C 2.789062 -4.132812 2.675781 -4.128906 2.5625 -4.171875 Z M 2.640625 -3.4375 L 1.1875 0.4375 L 0.546875 0.203125 L 2 -3.671875 Z M 2.640625 -3.4375 "/></g></g></g><g fill="#4b5ae4" fill-opacity="1"><g transform="translate(75.368939, 110.392133)"><g><path d="M 4.71875 -1.296875 C 4.6875 -1.160156 4.65625 -1.023438 4.625 -0.890625 L 1.390625 -1.578125 C 1.328125 -1.160156 1.394531 -0.8125 1.59375 -0.53125 C 1.800781 -0.257812 2.082031 -0.0859375 2.4375 -0.015625 C 2.726562 0.046875 2.984375 0.03125 3.203125 -0.0625 C 3.421875 -0.164062 3.597656 -0.320312 3.734375 -0.53125 L 4.453125 -0.375 C 4.265625 -0.0195312 3.976562 0.242188 3.59375 0.421875 C 3.21875 0.597656 2.789062 0.640625 2.3125 0.546875 C 1.925781 0.460938 1.597656 0.300781 1.328125 0.0625 C 1.066406 -0.164062 0.882812 -0.457031 0.78125 -0.8125 C 0.675781 -1.164062 0.664062 -1.550781 0.75 -1.96875 C 0.832031 -2.382812 0.988281 -2.734375 1.21875 -3.015625 C 1.457031 -3.296875 1.742188 -3.488281 2.078125 -3.59375 C 2.421875 -3.707031 2.789062 -3.722656 3.1875 -3.640625 C 3.570312 -3.554688 3.894531 -3.398438 4.15625 -3.171875 C 4.414062 -2.953125 4.59375 -2.675781 4.6875 -2.34375 C 4.78125 -2.007812 4.789062 -1.660156 4.71875 -1.296875 Z M 4.0625 -1.578125 C 4.113281 -1.828125 4.101562 -2.054688 4.03125 -2.265625 C 3.957031 -2.484375 3.828125 -2.660156 3.640625 -2.796875 C 3.460938 -2.929688 3.257812 -3.023438 3.03125 -3.078125 C 2.695312 -3.140625 2.390625 -3.085938 2.109375 -2.921875 C 1.828125 -2.765625 1.625 -2.5 1.5 -2.125 Z M 4.0625 -1.578125 "/></g></g></g><g fill="#4b5ae4" fill-opacity="1"><g transform="translate(80.532522, 111.379701)"><g><path d="M 2.125 -0.65625 L 3.390625 -4.15625 L 4.125 -4.15625 L 2.515625 -0.015625 L 1.71875 0 L 0.078125 -4.140625 L 0.8125 -4.140625 Z M 2.125 -0.65625 "/></g></g></g><g fill="#4b5ae4" fill-opacity="1"><g transform="translate(85.347572, 111.322282)"><g><path d="M 3.796875 -3.109375 C 3.816406 -2.972656 3.835938 -2.832031 3.859375 -2.6875 L 0.625 -1.984375 C 0.726562 -1.585938 0.925781 -1.304688 1.21875 -1.140625 C 1.519531 -0.972656 1.851562 -0.925781 2.21875 -1 C 2.507812 -1.0625 2.734375 -1.179688 2.890625 -1.359375 C 3.054688 -1.546875 3.160156 -1.757812 3.203125 -2 L 3.921875 -2.15625 C 3.890625 -1.75 3.734375 -1.382812 3.453125 -1.0625 C 3.179688 -0.75 2.8125 -0.539062 2.34375 -0.4375 C 1.945312 -0.351562 1.582031 -0.363281 1.25 -0.46875 C 0.914062 -0.582031 0.628906 -0.773438 0.390625 -1.046875 C 0.148438 -1.328125 -0.015625 -1.675781 -0.109375 -2.09375 C -0.203125 -2.507812 -0.195312 -2.894531 -0.09375 -3.25 C 0 -3.601562 0.175781 -3.898438 0.4375 -4.140625 C 0.695312 -4.378906 1.03125 -4.539062 1.4375 -4.625 C 1.820312 -4.707031 2.175781 -4.695312 2.5 -4.59375 C 2.832031 -4.5 3.109375 -4.316406 3.328125 -4.046875 C 3.554688 -3.785156 3.710938 -3.472656 3.796875 -3.109375 Z M 3.078125 -3.109375 C 3.023438 -3.359375 2.921875 -3.5625 2.765625 -3.71875 C 2.609375 -3.875 2.421875 -3.976562 2.203125 -4.03125 C 1.984375 -4.09375 1.757812 -4.097656 1.53125 -4.046875 C 1.1875 -3.972656 0.914062 -3.800781 0.71875 -3.53125 C 0.53125 -3.269531 0.460938 -2.941406 0.515625 -2.546875 Z M 3.078125 -3.109375 "/></g></g></g><g fill="#4b5ae4" fill-opacity="1"><g transform="translate(90.376419, 110.105412)"><g><path d="M -0.140625 -3.6875 C -0.117188 -3.957031 -0.03125 -4.195312 0.125 -4.40625 C 0.28125 -4.613281 0.503906 -4.773438 0.796875 -4.890625 L 1.0625 -4.234375 L 0.890625 -4.171875 C 0.179688 -3.878906 -0.0078125 -3.34375 0.3125 -2.5625 L 1.171875 -0.484375 L 0.53125 -0.21875 L -1.046875 -4.046875 L -0.40625 -4.3125 Z M -0.140625 -3.6875 "/></g></g></g><g fill="#4b5ae4" fill-opacity="1"><g transform="translate(93.331779, 108.861004)"><g><path d="M -0.546875 -3.8125 L 0.671875 -1.6875 C 0.773438 -1.507812 0.882812 -1.40625 1 -1.375 C 1.113281 -1.34375 1.265625 -1.382812 1.453125 -1.5 L 1.890625 -1.75 L 2.171875 -1.25 L 1.640625 -0.9375 C 1.304688 -0.75 1.007812 -0.679688 0.75 -0.734375 C 0.5 -0.785156 0.273438 -0.988281 0.078125 -1.34375 L -1.140625 -3.46875 L -1.609375 -3.203125 L -1.890625 -3.6875 L -1.421875 -3.953125 L -1.9375 -4.859375 L -1.34375 -5.203125 L -0.828125 -4.296875 L 0.109375 -4.84375 L 0.390625 -4.359375 Z M -0.546875 -3.8125 "/></g></g></g><g fill="#4b5ae4" fill-opacity="1"><g transform="translate(95.971362, 107.291084)"><g><path d="M 0.671875 -0.4375 C 0.578125 -0.363281 0.460938 -0.332031 0.328125 -0.34375 C 0.191406 -0.363281 0.0859375 -0.425781 0.015625 -0.53125 C -0.0546875 -0.632812 -0.078125 -0.75 -0.046875 -0.875 C -0.0234375 -1.007812 0.03125 -1.113281 0.125 -1.1875 C 0.226562 -1.257812 0.34375 -1.285156 0.46875 -1.265625 C 0.59375 -1.242188 0.691406 -1.179688 0.765625 -1.078125 C 0.835938 -0.972656 0.863281 -0.859375 0.84375 -0.734375 C 0.832031 -0.609375 0.773438 -0.507812 0.671875 -0.4375 Z M 0.671875 -0.4375 "/></g></g></g></svg>