<svg xmlns="http://www.w3.org/2000/svg" xmlns:xlink="http://www.w3.org/1999/xlink" width="400" zoomAndPan="magnify" viewBox="0 0 300 225" height="300" preserveAspectRatio="xMidYMid meet" version="1.0"><defs><clipPath id="446a7c60af"><path d="M 35.132812 5 L 264 5 L 264 220 L 35.132812 220 Z M 35.132812 5 " clip-rule="nonzero"/></clipPath></defs><path fill="#a6a6a6" d="M 249.230469 151.34375 C 249.230469 151.34375 248.898438 149.3125 248.707031 149.332031 L 211.84375 152.890625 C 208.910156 153.171875 206.632812 155.511719 206.425781 158.449219 L 205.414062 172.964844 L 176.894531 175 L 174.953125 161.84375 C 174.523438 158.917969 171.96875 156.714844 169.007812 156.714844 L 130.101562 156.714844 C 127.144531 156.714844 124.589844 158.917969 124.160156 161.84375 L 122.21875 175 L 93.699219 172.964844 L 92.6875 158.449219 C 92.480469 155.511719 90.203125 153.171875 87.269531 152.886719 L 50.386719 149.332031 C 50.199219 149.3125 50.058594 151.347656 49.867188 151.347656 L 49.816406 159.324219 L 81.054688 164.363281 L 82.074219 179.007812 C 82.28125 181.972656 84.675781 184.367188 87.640625 184.582031 L 126.917969 187.382812 C 127.066406 187.394531 127.214844 187.398438 127.359375 187.398438 C 130.3125 187.398438 132.863281 185.191406 133.292969 182.265625 L 135.289062 168.730469 L 163.824219 168.730469 L 165.820312 182.265625 C 166.25 185.191406 168.804688 187.398438 171.757812 187.398438 C 171.902344 187.398438 172.046875 187.394531 172.191406 187.382812 L 211.472656 184.582031 C 214.4375 184.367188 216.832031 181.972656 217.039062 179.007812 L 218.058594 164.363281 L 249.28125 159.300781 Z M 249.230469 151.34375 " fill-opacity="1" fill-rule="nonzero"/><g clip-path="url(#446a7c60af)"><path fill="#ffffff" d="M 126.457031 5.402344 C 116.082031 7.710938 105.816406 10.921875 96.195312 15.761719 C 96.414062 24.261719 96.964844 32.402344 98.078125 40.671875 C 94.339844 43.066406 90.414062 45.121094 86.921875 47.921875 C 83.375 50.652344 79.753906 53.261719 76.542969 56.453125 C 70.125 52.210938 63.335938 48.222656 56.34375 44.703125 C 48.800781 52.816406 41.75 61.574219 35.992188 71.375 C 40.324219 78.386719 44.847656 84.957031 49.734375 91.191406 L 49.871094 91.191406 L 49.871094 151.34375 C 49.980469 151.34375 50.089844 151.347656 50.199219 151.359375 L 87.078125 154.914062 C 89.007812 155.101562 90.523438 156.65625 90.65625 158.589844 L 91.792969 174.871094 L 123.960938 177.167969 L 126.175781 162.140625 C 126.464844 160.195312 128.136719 158.75 130.105469 158.75 L 169.011719 158.75 C 170.980469 158.75 172.652344 160.195312 172.941406 162.140625 L 175.15625 177.167969 L 207.324219 174.871094 L 208.460938 158.589844 C 208.597656 156.65625 210.109375 155.101562 212.039062 154.914062 L 248.902344 151.359375 C 249.011719 151.347656 249.121094 151.34375 249.230469 151.34375 L 249.230469 146.542969 L 249.246094 146.539062 L 249.246094 91.191406 L 249.382812 91.191406 C 254.269531 84.957031 258.789062 78.386719 263.125 71.375 C 257.367188 61.574219 250.3125 52.816406 242.773438 44.703125 C 235.78125 48.222656 228.988281 52.210938 222.570312 56.453125 C 219.359375 53.261719 215.746094 50.652344 212.195312 47.921875 C 208.703125 45.121094 204.769531 43.066406 201.042969 40.671875 C 202.152344 32.402344 202.703125 24.261719 202.921875 15.761719 C 193.300781 10.917969 183.035156 7.707031 172.65625 5.402344 C 168.511719 12.367188 164.71875 19.910156 161.417969 27.285156 C 157.503906 26.632812 153.574219 26.386719 149.636719 26.339844 L 149.636719 26.335938 C 149.609375 26.335938 149.582031 26.339844 149.558594 26.339844 C 149.535156 26.339844 149.507812 26.335938 149.484375 26.335938 L 149.484375 26.339844 C 145.539062 26.386719 141.609375 26.632812 137.695312 27.285156 C 134.394531 19.910156 130.609375 12.367188 126.457031 5.402344 Z M 49.804688 159.300781 C 49.820312 162.863281 49.867188 166.765625 49.867188 167.542969 C 49.867188 202.566406 94.292969 219.398438 149.488281 219.59375 L 149.625 219.59375 C 204.820312 219.398438 249.230469 202.566406 249.230469 167.542969 C 249.230469 166.753906 249.277344 162.863281 249.296875 159.300781 L 216.148438 162.496094 L 215.007812 178.863281 C 214.867188 180.835938 213.300781 182.40625 211.328125 182.546875 L 172.046875 185.347656 C 171.949219 185.355469 171.855469 185.359375 171.757812 185.359375 C 169.808594 185.359375 168.125 183.925781 167.835938 181.964844 L 165.582031 166.691406 L 133.53125 166.691406 L 131.28125 181.964844 C 130.976562 184.023438 129.140625 185.5 127.070312 185.347656 L 87.789062 182.546875 C 85.816406 182.40625 84.246094 180.835938 84.109375 178.863281 L 82.96875 162.496094 L 49.808594 159.300781 Z M 49.804688 159.300781 " fill-opacity="1" fill-rule="nonzero"/></g><path fill="#a6a6a6" d="M 97.28125 93.398438 C 85.011719 93.398438 75.0625 103.339844 75.0625 115.609375 C 75.0625 127.886719 85.011719 137.835938 97.28125 137.835938 C 109.554688 137.835938 119.503906 127.886719 119.503906 115.609375 C 119.503906 103.339844 109.554688 93.398438 97.28125 93.398438 Z M 201.832031 93.398438 C 189.558594 93.398438 179.609375 103.339844 179.609375 115.609375 C 179.609375 127.886719 189.558594 137.835938 201.832031 137.835938 C 214.101562 137.835938 224.050781 127.886719 224.050781 115.609375 C 224.050781 103.339844 214.101562 93.398438 201.832031 93.398438 Z M 149.550781 106.394531 C 145.601562 106.394531 142.398438 109.308594 142.398438 112.894531 L 142.398438 133.355469 C 142.398438 136.945312 145.601562 139.855469 149.550781 139.855469 C 153.503906 139.855469 156.714844 136.945312 156.714844 133.355469 L 156.714844 112.894531 C 156.714844 109.308594 153.503906 106.394531 149.550781 106.394531 Z M 149.550781 106.394531 " fill-opacity="1" fill-rule="nonzero"/><path fill="#545454" d="M 99.40625 102.179688 C 91.261719 102.179688 84.65625 108.785156 84.65625 116.929688 C 84.65625 125.074219 91.261719 131.675781 99.40625 131.675781 C 107.558594 131.675781 114.160156 125.074219 114.160156 116.929688 C 114.160156 108.785156 107.558594 102.179688 99.40625 102.179688 Z M 199.703125 102.179688 C 191.558594 102.179688 184.960938 108.785156 184.960938 116.929688 C 184.960938 125.074219 191.558594 131.675781 199.703125 131.675781 C 207.855469 131.675781 214.453125 125.074219 214.453125 116.929688 C 214.453125 108.785156 207.855469 102.179688 199.703125 102.179688 Z M 199.703125 102.179688 " fill-opacity="1" fill-rule="nonzero"/></svg>