<svg xmlns="http://www.w3.org/2000/svg" xmlns:xlink="http://www.w3.org/1999/xlink" width="192" zoomAndPan="magnify" viewBox="0 0 144 143.999998" height="192" preserveAspectRatio="xMidYMid meet" version="1.0"><defs><g/><clipPath id="fcd890fb30"><path d="M 7.804688 37.796875 L 48.695312 37.796875 L 48.695312 78.6875 L 7.804688 78.6875 Z M 7.804688 37.796875 " clip-rule="nonzero"/></clipPath><clipPath id="1b2719c6ef"><path d="M 51.566406 37.796875 L 92.457031 37.796875 L 92.457031 78.6875 L 51.566406 78.6875 Z M 51.566406 37.796875 " clip-rule="nonzero"/></clipPath><clipPath id="43cc3dfd20"><path d="M 95.304688 37.796875 L 136.195312 37.796875 L 136.195312 78.6875 L 95.304688 78.6875 Z M 95.304688 37.796875 " clip-rule="nonzero"/></clipPath><clipPath id="fb98956014"><path d="M 7.804688 81.503906 L 136.195312 81.503906 L 136.195312 85.972656 L 7.804688 85.972656 Z M 7.804688 81.503906 " clip-rule="nonzero"/></clipPath></defs><g clip-path="url(#fcd890fb30)"><path fill="#282973" d="M 7.804688 37.796875 L 48.695312 37.796875 L 48.695312 78.6875 L 7.804688 78.6875 Z M 7.804688 37.796875 " fill-opacity="1" fill-rule="nonzero"/></g><g clip-path="url(#1b2719c6ef)"><path fill="#545454" d="M 51.566406 37.796875 L 92.457031 37.796875 L 92.457031 78.6875 L 51.566406 78.6875 Z M 51.566406 37.796875 " fill-opacity="1" fill-rule="nonzero"/></g><g clip-path="url(#43cc3dfd20)"><path fill="#282973" d="M 95.304688 37.796875 L 136.195312 37.796875 L 136.195312 78.6875 L 95.304688 78.6875 Z M 95.304688 37.796875 " fill-opacity="1" fill-rule="nonzero"/></g><g clip-path="url(#fb98956014)"><path fill="#545454" d="M 7.804688 81.503906 L 136.195312 81.503906 L 136.195312 85.972656 L 7.804688 85.972656 Z M 7.804688 81.503906 " fill-opacity="1" fill-rule="nonzero"/></g><g fill="#ffffff" fill-opacity="1"><g transform="translate(12.871056, 72.146718)"><g><path d="M 19.34375 -0.359375 C 19.976562 -0.359375 20.460938 -0.519531 20.796875 -0.84375 C 21.359375 -1.40625 21.65625 -2 21.6875 -2.625 L 21.6875 -11.953125 L 9.828125 -11.953125 L 9.828125 -2.671875 C 9.828125 -2.035156 10.054688 -1.488281 10.515625 -1.03125 C 10.984375 -0.582031 11.535156 -0.359375 12.171875 -0.359375 L 12.609375 -0.359375 L 12.65625 0 L 1.53125 0 L 1.53125 -0.359375 L 2.015625 -0.359375 C 2.648438 -0.359375 3.191406 -0.582031 3.640625 -1.03125 C 4.085938 -1.488281 4.320312 -2.035156 4.34375 -2.671875 L 4.34375 -22.921875 C 4.320312 -23.554688 4.085938 -24.097656 3.640625 -24.546875 C 3.191406 -25.003906 2.648438 -25.234375 2.015625 -25.234375 L 1.53125 -25.234375 L 1.53125 -25.59375 L 12.65625 -25.59375 L 12.609375 -25.234375 L 12.171875 -25.234375 C 11.535156 -25.234375 10.984375 -25.003906 10.515625 -24.546875 C 10.054688 -24.097656 9.828125 -23.554688 9.828125 -22.921875 L 9.828125 -13.53125 L 21.6875 -13.53125 L 21.6875 -22.921875 C 21.65625 -23.554688 21.414062 -24.097656 20.96875 -24.546875 C 20.519531 -25.003906 19.976562 -25.234375 19.34375 -25.234375 L 18.859375 -25.234375 L 18.859375 -25.59375 L 29.984375 -25.59375 L 29.984375 -25.234375 L 29.5 -25.234375 C 28.875 -25.234375 28.328125 -25.003906 27.859375 -24.546875 C 27.398438 -24.097656 27.171875 -23.554688 27.171875 -22.921875 L 27.171875 -2.671875 C 27.171875 -2.035156 27.398438 -1.488281 27.859375 -1.03125 C 28.328125 -0.582031 28.875 -0.359375 29.5 -0.359375 L 29.984375 -0.359375 L 29.984375 0 L 18.859375 0 L 18.859375 -0.359375 Z M 19.34375 -0.359375 "/></g></g></g><g fill="#ffffff" fill-opacity="1"><g transform="translate(102.093649, 72.146718)"><g><path d="M 11.625 -23.984375 L 10.046875 -23.984375 C 10.003906 -23.984375 9.96875 -23.984375 9.9375 -23.984375 L 9.9375 -2.671875 C 9.96875 -2.035156 10.207031 -1.488281 10.65625 -1.03125 C 11.101562 -0.582031 11.644531 -0.359375 12.28125 -0.359375 L 12.765625 -0.359375 L 12.765625 0 L 1.640625 0 L 1.640625 -0.359375 L 2.125 -0.359375 C 3 -0.359375 3.664062 -0.738281 4.125 -1.5 C 4.320312 -1.84375 4.429688 -2.21875 4.453125 -2.625 L 4.453125 -22.921875 C 4.429688 -23.554688 4.195312 -24.097656 3.75 -24.546875 C 3.300781 -25.003906 2.757812 -25.234375 2.125 -25.234375 L 1.640625 -25.234375 L 1.640625 -25.59375 L 14.1875 -25.59375 C 16.550781 -25.59375 18.550781 -25.082031 20.1875 -24.0625 C 21.007812 -23.550781 21.664062 -22.835938 22.15625 -21.921875 C 22.644531 -21.003906 22.890625 -19.804688 22.890625 -18.328125 C 22.890625 -16.859375 22.375 -15.441406 21.34375 -14.078125 C 20.320312 -12.710938 18.835938 -11.929688 16.890625 -11.734375 C 18.304688 -11.273438 19.550781 -10.203125 20.625 -8.515625 C 23.25 -4.296875 25.195312 -1.785156 26.46875 -0.984375 C 27.101562 -0.597656 27.894531 -0.390625 28.84375 -0.359375 L 28.84375 0 L 25.265625 0 C 23.140625 0 21.375 -0.28125 19.96875 -0.84375 C 18.570312 -1.40625 17.472656 -2.390625 16.671875 -3.796875 C 16.210938 -4.609375 15.203125 -6.691406 13.640625 -10.046875 C 12.953125 -11.535156 12.125 -12.351562 11.15625 -12.5 L 11.15625 -12.875 L 12.28125 -12.875 C 13.382812 -12.875 14.351562 -13.203125 15.1875 -13.859375 C 16.03125 -14.515625 16.597656 -15.585938 16.890625 -17.078125 C 16.984375 -17.585938 17.03125 -17.988281 17.03125 -18.28125 C 17.03125 -20.28125 16.628906 -21.722656 15.828125 -22.609375 C 15.023438 -23.503906 13.988281 -23.960938 12.71875 -23.984375 C 12.476562 -23.984375 12.113281 -23.984375 11.625 -23.984375 Z M 11.625 -23.984375 "/></g></g></g><g fill="#ffffff" fill-opacity="1"><g transform="translate(57.33043, 72.627964)"><g><path d="M 31 0 C 28.195312 0.21875 26.382812 0.265625 25.5625 0.140625 C 23.601562 -0.191406 22.050781 -0.691406 20.90625 -1.359375 C 19.007812 -0.210938 16.625 0.359375 13.75 0.359375 C 9.582031 0.359375 6.28125 -0.503906 3.84375 -2.234375 C 3.007812 -2.835938 2.320312 -3.625 1.78125 -4.59375 C 1.25 -5.570312 0.984375 -6.597656 0.984375 -7.671875 C 0.984375 -8.742188 1.140625 -9.664062 1.453125 -10.4375 C 1.773438 -11.207031 2.21875 -11.847656 2.78125 -12.359375 C 3.800781 -13.335938 4.992188 -14.054688 6.359375 -14.515625 C 5.285156 -16.191406 4.75 -17.8125 4.75 -19.375 C 4.75 -20.9375 5.175781 -22.226562 6.03125 -23.25 C 7.664062 -25.15625 10.1875 -26.109375 13.59375 -26.109375 C 15.132812 -26.109375 16.570312 -25.878906 17.90625 -25.421875 C 19.25 -24.972656 20.226562 -24.335938 20.84375 -23.515625 L 19.53125 -18.28125 L 19.1875 -18.28125 C 19.164062 -20.082031 18.773438 -21.578125 18.015625 -22.765625 C 17.265625 -23.960938 16.191406 -24.5625 14.796875 -24.5625 C 13.410156 -24.5625 12.332031 -24.160156 11.5625 -23.359375 C 10.800781 -22.554688 10.421875 -21.507812 10.421875 -20.21875 C 10.421875 -18.925781 10.890625 -17.671875 11.828125 -16.453125 C 12.765625 -15.234375 14.578125 -13.445312 17.265625 -11.09375 C 19.960938 -8.738281 21.601562 -7.320312 22.1875 -6.84375 C 22.507812 -7.863281 22.671875 -8.882812 22.671875 -9.90625 C 22.671875 -10.925781 22.421875 -11.960938 21.921875 -13.015625 C 21.421875 -14.066406 20.695312 -14.59375 19.75 -14.59375 C 19.75 -14.59375 19.734375 -14.59375 19.703125 -14.59375 L 19.15625 -14.59375 L 19.15625 -14.953125 L 27.71875 -14.953125 L 27.71875 -14.59375 L 27.203125 -14.59375 C 27.203125 -14.59375 27.191406 -14.59375 27.171875 -14.59375 C 26.679688 -14.59375 26.347656 -14.429688 26.171875 -14.109375 C 26.003906 -13.796875 25.921875 -13.320312 25.921875 -12.6875 L 25.921875 -12.0625 C 25.921875 -9.28125 25.394531 -6.914062 24.34375 -4.96875 C 25.90625 -3.632812 27.1875 -2.597656 28.1875 -1.859375 C 29.1875 -1.128906 30.125 -0.644531 31 -0.40625 Z M 15.09375 -1.171875 C 16.6875 -1.171875 18.078125 -1.609375 19.265625 -2.484375 C 17.265625 -4.046875 15.097656 -5.832031 12.765625 -7.84375 C 10.441406 -9.851562 8.769531 -11.46875 7.75 -12.6875 C 7.09375 -11.664062 6.765625 -10.472656 6.765625 -9.109375 C 6.765625 -6.546875 7.597656 -4.582031 9.265625 -3.21875 C 10.929688 -1.851562 12.875 -1.171875 15.09375 -1.171875 Z M 15.09375 -1.171875 "/></g></g></g><g fill="#282973" fill-opacity="1"><g transform="translate(10.483148, 101.807185)"><g><path d="M 0.765625 -0.140625 C 1.015625 -0.140625 1.222656 -0.222656 1.390625 -0.390625 C 1.566406 -0.566406 1.660156 -0.78125 1.671875 -1.03125 L 1.671875 -8.828125 C 1.660156 -9.078125 1.566406 -9.285156 1.390625 -9.453125 C 1.222656 -9.617188 1.015625 -9.703125 0.765625 -9.703125 L 0.59375 -9.703125 L 0.59375 -9.84375 L 4.859375 -9.84375 L 4.84375 -9.703125 L 4.6875 -9.703125 C 4.4375 -9.703125 4.222656 -9.617188 4.046875 -9.453125 C 3.867188 -9.285156 3.78125 -9.078125 3.78125 -8.828125 L 3.78125 -1.03125 C 3.78125 -0.78125 3.867188 -0.566406 4.046875 -0.390625 C 4.222656 -0.222656 4.4375 -0.140625 4.6875 -0.140625 L 4.84375 -0.140625 L 4.859375 0 L 0.59375 0 L 0.59375 -0.140625 Z M 0.765625 -0.140625 "/></g></g></g><g fill="#282973" fill-opacity="1"><g transform="translate(18.215252, 101.807185)"><g><path d="M 0.625 -8.078125 C 1.070312 -8.253906 1.296875 -8.550781 1.296875 -8.96875 C 1.296875 -9.21875 1.1875 -9.46875 0.96875 -9.71875 C 0.75 -9.96875 0.640625 -10.242188 0.640625 -10.546875 C 0.640625 -10.847656 0.726562 -11.085938 0.90625 -11.265625 C 1.09375 -11.453125 1.3125 -11.546875 1.5625 -11.546875 C 2.070312 -11.546875 2.425781 -11.320312 2.625 -10.875 C 2.757812 -10.59375 2.828125 -10.359375 2.828125 -10.171875 C 2.828125 -9.628906 2.710938 -9.1875 2.484375 -8.84375 C 2.085938 -8.21875 1.5625 -7.90625 0.90625 -7.90625 C 0.820312 -7.90625 0.742188 -7.914062 0.671875 -7.9375 Z M 0.625 -8.078125 "/></g></g></g><g fill="#282973" fill-opacity="1"><g transform="translate(23.909133, 101.807185)"><g><path d="M 8.140625 -6.4375 L 8.140625 -6.5625 C 8.140625 -6.96875 8.023438 -7.285156 7.796875 -7.515625 C 7.578125 -7.753906 7.265625 -7.878906 6.859375 -7.890625 L 5.234375 -7.890625 L 5.234375 -0.875 C 5.242188 -0.664062 5.320312 -0.488281 5.46875 -0.34375 C 5.613281 -0.207031 5.789062 -0.140625 6 -0.140625 L 6.15625 -0.140625 L 6.15625 0 L 2.28125 0 L 2.28125 -0.140625 L 2.421875 -0.140625 C 2.628906 -0.140625 2.804688 -0.207031 2.953125 -0.34375 C 3.109375 -0.488281 3.1875 -0.671875 3.1875 -0.890625 L 3.1875 -7.890625 L 1.578125 -7.890625 C 1.160156 -7.878906 0.835938 -7.753906 0.609375 -7.515625 C 0.390625 -7.285156 0.28125 -6.96875 0.28125 -6.5625 L 0.28125 -6.4375 L 0.140625 -6.4375 L 0.140625 -8.65625 C 0.273438 -8.613281 0.492188 -8.566406 0.796875 -8.515625 C 1.097656 -8.472656 1.367188 -8.453125 1.609375 -8.453125 L 6.8125 -8.453125 C 7.21875 -8.453125 7.550781 -8.484375 7.8125 -8.546875 C 8.082031 -8.609375 8.238281 -8.644531 8.28125 -8.65625 L 8.28125 -6.4375 Z M 8.140625 -6.4375 "/></g></g></g><g fill="#282973" fill-opacity="1"><g transform="translate(34.635321, 101.807185)"><g><path d="M 0.640625 -1.15625 C 0.640625 -1.757812 0.773438 -2.28125 1.046875 -2.71875 L 1.171875 -2.71875 C 1.160156 -2.644531 1.15625 -2.582031 1.15625 -2.53125 C 1.15625 -1.957031 1.359375 -1.453125 1.765625 -1.015625 C 2.171875 -0.585938 2.738281 -0.375 3.46875 -0.375 C 4 -0.375 4.40625 -0.492188 4.6875 -0.734375 C 4.976562 -0.984375 5.125 -1.257812 5.125 -1.5625 C 5.125 -1.863281 5.039062 -2.101562 4.875 -2.28125 C 4.707031 -2.46875 4.4375 -2.679688 4.0625 -2.921875 L 2.0625 -4.1875 C 1.21875 -4.71875 0.796875 -5.394531 0.796875 -6.21875 C 0.796875 -6.300781 0.800781 -6.390625 0.8125 -6.484375 C 0.875 -7.148438 1.132812 -7.671875 1.59375 -8.046875 C 2.050781 -8.429688 2.585938 -8.625 3.203125 -8.625 C 3.828125 -8.625 4.488281 -8.582031 5.1875 -8.5 L 5.953125 -8.5 L 5.75 -6.640625 L 5.625 -6.640625 C 5.625 -7.078125 5.46875 -7.421875 5.15625 -7.671875 C 4.851562 -7.929688 4.453125 -8.0625 3.953125 -8.0625 C 3.453125 -8.0625 3.054688 -7.953125 2.765625 -7.734375 C 2.472656 -7.523438 2.328125 -7.25 2.328125 -6.90625 C 2.328125 -6.625 2.46875 -6.378906 2.75 -6.171875 C 2.863281 -6.085938 3.03125 -5.976562 3.25 -5.84375 L 5.484375 -4.46875 C 6.253906 -4 6.640625 -3.351562 6.640625 -2.53125 C 6.640625 -1.65625 6.332031 -0.984375 5.71875 -0.515625 C 5.101562 -0.046875 4.304688 0.1875 3.328125 0.1875 C 2.734375 0.1875 2.203125 0.117188 1.734375 -0.015625 C 1.273438 -0.160156 0.941406 -0.34375 0.734375 -0.5625 C 0.671875 -0.726562 0.640625 -0.925781 0.640625 -1.15625 Z M 0.640625 -1.15625 "/></g></g></g><g fill="#282973" fill-opacity="1"><g transform="translate(44.166683, 101.807185)"><g><path d="M 2.28125 -0.15625 C 2.082031 0.0390625 1.84375 0.140625 1.5625 0.140625 C 1.28125 0.140625 1.039062 0.0390625 0.84375 -0.15625 C 0.644531 -0.351562 0.546875 -0.59375 0.546875 -0.875 C 0.546875 -1.15625 0.644531 -1.394531 0.84375 -1.59375 C 1.039062 -1.789062 1.28125 -1.890625 1.5625 -1.890625 C 1.84375 -1.890625 2.082031 -1.789062 2.28125 -1.59375 C 2.488281 -1.394531 2.59375 -1.15625 2.59375 -0.875 C 2.59375 -0.59375 2.488281 -0.351562 2.28125 -0.15625 Z M 2.28125 -0.15625 "/></g></g></g><g fill="#282973" fill-opacity="1"><g transform="translate(49.593484, 101.807185)"><g><path d="M 9.921875 -0.140625 L 10.078125 -0.140625 L 10.078125 0 L 6.21875 0 L 6.21875 -0.140625 L 6.359375 -0.140625 C 6.566406 -0.140625 6.742188 -0.207031 6.890625 -0.34375 C 7.046875 -0.488281 7.125 -0.671875 7.125 -0.890625 L 7.125 -3.921875 L 3.4375 -3.921875 L 3.4375 -0.890625 C 3.4375 -0.671875 3.507812 -0.488281 3.65625 -0.34375 C 3.8125 -0.207031 3.992188 -0.140625 4.203125 -0.140625 L 4.359375 -0.140625 L 4.359375 0 L 0.484375 0 L 0.484375 -0.140625 L 0.625 -0.140625 C 0.84375 -0.140625 1.023438 -0.210938 1.171875 -0.359375 C 1.328125 -0.503906 1.40625 -0.679688 1.40625 -0.890625 L 1.40625 -7.546875 C 1.40625 -7.753906 1.328125 -7.929688 1.171875 -8.078125 C 1.023438 -8.222656 0.84375 -8.296875 0.625 -8.296875 L 0.484375 -8.296875 L 0.484375 -8.4375 L 4.359375 -8.4375 L 4.359375 -8.296875 L 4.203125 -8.296875 C 3.992188 -8.296875 3.8125 -8.222656 3.65625 -8.078125 C 3.507812 -7.941406 3.4375 -7.769531 3.4375 -7.5625 L 3.4375 -4.484375 L 7.125 -4.484375 L 7.125 -7.546875 C 7.125 -7.835938 7 -8.054688 6.75 -8.203125 C 6.625 -8.265625 6.492188 -8.296875 6.359375 -8.296875 L 6.21875 -8.296875 L 6.21875 -8.4375 L 10.078125 -8.4375 L 10.078125 -8.296875 L 9.921875 -8.296875 C 9.722656 -8.296875 9.546875 -8.222656 9.390625 -8.078125 C 9.242188 -7.941406 9.164062 -7.765625 9.15625 -7.546875 L 9.15625 -0.875 C 9.164062 -0.582031 9.289062 -0.367188 9.53125 -0.234375 C 9.65625 -0.171875 9.785156 -0.140625 9.921875 -0.140625 Z M 9.921875 -0.140625 "/></g></g></g><g fill="#282973" fill-opacity="1"><g transform="translate(62.442228, 101.807185)"><g><path d="M 9.359375 -0.140625 L 9.484375 -0.140625 L 9.484375 0 L 5.34375 0 L 5.34375 -0.140625 L 5.453125 -0.140625 C 5.640625 -0.140625 5.773438 -0.195312 5.859375 -0.3125 C 5.941406 -0.425781 5.984375 -0.53125 5.984375 -0.625 C 5.984375 -0.71875 5.96875 -0.8125 5.9375 -0.90625 L 5.390625 -2.203125 L 2.40625 -2.203125 L 1.84375 -0.90625 C 1.800781 -0.8125 1.78125 -0.710938 1.78125 -0.609375 C 1.78125 -0.515625 1.820312 -0.410156 1.90625 -0.296875 C 2 -0.191406 2.140625 -0.140625 2.328125 -0.140625 L 2.453125 -0.140625 L 2.453125 0 L -0.359375 0 L -0.359375 -0.140625 L -0.25 -0.140625 C -0.0507812 -0.140625 0.144531 -0.195312 0.34375 -0.3125 C 0.539062 -0.4375 0.695312 -0.625 0.8125 -0.875 L 3.734375 -7.109375 C 4.140625 -8.035156 4.351562 -8.609375 4.375 -8.828125 L 4.5 -8.828125 L 8.265625 -0.921875 C 8.390625 -0.648438 8.550781 -0.453125 8.75 -0.328125 C 8.957031 -0.203125 9.160156 -0.140625 9.359375 -0.140625 Z M 2.640625 -2.75 L 5.140625 -2.75 L 3.90625 -5.6875 Z M 2.640625 -2.75 "/></g></g></g><g fill="#282973" fill-opacity="1"><g transform="translate(73.800964, 101.807185)"><g><path d="M 7.09375 0 L 0.484375 0 L 0.484375 -0.140625 L 0.640625 -0.140625 C 0.859375 -0.140625 1.039062 -0.207031 1.1875 -0.34375 C 1.332031 -0.488281 1.410156 -0.664062 1.421875 -0.875 L 1.421875 -7.5625 C 1.410156 -7.769531 1.332031 -7.941406 1.1875 -8.078125 C 1.039062 -8.222656 0.859375 -8.296875 0.640625 -8.296875 L 0.484375 -8.296875 L 0.484375 -8.4375 L 5.421875 -8.4375 C 5.679688 -8.4375 5.957031 -8.457031 6.25 -8.5 C 6.550781 -8.550781 6.765625 -8.597656 6.890625 -8.640625 L 6.890625 -6.40625 L 6.75 -6.40625 L 6.75 -6.53125 C 6.75 -6.945312 6.632812 -7.269531 6.40625 -7.5 C 6.1875 -7.738281 5.875 -7.863281 5.46875 -7.875 L 3.4375 -7.875 L 3.4375 -4.453125 L 5.046875 -4.453125 C 5.367188 -4.460938 5.625 -4.570312 5.8125 -4.78125 C 6.007812 -4.988281 6.109375 -5.25 6.109375 -5.5625 L 6.109375 -5.671875 L 6.25 -5.671875 L 6.25 -2.6875 L 6.109375 -2.6875 L 6.109375 -2.78125 C 6.109375 -3.21875 5.945312 -3.535156 5.625 -3.734375 C 5.457031 -3.835938 5.269531 -3.890625 5.0625 -3.890625 L 3.4375 -3.890625 L 3.4375 -0.5625 L 5.125 -0.5625 C 5.707031 -0.570312 6.203125 -0.75 6.609375 -1.09375 C 7.023438 -1.445312 7.328125 -1.945312 7.515625 -2.59375 L 7.640625 -2.59375 Z M 7.09375 0 "/></g></g></g><g fill="#282973" fill-opacity="1"><g transform="translate(84.021109, 101.807185)"><g/></g></g><g fill="#282973" fill-opacity="1"><g transform="translate(89.841496, 101.807185)"><g><path d="M 11.921875 0 C 10.847656 0.0820312 10.148438 0.101562 9.828125 0.0625 C 9.078125 -0.0703125 8.484375 -0.265625 8.046875 -0.515625 C 7.316406 -0.078125 6.394531 0.140625 5.28125 0.140625 C 3.675781 0.140625 2.40625 -0.191406 1.46875 -0.859375 C 1.15625 -1.085938 0.894531 -1.390625 0.6875 -1.765625 C 0.476562 -2.140625 0.375 -2.535156 0.375 -2.953125 C 0.375 -3.367188 0.4375 -3.722656 0.5625 -4.015625 C 0.6875 -4.304688 0.851562 -4.550781 1.0625 -4.75 C 1.457031 -5.125 1.921875 -5.398438 2.453125 -5.578125 C 2.035156 -6.222656 1.828125 -6.847656 1.828125 -7.453125 C 1.828125 -8.054688 1.988281 -8.550781 2.3125 -8.9375 C 2.945312 -9.675781 3.921875 -10.046875 5.234375 -10.046875 C 5.816406 -10.046875 6.363281 -9.957031 6.875 -9.78125 C 7.394531 -9.601562 7.773438 -9.359375 8.015625 -9.046875 L 7.515625 -7.03125 L 7.375 -7.03125 C 7.375 -7.726562 7.226562 -8.304688 6.9375 -8.765625 C 6.644531 -9.222656 6.226562 -9.453125 5.6875 -9.453125 C 5.15625 -9.453125 4.738281 -9.296875 4.4375 -8.984375 C 4.144531 -8.671875 4 -8.265625 4 -7.765625 C 4 -7.273438 4.179688 -6.796875 4.546875 -6.328125 C 4.910156 -5.859375 5.609375 -5.171875 6.640625 -4.265625 C 7.679688 -3.359375 8.3125 -2.8125 8.53125 -2.625 C 8.65625 -3.019531 8.71875 -3.414062 8.71875 -3.8125 C 8.71875 -4.207031 8.617188 -4.601562 8.421875 -5 C 8.234375 -5.40625 7.957031 -5.609375 7.59375 -5.609375 C 7.59375 -5.609375 7.585938 -5.609375 7.578125 -5.609375 L 7.375 -5.609375 L 7.375 -5.75 L 10.65625 -5.75 L 10.65625 -5.609375 L 10.46875 -5.609375 C 10.46875 -5.609375 10.460938 -5.609375 10.453125 -5.609375 C 10.265625 -5.609375 10.132812 -5.546875 10.0625 -5.421875 C 10 -5.304688 9.96875 -5.125 9.96875 -4.875 L 9.96875 -4.640625 C 9.96875 -3.566406 9.765625 -2.65625 9.359375 -1.90625 C 9.960938 -1.394531 10.457031 -1 10.84375 -0.71875 C 11.226562 -0.4375 11.585938 -0.25 11.921875 -0.15625 Z M 5.8125 -0.453125 C 6.414062 -0.453125 6.945312 -0.617188 7.40625 -0.953125 C 6.632812 -1.554688 5.800781 -2.242188 4.90625 -3.015625 C 4.019531 -3.785156 3.378906 -4.40625 2.984375 -4.875 C 2.722656 -4.476562 2.59375 -4.019531 2.59375 -3.5 C 2.59375 -2.519531 2.914062 -1.765625 3.5625 -1.234375 C 4.207031 -0.710938 4.957031 -0.453125 5.8125 -0.453125 Z M 5.8125 -0.453125 "/></g></g></g><g fill="#282973" fill-opacity="1"><g transform="translate(103.491477, 101.807185)"><g/></g></g><g fill="#282973" fill-opacity="1"><g transform="translate(109.311864, 101.807185)"><g><path d="M 6.4375 0.1875 C 4.625 0.1875 3.203125 -0.265625 2.171875 -1.171875 C 1.140625 -2.085938 0.625 -3.335938 0.625 -4.921875 C 0.625 -6.503906 1.132812 -7.753906 2.15625 -8.671875 C 3.1875 -9.585938 4.59375 -10.046875 6.375 -10.046875 C 7.726562 -10.046875 8.894531 -9.789062 9.875 -9.28125 L 9.90625 -6.859375 L 9.78125 -6.859375 C 9.300781 -8.585938 8.210938 -9.453125 6.515625 -9.453125 C 5.398438 -9.453125 4.519531 -9.050781 3.875 -8.25 C 3.238281 -7.445312 2.921875 -6.347656 2.921875 -4.953125 C 2.921875 -3.566406 3.226562 -2.46875 3.84375 -1.65625 C 4.457031 -0.84375 5.289062 -0.421875 6.34375 -0.390625 C 7.425781 -0.390625 8.253906 -0.660156 8.828125 -1.203125 C 9.410156 -1.765625 9.816406 -2.734375 10.046875 -4.109375 L 10.15625 -4.109375 L 10.296875 -1.6875 C 9.535156 -0.425781 8.25 0.195312 6.4375 0.1875 Z M 6.4375 0.1875 "/></g></g></g><g fill="#282973" fill-opacity="1"><g transform="translate(122.582309, 101.807185)"><g><path d="M 0.484375 -4.21875 C 0.484375 -5.570312 0.9375 -6.644531 1.84375 -7.4375 C 2.75 -8.226562 3.953125 -8.625 5.453125 -8.625 C 6.960938 -8.625 8.171875 -8.226562 9.078125 -7.4375 C 9.992188 -6.644531 10.453125 -5.570312 10.453125 -4.21875 C 10.453125 -2.863281 9.992188 -1.789062 9.078125 -1 C 8.171875 -0.207031 6.96875 0.1875 5.46875 0.1875 C 3.96875 0.1875 2.757812 -0.207031 1.84375 -1 C 0.9375 -1.789062 0.484375 -2.863281 0.484375 -4.21875 Z M 2.640625 -4.21875 C 2.640625 -3.039062 2.894531 -2.101562 3.40625 -1.40625 C 3.914062 -0.71875 4.597656 -0.375 5.453125 -0.375 C 6.316406 -0.375 7.003906 -0.71875 7.515625 -1.40625 C 8.023438 -2.101562 8.28125 -3.039062 8.28125 -4.21875 C 8.28125 -5.394531 8.023438 -6.328125 7.515625 -7.015625 C 7.003906 -7.710938 6.316406 -8.0625 5.453125 -8.0625 C 4.597656 -8.0625 3.914062 -7.710938 3.40625 -7.015625 C 2.894531 -6.328125 2.640625 -5.394531 2.640625 -4.21875 Z M 2.640625 -4.21875 "/></g></g></g></svg>