<svg xmlns="http://www.w3.org/2000/svg" xmlns:xlink="http://www.w3.org/1999/xlink" width="192" zoomAndPan="magnify" viewBox="0 0 144 143.999998" height="192" preserveAspectRatio="xMidYMid meet" version="1.0"><defs><g/><clipPath id="6bffd9f608"><path d="M 1.152344 1.152344 L 72.621094 1.152344 L 72.621094 72.621094 L 1.152344 72.621094 Z M 1.152344 1.152344 " clip-rule="nonzero"/></clipPath><clipPath id="636508bb50"><path d="M 1.152344 1.152344 L 72.402344 1.152344 L 72.402344 72.402344 L 1.152344 72.402344 Z M 1.152344 1.152344 " clip-rule="nonzero"/></clipPath><clipPath id="e891d13a04"><path d="M 71.378906 71.378906 L 142.847656 71.378906 L 142.847656 142.847656 L 71.378906 142.847656 Z M 71.378906 71.378906 " clip-rule="nonzero"/></clipPath><clipPath id="29fc63b44e"><path d="M 71.378906 71.378906 L 142.628906 71.378906 L 142.628906 142.628906 L 71.378906 142.628906 Z M 71.378906 71.378906 " clip-rule="nonzero"/></clipPath></defs><g clip-path="url(#6bffd9f608)"><path fill="#323962" d="M 1.152344 1.152344 L 72.621094 1.152344 L 72.621094 72.621094 L 1.152344 72.621094 Z M 1.152344 1.152344 " fill-opacity="1" fill-rule="nonzero"/></g><g clip-path="url(#636508bb50)"><path stroke-linecap="butt" transform="matrix(0.75, 0, 0, 0.75, 1.151846, 1.151847)" fill="none" stroke-linejoin="miter" d="M 0.000663605 0.000662605 L 95.281919 0.000662605 L 95.281919 95.281918 L 0.000663605 95.281918 Z M 0.000663605 0.000662605 " stroke="#ffffff" stroke-width="4" stroke-opacity="1" stroke-miterlimit="4"/></g><g clip-path="url(#e891d13a04)"><path fill="#323962" d="M 71.378906 71.378906 L 142.847656 71.378906 L 142.847656 142.847656 L 71.378906 142.847656 Z M 71.378906 71.378906 " fill-opacity="1" fill-rule="nonzero"/></g><g clip-path="url(#29fc63b44e)"><path stroke-linecap="butt" transform="matrix(0.75, 0, 0, 0.75, 71.379607, 71.379607)" fill="none" stroke-linejoin="miter" d="M -0.000933849 -0.000934849 L 95.280322 -0.000934849 L 95.280322 95.280321 L -0.000933849 95.280321 Z M -0.000933849 -0.000934849 " stroke="#ffffff" stroke-width="4" stroke-opacity="1" stroke-miterlimit="4"/></g><g fill="#ffffff" fill-opacity="1"><g transform="translate(16.637516, 54.158045)"><g><path d="M 27.546875 0 L 27.546875 -15.03125 L 12.953125 -15.03125 L 12.953125 0 L 4.46875 0 L 4.46875 -37.296875 L 12.953125 -37.296875 L 12.953125 -22.96875 L 27.546875 -22.96875 L 27.546875 -37.296875 L 36.015625 -37.296875 L 36.015625 0 Z M 27.546875 0 "/></g></g></g><g fill="#ffffff" fill-opacity="1"><g transform="translate(5.012555, 14.818098)"><g><path d="M 2.53125 0 L 2.53125 -6.109375 L 0.390625 -6.109375 L 0.390625 -7.984375 L 1.359375 -7.984375 C 1.804688 -7.984375 2.140625 -8.054688 2.359375 -8.203125 C 2.585938 -8.347656 2.757812 -8.59375 2.875 -8.9375 L 3.03125 -9.46875 L 4.640625 -9.46875 L 4.640625 0 Z M 2.53125 0 "/></g></g></g><g fill="#ffffff" fill-opacity="1"><g transform="translate(46.320194, 67.870588)"><g><path d="M 1.53125 0 L 1.53125 -3.6875 L 0.234375 -3.6875 L 0.234375 -4.828125 L 0.8125 -4.828125 C 1.082031 -4.828125 1.285156 -4.867188 1.421875 -4.953125 C 1.566406 -5.035156 1.671875 -5.1875 1.734375 -5.40625 L 1.828125 -5.71875 L 2.796875 -5.71875 L 2.796875 0 Z M 1.53125 0 "/></g></g></g><g fill="#ffffff" fill-opacity="1"><g transform="translate(49.810886, 67.870588)"><g><path d="M 1.09375 0.09375 C 0.875 0.09375 0.691406 0.0234375 0.546875 -0.109375 C 0.398438 -0.253906 0.328125 -0.429688 0.328125 -0.640625 C 0.328125 -0.859375 0.398438 -1.035156 0.546875 -1.171875 C 0.691406 -1.316406 0.875 -1.390625 1.09375 -1.390625 C 1.320312 -1.390625 1.503906 -1.316406 1.640625 -1.171875 C 1.785156 -1.035156 1.859375 -0.859375 1.859375 -0.640625 C 1.859375 -0.429688 1.785156 -0.253906 1.640625 -0.109375 C 1.503906 0.0234375 1.320312 0.09375 1.09375 0.09375 Z M 1.09375 0.09375 "/></g></g></g><g fill="#ffffff" fill-opacity="1"><g transform="translate(51.993592, 67.870588)"><g><path d="M 2.875 0.109375 C 2.351562 0.109375 1.910156 -0.00390625 1.546875 -0.234375 C 1.179688 -0.472656 0.898438 -0.8125 0.703125 -1.25 C 0.503906 -1.695312 0.40625 -2.234375 0.40625 -2.859375 C 0.40625 -3.484375 0.503906 -4.015625 0.703125 -4.453125 C 0.898438 -4.898438 1.179688 -5.238281 1.546875 -5.46875 C 1.910156 -5.707031 2.351562 -5.828125 2.875 -5.828125 C 3.382812 -5.828125 3.820312 -5.707031 4.1875 -5.46875 C 4.550781 -5.238281 4.832031 -4.898438 5.03125 -4.453125 C 5.226562 -4.015625 5.328125 -3.484375 5.328125 -2.859375 C 5.328125 -2.234375 5.226562 -1.695312 5.03125 -1.25 C 4.832031 -0.8125 4.550781 -0.472656 4.1875 -0.234375 C 3.820312 -0.00390625 3.382812 0.109375 2.875 0.109375 Z M 1.671875 -2.859375 C 1.671875 -2.296875 1.773438 -1.851562 1.984375 -1.53125 C 2.191406 -1.207031 2.488281 -1.046875 2.875 -1.046875 C 3.25 -1.046875 3.539062 -1.207031 3.75 -1.53125 C 3.957031 -1.851562 4.0625 -2.296875 4.0625 -2.859375 C 4.0625 -3.421875 3.957031 -3.863281 3.75 -4.1875 C 3.539062 -4.507812 3.25 -4.671875 2.875 -4.671875 C 2.488281 -4.671875 2.191406 -4.507812 1.984375 -4.1875 C 1.773438 -3.863281 1.671875 -3.421875 1.671875 -2.859375 Z M 1.671875 -2.859375 "/></g></g></g><g fill="#ffffff" fill-opacity="1"><g transform="translate(57.724213, 67.870588)"><g><path d="M 2.875 0.109375 C 2.351562 0.109375 1.910156 -0.00390625 1.546875 -0.234375 C 1.179688 -0.472656 0.898438 -0.8125 0.703125 -1.25 C 0.503906 -1.695312 0.40625 -2.234375 0.40625 -2.859375 C 0.40625 -3.484375 0.503906 -4.015625 0.703125 -4.453125 C 0.898438 -4.898438 1.179688 -5.238281 1.546875 -5.46875 C 1.910156 -5.707031 2.351562 -5.828125 2.875 -5.828125 C 3.382812 -5.828125 3.820312 -5.707031 4.1875 -5.46875 C 4.550781 -5.238281 4.832031 -4.898438 5.03125 -4.453125 C 5.226562 -4.015625 5.328125 -3.484375 5.328125 -2.859375 C 5.328125 -2.234375 5.226562 -1.695312 5.03125 -1.25 C 4.832031 -0.8125 4.550781 -0.472656 4.1875 -0.234375 C 3.820312 -0.00390625 3.382812 0.109375 2.875 0.109375 Z M 1.671875 -2.859375 C 1.671875 -2.296875 1.773438 -1.851562 1.984375 -1.53125 C 2.191406 -1.207031 2.488281 -1.046875 2.875 -1.046875 C 3.25 -1.046875 3.539062 -1.207031 3.75 -1.53125 C 3.957031 -1.851562 4.0625 -2.296875 4.0625 -2.859375 C 4.0625 -3.421875 3.957031 -3.863281 3.75 -4.1875 C 3.539062 -4.507812 3.25 -4.671875 2.875 -4.671875 C 2.488281 -4.671875 2.191406 -4.507812 1.984375 -4.1875 C 1.773438 -3.863281 1.671875 -3.421875 1.671875 -2.859375 Z M 1.671875 -2.859375 "/></g></g></g><g fill="#ffffff" fill-opacity="1"><g transform="translate(63.454835, 67.870588)"><g><path d="M 2.53125 0.109375 C 2.082031 0.109375 1.691406 0.0390625 1.359375 -0.09375 C 1.023438 -0.226562 0.765625 -0.421875 0.578125 -0.671875 C 0.398438 -0.921875 0.3125 -1.21875 0.3125 -1.5625 C 0.3125 -1.863281 0.382812 -2.132812 0.53125 -2.375 C 0.6875 -2.613281 0.898438 -2.800781 1.171875 -2.9375 C 0.941406 -3.070312 0.765625 -3.25 0.640625 -3.46875 C 0.523438 -3.695312 0.46875 -3.945312 0.46875 -4.21875 C 0.46875 -4.539062 0.550781 -4.820312 0.71875 -5.0625 C 0.894531 -5.3125 1.132812 -5.5 1.4375 -5.625 C 1.75 -5.757812 2.113281 -5.828125 2.53125 -5.828125 C 2.9375 -5.828125 3.289062 -5.757812 3.59375 -5.625 C 3.90625 -5.5 4.144531 -5.3125 4.3125 -5.0625 C 4.488281 -4.820312 4.578125 -4.539062 4.578125 -4.21875 C 4.578125 -3.945312 4.515625 -3.695312 4.390625 -3.46875 C 4.273438 -3.25 4.101562 -3.070312 3.875 -2.9375 C 4.15625 -2.800781 4.367188 -2.613281 4.515625 -2.375 C 4.660156 -2.132812 4.734375 -1.863281 4.734375 -1.5625 C 4.734375 -1.21875 4.640625 -0.921875 4.453125 -0.671875 C 4.273438 -0.421875 4.019531 -0.226562 3.6875 -0.09375 C 3.351562 0.0390625 2.96875 0.109375 2.53125 0.109375 Z M 1.515625 -1.65625 C 1.515625 -1.414062 1.601562 -1.222656 1.78125 -1.078125 C 1.96875 -0.929688 2.21875 -0.859375 2.53125 -0.859375 C 2.832031 -0.859375 3.070312 -0.929688 3.25 -1.078125 C 3.4375 -1.222656 3.53125 -1.414062 3.53125 -1.65625 C 3.53125 -1.894531 3.4375 -2.085938 3.25 -2.234375 C 3.070312 -2.378906 2.832031 -2.453125 2.53125 -2.453125 C 2.21875 -2.453125 1.96875 -2.378906 1.78125 -2.234375 C 1.601562 -2.085938 1.515625 -1.894531 1.515625 -1.65625 Z M 1.59375 -4.125 C 1.59375 -3.90625 1.675781 -3.722656 1.84375 -3.578125 C 2.007812 -3.441406 2.238281 -3.375 2.53125 -3.375 C 2.8125 -3.375 3.035156 -3.441406 3.203125 -3.578125 C 3.367188 -3.722656 3.453125 -3.90625 3.453125 -4.125 C 3.453125 -4.351562 3.367188 -4.535156 3.203125 -4.671875 C 3.035156 -4.804688 2.8125 -4.875 2.53125 -4.875 C 2.25 -4.875 2.019531 -4.804688 1.84375 -4.671875 C 1.675781 -4.535156 1.59375 -4.351562 1.59375 -4.125 Z M 1.59375 -4.125 "/></g></g></g><g fill="#ffffff" fill-opacity="1"><g transform="translate(68.508214, 67.870588)"><g/></g></g><g fill="#ffffff" fill-opacity="1"><g transform="translate(76.368388, 121.94358)"><g><path d="M 14.8125 0.75 C 12.25 0.75 10.019531 0.34375 8.125 -0.46875 C 6.226562 -1.289062 4.753906 -2.429688 3.703125 -3.890625 C 2.648438 -5.347656 2.125 -7.050781 2.125 -9 L 10.0625 -9 C 10.101562 -7.863281 10.550781 -6.957031 11.40625 -6.28125 C 12.257812 -5.613281 13.429688 -5.28125 14.921875 -5.28125 C 16.203125 -5.28125 17.195312 -5.519531 17.90625 -6 C 18.613281 -6.476562 18.96875 -7.125 18.96875 -7.9375 C 18.96875 -8.820312 18.488281 -9.554688 17.53125 -10.140625 C 16.570312 -10.734375 15.007812 -11.207031 12.84375 -11.5625 C 9.289062 -12.195312 6.675781 -13.222656 5 -14.640625 C 3.332031 -16.066406 2.5 -17.9375 2.5 -20.25 C 2.5 -22.976562 3.519531 -25.070312 5.5625 -26.53125 C 7.601562 -27.988281 10.507812 -28.71875 14.28125 -28.71875 C 18.007812 -28.71875 20.929688 -27.914062 23.046875 -26.3125 C 25.160156 -24.71875 26.304688 -22.445312 26.484375 -19.5 L 18.75 -19.5 C 18.6875 -20.5625 18.253906 -21.382812 17.453125 -21.96875 C 16.648438 -22.5625 15.570312 -22.859375 14.21875 -22.859375 C 13.019531 -22.859375 12.070312 -22.625 11.375 -22.15625 C 10.6875 -21.695312 10.34375 -21.0625 10.34375 -20.25 C 10.34375 -19.394531 10.789062 -18.726562 11.6875 -18.25 C 12.59375 -17.769531 14.238281 -17.28125 16.625 -16.78125 C 23.507812 -15.394531 26.953125 -12.429688 26.953125 -7.890625 C 26.953125 -5.222656 25.878906 -3.113281 23.734375 -1.5625 C 21.585938 -0.0195312 18.613281 0.75 14.8125 0.75 Z M 14.8125 0.75 "/></g></g></g><g fill="#ffffff" fill-opacity="1"><g transform="translate(105.504809, 121.94358)"><g><path d="M 12.09375 0 L 0.484375 -27.96875 L 9.328125 -27.96875 L 12.46875 -19.1875 L 16.203125 -9.703125 L 19.875 -19.1875 L 23.078125 -27.96875 L 31.859375 -27.96875 L 20.1875 0 Z M 12.09375 0 "/></g></g></g><g fill="#ffffff" fill-opacity="1"><g transform="translate(74.2201, 85.997061)"><g><path d="M 4.390625 -9.65625 C 5.117188 -9.65625 5.757812 -9.515625 6.3125 -9.234375 C 6.875 -8.960938 7.3125 -8.578125 7.625 -8.078125 C 7.9375 -7.578125 8.09375 -7 8.09375 -6.34375 C 8.09375 -5.914062 8.019531 -5.488281 7.875 -5.0625 C 7.726562 -4.644531 7.519531 -4.21875 7.25 -3.78125 L 4.828125 0 L 2.4375 0 L 4.390625 -3.109375 C 4.234375 -3.085938 4.070312 -3.078125 3.90625 -3.078125 C 3.289062 -3.078125 2.738281 -3.21875 2.25 -3.5 C 1.769531 -3.78125 1.390625 -4.164062 1.109375 -4.65625 C 0.828125 -5.15625 0.6875 -5.710938 0.6875 -6.328125 C 0.6875 -6.992188 0.84375 -7.578125 1.15625 -8.078125 C 1.46875 -8.578125 1.898438 -8.960938 2.453125 -9.234375 C 3.003906 -9.515625 3.648438 -9.65625 4.390625 -9.65625 Z M 2.75 -6.328125 C 2.75 -5.878906 2.90625 -5.503906 3.21875 -5.203125 C 3.53125 -4.910156 3.921875 -4.765625 4.390625 -4.765625 C 4.859375 -4.765625 5.25 -4.910156 5.5625 -5.203125 C 5.875 -5.503906 6.03125 -5.878906 6.03125 -6.328125 C 6.03125 -6.785156 5.875 -7.164062 5.5625 -7.46875 C 5.25 -7.769531 4.859375 -7.921875 4.390625 -7.921875 C 3.921875 -7.921875 3.53125 -7.769531 3.21875 -7.46875 C 2.90625 -7.164062 2.75 -6.785156 2.75 -6.328125 Z M 2.75 -6.328125 "/></g></g></g><g fill="#ffffff" fill-opacity="1"><g transform="translate(82.918677, 85.997061)"><g><path d="M 0.6875 0 L 0.6875 -1.515625 L 4.59375 -4.875 C 4.914062 -5.15625 5.15625 -5.425781 5.3125 -5.6875 C 5.46875 -5.957031 5.546875 -6.234375 5.546875 -6.515625 C 5.546875 -6.910156 5.421875 -7.226562 5.171875 -7.46875 C 4.921875 -7.707031 4.585938 -7.828125 4.171875 -7.828125 C 3.742188 -7.828125 3.398438 -7.691406 3.140625 -7.421875 C 2.890625 -7.148438 2.753906 -6.773438 2.734375 -6.296875 L 0.765625 -6.296875 C 0.796875 -7.347656 1.117188 -8.171875 1.734375 -8.765625 C 2.347656 -9.359375 3.171875 -9.65625 4.203125 -9.65625 C 4.878906 -9.65625 5.472656 -9.53125 5.984375 -9.28125 C 6.492188 -9.03125 6.894531 -8.675781 7.1875 -8.21875 C 7.476562 -7.757812 7.625 -7.222656 7.625 -6.609375 C 7.625 -6.085938 7.488281 -5.5625 7.21875 -5.03125 C 6.957031 -4.5 6.507812 -3.96875 5.875 -3.4375 L 4.09375 -1.875 L 7.796875 -1.875 L 7.796875 0 Z M 0.6875 0 "/></g></g></g><g fill="#ffffff" fill-opacity="1"><g transform="translate(85.963188, 138.385836)"><g><path d="M 1.53125 0 L 1.53125 -3.6875 L 0.234375 -3.6875 L 0.234375 -4.828125 L 0.8125 -4.828125 C 1.082031 -4.828125 1.285156 -4.867188 1.421875 -4.953125 C 1.566406 -5.035156 1.671875 -5.1875 1.734375 -5.40625 L 1.828125 -5.71875 L 2.796875 -5.71875 L 2.796875 0 Z M 1.53125 0 "/></g></g></g><g fill="#ffffff" fill-opacity="1"><g transform="translate(89.453881, 138.385836)"><g><path d="M 2.875 0.109375 C 2.351562 0.109375 1.910156 -0.00390625 1.546875 -0.234375 C 1.179688 -0.472656 0.898438 -0.8125 0.703125 -1.25 C 0.503906 -1.695312 0.40625 -2.234375 0.40625 -2.859375 C 0.40625 -3.484375 0.503906 -4.015625 0.703125 -4.453125 C 0.898438 -4.898438 1.179688 -5.238281 1.546875 -5.46875 C 1.910156 -5.707031 2.351562 -5.828125 2.875 -5.828125 C 3.382812 -5.828125 3.820312 -5.707031 4.1875 -5.46875 C 4.550781 -5.238281 4.832031 -4.898438 5.03125 -4.453125 C 5.226562 -4.015625 5.328125 -3.484375 5.328125 -2.859375 C 5.328125 -2.234375 5.226562 -1.695312 5.03125 -1.25 C 4.832031 -0.8125 4.550781 -0.472656 4.1875 -0.234375 C 3.820312 -0.00390625 3.382812 0.109375 2.875 0.109375 Z M 1.671875 -2.859375 C 1.671875 -2.296875 1.773438 -1.851562 1.984375 -1.53125 C 2.191406 -1.207031 2.488281 -1.046875 2.875 -1.046875 C 3.25 -1.046875 3.539062 -1.207031 3.75 -1.53125 C 3.957031 -1.851562 4.0625 -2.296875 4.0625 -2.859375 C 4.0625 -3.421875 3.957031 -3.863281 3.75 -4.1875 C 3.539062 -4.507812 3.25 -4.671875 2.875 -4.671875 C 2.488281 -4.671875 2.191406 -4.507812 1.984375 -4.1875 C 1.773438 -3.863281 1.671875 -3.421875 1.671875 -2.859375 Z M 1.671875 -2.859375 "/></g></g></g><g fill="#ffffff" fill-opacity="1"><g transform="translate(95.184502, 138.385836)"><g><path d="M 1.09375 0.09375 C 0.875 0.09375 0.691406 0.0234375 0.546875 -0.109375 C 0.398438 -0.253906 0.328125 -0.429688 0.328125 -0.640625 C 0.328125 -0.859375 0.398438 -1.035156 0.546875 -1.171875 C 0.691406 -1.316406 0.875 -1.390625 1.09375 -1.390625 C 1.320312 -1.390625 1.503906 -1.316406 1.640625 -1.171875 C 1.785156 -1.035156 1.859375 -0.859375 1.859375 -0.640625 C 1.859375 -0.429688 1.785156 -0.253906 1.640625 -0.109375 C 1.503906 0.0234375 1.320312 0.09375 1.09375 0.09375 Z M 1.09375 0.09375 "/></g></g></g><g fill="#ffffff" fill-opacity="1"><g transform="translate(97.367207, 138.385836)"><g><path d="M 2.875 0.109375 C 2.351562 0.109375 1.910156 -0.00390625 1.546875 -0.234375 C 1.179688 -0.472656 0.898438 -0.8125 0.703125 -1.25 C 0.503906 -1.695312 0.40625 -2.234375 0.40625 -2.859375 C 0.40625 -3.484375 0.503906 -4.015625 0.703125 -4.453125 C 0.898438 -4.898438 1.179688 -5.238281 1.546875 -5.46875 C 1.910156 -5.707031 2.351562 -5.828125 2.875 -5.828125 C 3.382812 -5.828125 3.820312 -5.707031 4.1875 -5.46875 C 4.550781 -5.238281 4.832031 -4.898438 5.03125 -4.453125 C 5.226562 -4.015625 5.328125 -3.484375 5.328125 -2.859375 C 5.328125 -2.234375 5.226562 -1.695312 5.03125 -1.25 C 4.832031 -0.8125 4.550781 -0.472656 4.1875 -0.234375 C 3.820312 -0.00390625 3.382812 0.109375 2.875 0.109375 Z M 1.671875 -2.859375 C 1.671875 -2.296875 1.773438 -1.851562 1.984375 -1.53125 C 2.191406 -1.207031 2.488281 -1.046875 2.875 -1.046875 C 3.25 -1.046875 3.539062 -1.207031 3.75 -1.53125 C 3.957031 -1.851562 4.0625 -2.296875 4.0625 -2.859375 C 4.0625 -3.421875 3.957031 -3.863281 3.75 -4.1875 C 3.539062 -4.507812 3.25 -4.671875 2.875 -4.671875 C 2.488281 -4.671875 2.191406 -4.507812 1.984375 -4.1875 C 1.773438 -3.863281 1.671875 -3.421875 1.671875 -2.859375 Z M 1.671875 -2.859375 "/></g></g></g><g fill="#ffffff" fill-opacity="1"><g transform="translate(103.097829, 138.385836)"><g><path d="M 2.875 0.109375 C 2.351562 0.109375 1.910156 -0.00390625 1.546875 -0.234375 C 1.179688 -0.472656 0.898438 -0.8125 0.703125 -1.25 C 0.503906 -1.695312 0.40625 -2.234375 0.40625 -2.859375 C 0.40625 -3.484375 0.503906 -4.015625 0.703125 -4.453125 C 0.898438 -4.898438 1.179688 -5.238281 1.546875 -5.46875 C 1.910156 -5.707031 2.351562 -5.828125 2.875 -5.828125 C 3.382812 -5.828125 3.820312 -5.707031 4.1875 -5.46875 C 4.550781 -5.238281 4.832031 -4.898438 5.03125 -4.453125 C 5.226562 -4.015625 5.328125 -3.484375 5.328125 -2.859375 C 5.328125 -2.234375 5.226562 -1.695312 5.03125 -1.25 C 4.832031 -0.8125 4.550781 -0.472656 4.1875 -0.234375 C 3.820312 -0.00390625 3.382812 0.109375 2.875 0.109375 Z M 1.671875 -2.859375 C 1.671875 -2.296875 1.773438 -1.851562 1.984375 -1.53125 C 2.191406 -1.207031 2.488281 -1.046875 2.875 -1.046875 C 3.25 -1.046875 3.539062 -1.207031 3.75 -1.53125 C 3.957031 -1.851562 4.0625 -2.296875 4.0625 -2.859375 C 4.0625 -3.421875 3.957031 -3.863281 3.75 -4.1875 C 3.539062 -4.507812 3.25 -4.671875 2.875 -4.671875 C 2.488281 -4.671875 2.191406 -4.507812 1.984375 -4.1875 C 1.773438 -3.863281 1.671875 -3.421875 1.671875 -2.859375 Z M 1.671875 -2.859375 "/></g></g></g><g fill="#ffffff" fill-opacity="1"><g transform="translate(108.82845, 138.385836)"><g><path d="M 2.875 0.109375 C 2.351562 0.109375 1.910156 -0.00390625 1.546875 -0.234375 C 1.179688 -0.472656 0.898438 -0.8125 0.703125 -1.25 C 0.503906 -1.695312 0.40625 -2.234375 0.40625 -2.859375 C 0.40625 -3.484375 0.503906 -4.015625 0.703125 -4.453125 C 0.898438 -4.898438 1.179688 -5.238281 1.546875 -5.46875 C 1.910156 -5.707031 2.351562 -5.828125 2.875 -5.828125 C 3.382812 -5.828125 3.820312 -5.707031 4.1875 -5.46875 C 4.550781 -5.238281 4.832031 -4.898438 5.03125 -4.453125 C 5.226562 -4.015625 5.328125 -3.484375 5.328125 -2.859375 C 5.328125 -2.234375 5.226562 -1.695312 5.03125 -1.25 C 4.832031 -0.8125 4.550781 -0.472656 4.1875 -0.234375 C 3.820312 -0.00390625 3.382812 0.109375 2.875 0.109375 Z M 1.671875 -2.859375 C 1.671875 -2.296875 1.773438 -1.851562 1.984375 -1.53125 C 2.191406 -1.207031 2.488281 -1.046875 2.875 -1.046875 C 3.25 -1.046875 3.539062 -1.207031 3.75 -1.53125 C 3.957031 -1.851562 4.0625 -2.296875 4.0625 -2.859375 C 4.0625 -3.421875 3.957031 -3.863281 3.75 -4.1875 C 3.539062 -4.507812 3.25 -4.671875 2.875 -4.671875 C 2.488281 -4.671875 2.191406 -4.507812 1.984375 -4.1875 C 1.773438 -3.863281 1.671875 -3.421875 1.671875 -2.859375 Z M 1.671875 -2.859375 "/></g></g></g><g fill="#ffffff" fill-opacity="1"><g transform="translate(114.559072, 138.385836)"><g><path d="M 2.03125 1.234375 C 1.644531 0.648438 1.359375 0.0507812 1.171875 -0.5625 C 0.984375 -1.175781 0.890625 -1.804688 0.890625 -2.453125 C 0.890625 -3.097656 0.984375 -3.726562 1.171875 -4.34375 C 1.359375 -4.957031 1.644531 -5.554688 2.03125 -6.140625 L 3.421875 -6.140625 C 3.003906 -5.523438 2.695312 -4.910156 2.5 -4.296875 C 2.300781 -3.679688 2.203125 -3.066406 2.203125 -2.453125 C 2.203125 -1.835938 2.300781 -1.222656 2.5 -0.609375 C 2.695312 0.00390625 3.003906 0.617188 3.421875 1.234375 Z M 2.03125 1.234375 "/></g></g></g><g fill="#ffffff" fill-opacity="1"><g transform="translate(118.335887, 138.385836)"><g><path d="M 0.625 0 L 0.625 -4.296875 L 1.546875 -4.296875 L 1.671875 -3.84375 C 1.828125 -4.03125 2.015625 -4.171875 2.234375 -4.265625 C 2.460938 -4.359375 2.710938 -4.40625 2.984375 -4.40625 C 3.617188 -4.40625 4.09375 -4.171875 4.40625 -3.703125 C 4.582031 -3.921875 4.800781 -4.09375 5.0625 -4.21875 C 5.320312 -4.34375 5.617188 -4.40625 5.953125 -4.40625 C 6.503906 -4.40625 6.941406 -4.234375 7.265625 -3.890625 C 7.585938 -3.554688 7.75 -3.09375 7.75 -2.5 L 7.75 0 L 6.5 0 L 6.5 -2.359375 C 6.5 -2.660156 6.425781 -2.898438 6.28125 -3.078125 C 6.132812 -3.253906 5.929688 -3.34375 5.671875 -3.34375 C 5.398438 -3.34375 5.1875 -3.25 5.03125 -3.0625 C 4.875 -2.875 4.796875 -2.628906 4.796875 -2.328125 L 4.796875 0 L 3.578125 0 L 3.578125 -2.359375 C 3.578125 -2.660156 3.5 -2.898438 3.34375 -3.078125 C 3.195312 -3.253906 2.992188 -3.34375 2.734375 -3.34375 C 2.472656 -3.34375 2.257812 -3.25 2.09375 -3.0625 C 1.9375 -2.875 1.859375 -2.628906 1.859375 -2.328125 L 1.859375 0 Z M 0.625 0 "/></g></g></g><g fill="#ffffff" fill-opacity="1"><g transform="translate(126.625258, 138.385836)"><g><path d="M 2.6875 0.109375 C 2.207031 0.109375 1.789062 0.03125 1.4375 -0.125 C 1.09375 -0.28125 0.828125 -0.503906 0.640625 -0.796875 C 0.453125 -1.085938 0.359375 -1.429688 0.359375 -1.828125 L 1.640625 -1.828125 C 1.640625 -1.546875 1.734375 -1.328125 1.921875 -1.171875 C 2.109375 -1.023438 2.359375 -0.953125 2.671875 -0.953125 C 2.941406 -0.953125 3.15625 -1.003906 3.3125 -1.109375 C 3.476562 -1.222656 3.5625 -1.375 3.5625 -1.5625 C 3.5625 -1.757812 3.460938 -1.921875 3.265625 -2.046875 C 3.078125 -2.171875 2.78125 -2.28125 2.375 -2.375 C 1.707031 -2.507812 1.210938 -2.722656 0.890625 -3.015625 C 0.566406 -3.304688 0.40625 -3.679688 0.40625 -4.140625 C 0.40625 -4.660156 0.59375 -5.070312 0.96875 -5.375 C 1.351562 -5.675781 1.878906 -5.828125 2.546875 -5.828125 C 2.992188 -5.828125 3.382812 -5.75 3.71875 -5.59375 C 4.050781 -5.445312 4.304688 -5.234375 4.484375 -4.953125 C 4.671875 -4.671875 4.765625 -4.335938 4.765625 -3.953125 L 3.515625 -3.953125 C 3.515625 -4.203125 3.425781 -4.398438 3.25 -4.546875 C 3.082031 -4.691406 2.851562 -4.765625 2.5625 -4.765625 C 2.289062 -4.765625 2.070312 -4.710938 1.90625 -4.609375 C 1.75 -4.503906 1.671875 -4.359375 1.671875 -4.171875 C 1.671875 -3.992188 1.757812 -3.84375 1.9375 -3.71875 C 2.113281 -3.601562 2.421875 -3.492188 2.859375 -3.390625 C 3.566406 -3.222656 4.078125 -2.992188 4.390625 -2.703125 C 4.710938 -2.421875 4.875 -2.054688 4.875 -1.609375 C 4.875 -1.066406 4.675781 -0.644531 4.28125 -0.34375 C 3.894531 -0.0390625 3.363281 0.109375 2.6875 0.109375 Z M 2.6875 0.109375 "/></g></g></g><g fill="#ffffff" fill-opacity="1"><g transform="translate(131.865381, 138.385836)"><g><path d="M 1.859375 0 L 0.078125 -4.296875 L 1.4375 -4.296875 L 1.90625 -2.9375 L 2.484375 -1.484375 L 3.046875 -2.9375 L 3.53125 -4.296875 L 4.890625 -4.296875 L 3.09375 0 Z M 1.859375 0 "/></g></g></g><g fill="#ffffff" fill-opacity="1"><g transform="translate(136.82756, 138.385836)"><g><path d="M 1.75 -6.140625 C 2.132812 -5.554688 2.421875 -4.957031 2.609375 -4.34375 C 2.796875 -3.726562 2.890625 -3.097656 2.890625 -2.453125 C 2.890625 -1.804688 2.796875 -1.175781 2.609375 -0.5625 C 2.421875 0.0507812 2.132812 0.648438 1.75 1.234375 L 0.359375 1.234375 C 0.765625 0.617188 1.066406 0.00390625 1.265625 -0.609375 C 1.460938 -1.222656 1.5625 -1.835938 1.5625 -2.453125 C 1.5625 -3.066406 1.460938 -3.679688 1.265625 -4.296875 C 1.066406 -4.910156 0.765625 -5.523438 0.359375 -6.140625 Z M 1.75 -6.140625 "/></g></g></g></svg>