<svg xmlns="http://www.w3.org/2000/svg" xmlns:xlink="http://www.w3.org/1999/xlink" width="192" zoomAndPan="magnify" viewBox="0 0 144 143.999998" height="192" preserveAspectRatio="xMidYMid meet" version="1.0"><defs><g/><clipPath id="ac6e141e7d"><path d="M 56.847656 34.578125 L 101.914062 34.578125 L 101.914062 79.644531 L 56.847656 79.644531 Z M 56.847656 34.578125 " clip-rule="nonzero"/></clipPath><clipPath id="cb267a0e9d"><path d="M 79.382812 34.578125 C 66.9375 34.578125 56.847656 44.667969 56.847656 57.113281 C 56.847656 69.558594 66.9375 79.644531 79.382812 79.644531 C 91.824219 79.644531 101.914062 69.558594 101.914062 57.113281 C 101.914062 44.667969 91.824219 34.578125 79.382812 34.578125 Z M 79.382812 34.578125 " clip-rule="nonzero"/></clipPath><clipPath id="6beb22aae3"><path d="M 65.738281 43.472656 L 93.023438 43.472656 L 93.023438 70.753906 L 65.738281 70.753906 Z M 65.738281 43.472656 " clip-rule="nonzero"/></clipPath><clipPath id="9ef8d43b8e"><path d="M 79.382812 43.472656 C 71.847656 43.472656 65.738281 49.578125 65.738281 57.113281 C 65.738281 64.648438 71.847656 70.753906 79.382812 70.753906 C 86.914062 70.753906 93.023438 64.648438 93.023438 57.113281 C 93.023438 49.578125 86.914062 43.472656 79.382812 43.472656 Z M 79.382812 43.472656 " clip-rule="nonzero"/></clipPath></defs><g fill="#ffffff" fill-opacity="1"><g transform="translate(57.960431, 104.523789)"><g><path d="M 85.234375 -95.15625 L 80.875 -90.8125 L 56.140625 0 L 36.015625 0 L 11.140625 -90.8125 L 6.796875 -95.15625 L 34.65625 -95.15625 L 31.53125 -90.9375 L 46.078125 -37.515625 L 60.484375 -90.9375 L 57.359375 -95.15625 Z M 85.234375 -95.15625 "/></g></g></g><g fill="#ffffff" fill-opacity="1"><g transform="translate(21.739574, 136.225376)"><g><path d="M 5.46875 -11.015625 C 5.414062 -11.015625 5.375 -10.988281 5.34375 -10.9375 C 5.300781 -10.882812 5.28125 -10.828125 5.28125 -10.765625 C 5.269531 -10.703125 5.265625 -10.648438 5.265625 -10.609375 L 5.265625 -6.875 C 5.265625 -6.226562 5.265625 -5.625 5.265625 -5.0625 C 5.253906 -4.5 5.25 -4.019531 5.25 -3.625 L 5.25 -2.96875 C 5.25 -2.820312 5.273438 -2.738281 5.328125 -2.71875 C 5.378906 -2.695312 5.410156 -2.6875 5.421875 -2.6875 L 5.546875 -2.703125 C 5.609375 -2.703125 5.691406 -2.707031 5.796875 -2.71875 L 6.078125 -2.75 C 6.171875 -2.75 6.242188 -2.75 6.296875 -2.75 C 6.398438 -2.75 6.46875 -2.707031 6.5 -2.625 C 6.507812 -2.539062 6.515625 -2.492188 6.515625 -2.484375 L 6.515625 -2.171875 C 6.503906 -1.972656 6.488281 -1.75 6.46875 -1.5 C 6.457031 -1.238281 6.453125 -0.988281 6.453125 -0.75 C 6.441406 -0.488281 6.4375 -0.3125 6.4375 -0.21875 C 6.4375 -0.101562 6.410156 -0.03125 6.359375 0 C 6.304688 0.0390625 6.25 0.0625 6.1875 0.0625 L 6.109375 0.0625 C 6.097656 0.0507812 6.085938 0.046875 6.078125 0.046875 L 0.90625 -0.015625 C 0.820312 -0.015625 0.769531 -0.0507812 0.75 -0.125 C 0.71875 -0.1875 0.695312 -0.257812 0.6875 -0.34375 C 0.675781 -0.425781 0.675781 -0.503906 0.6875 -0.578125 L 0.703125 -0.6875 L 0.71875 -0.90625 C 0.738281 -1.050781 0.753906 -1.21875 0.765625 -1.40625 C 0.765625 -1.59375 0.769531 -1.785156 0.78125 -1.984375 C 0.78125 -2.148438 0.78125 -2.273438 0.78125 -2.359375 C 0.78125 -2.503906 0.828125 -2.597656 0.921875 -2.640625 C 0.953125 -2.648438 0.992188 -2.664062 1.046875 -2.6875 L 1.40625 -2.640625 C 1.519531 -2.628906 1.625 -2.625 1.71875 -2.625 C 1.8125 -2.613281 1.890625 -2.609375 1.953125 -2.609375 C 2.078125 -2.609375 2.144531 -2.660156 2.15625 -2.765625 C 2.164062 -2.867188 2.171875 -2.925781 2.171875 -2.9375 L 2.203125 -10.875 C 2.203125 -11.007812 2.15625 -11.097656 2.0625 -11.140625 C 2.019531 -11.160156 1.972656 -11.171875 1.921875 -11.171875 C 1.828125 -11.191406 1.722656 -11.203125 1.609375 -11.203125 C 1.535156 -11.210938 1.457031 -11.21875 1.375 -11.21875 L 1.125 -11.21875 C 1.0625 -11.21875 1.023438 -11.242188 1.015625 -11.296875 C 0.984375 -11.347656 0.960938 -11.410156 0.953125 -11.484375 C 0.953125 -11.554688 0.957031 -11.640625 0.96875 -11.734375 L 0.96875 -13.796875 C 0.96875 -13.929688 1.007812 -14.019531 1.09375 -14.0625 C 1.164062 -14.101562 1.238281 -14.125 1.3125 -14.125 L 1.390625 -14.125 C 1.398438 -14.101562 1.414062 -14.09375 1.4375 -14.09375 L 1.78125 -14.078125 C 2.007812 -14.066406 2.296875 -14.054688 2.640625 -14.046875 C 2.992188 -14.023438 3.367188 -14.007812 3.765625 -14 C 4.171875 -13.96875 4.554688 -13.945312 4.921875 -13.9375 C 5.285156 -13.925781 5.601562 -13.910156 5.875 -13.890625 C 6.125 -13.878906 6.273438 -13.875 6.328125 -13.875 C 6.410156 -13.875 6.472656 -13.847656 6.515625 -13.796875 C 6.546875 -13.734375 6.5625 -13.664062 6.5625 -13.59375 C 6.5625 -13.507812 6.550781 -13.414062 6.53125 -13.3125 L 6.515625 -11.203125 C 6.515625 -11.117188 6.488281 -11.0625 6.4375 -11.03125 C 6.382812 -11.007812 6.335938 -11 6.296875 -11 C 6.253906 -11 6.226562 -11.003906 6.21875 -11.015625 Z M 5.46875 -11.015625 "/></g></g></g><g fill="#ffffff" fill-opacity="1"><g transform="translate(32.492736, 136.225376)"><g><path d="M 3.65625 -15.0625 C 3.351562 -14.539062 3.085938 -14.070312 2.859375 -13.65625 C 2.660156 -13.289062 2.472656 -12.953125 2.296875 -12.640625 C 2.109375 -12.316406 2.003906 -12.140625 1.984375 -12.109375 C 1.921875 -12.046875 1.804688 -12.015625 1.640625 -12.015625 C 1.460938 -12.015625 1.269531 -12.035156 1.0625 -12.078125 C 0.851562 -12.117188 0.710938 -12.144531 0.640625 -12.15625 C 0.585938 -12.1875 0.550781 -12.253906 0.53125 -12.359375 L 0.53125 -12.5 C 0.695312 -12.945312 0.859375 -13.351562 1.015625 -13.71875 C 1.128906 -14.03125 1.238281 -14.328125 1.34375 -14.609375 C 1.457031 -14.890625 1.523438 -15.0625 1.546875 -15.125 C 1.585938 -15.269531 1.644531 -15.359375 1.71875 -15.390625 C 1.769531 -15.421875 1.800781 -15.4375 1.8125 -15.4375 L 3.234375 -15.4375 C 3.398438 -15.4375 3.519531 -15.425781 3.59375 -15.40625 C 3.65625 -15.394531 3.695312 -15.375 3.71875 -15.34375 C 3.71875 -15.3125 3.71875 -15.273438 3.71875 -15.234375 C 3.695312 -15.179688 3.675781 -15.125 3.65625 -15.0625 Z M 3.65625 -15.0625 "/></g></g></g><g fill="#ffffff" fill-opacity="1"><g transform="translate(40.421945, 136.225376)"><g><path d="M 4.484375 0 C 4.460938 0 4.445312 0.00390625 4.4375 0.015625 L 4.3125 0.015625 C 4.207031 0.015625 4.109375 -0.015625 4.015625 -0.078125 C 3.910156 -0.128906 3.859375 -0.257812 3.859375 -0.46875 C 3.859375 -0.539062 3.863281 -0.75 3.875 -1.09375 C 3.875 -1.425781 3.878906 -1.84375 3.890625 -2.34375 C 3.898438 -2.820312 3.914062 -3.363281 3.9375 -3.96875 C 3.9375 -4.5625 3.941406 -5.171875 3.953125 -5.796875 C 3.984375 -7.242188 4.015625 -8.863281 4.046875 -10.65625 C 4.066406 -10.800781 4.066406 -10.941406 4.046875 -11.078125 C 4.035156 -11.179688 4.003906 -11.273438 3.953125 -11.359375 C 3.898438 -11.441406 3.8125 -11.484375 3.6875 -11.484375 C 3.570312 -11.484375 3.378906 -11.484375 3.109375 -11.484375 C 2.828125 -11.460938 2.546875 -11.441406 2.265625 -11.421875 C 1.921875 -11.398438 1.554688 -11.378906 1.171875 -11.359375 C 1.140625 -11.347656 1.101562 -11.34375 1.0625 -11.34375 C 1.039062 -11.34375 1.015625 -11.34375 0.984375 -11.34375 C 0.941406 -11.320312 0.894531 -11.3125 0.84375 -11.3125 C 0.738281 -11.3125 0.640625 -11.347656 0.546875 -11.421875 C 0.441406 -11.472656 0.390625 -11.59375 0.390625 -11.78125 L 0.390625 -12.875 C 0.390625 -13.03125 0.390625 -13.160156 0.390625 -13.265625 L 0.359375 -13.4375 L 0.359375 -13.5625 C 0.359375 -13.625 0.375 -13.703125 0.40625 -13.796875 C 0.425781 -13.878906 0.472656 -13.960938 0.546875 -14.046875 C 0.609375 -14.109375 0.703125 -14.140625 0.828125 -14.140625 L 9.515625 -14.09375 C 9.546875 -14.09375 9.566406 -14.101562 9.578125 -14.125 L 9.765625 -14.125 C 9.878906 -14.125 10.003906 -14.097656 10.140625 -14.046875 C 10.273438 -13.972656 10.34375 -13.835938 10.34375 -13.640625 C 10.34375 -13.472656 10.351562 -13.300781 10.375 -13.125 C 10.375 -12.957031 10.378906 -12.796875 10.390625 -12.640625 L 10.421875 -12.125 C 10.441406 -12.019531 10.4375 -11.929688 10.40625 -11.859375 C 10.382812 -11.796875 10.34375 -11.734375 10.28125 -11.671875 C 10.226562 -11.609375 10.132812 -11.578125 10 -11.578125 L 7.328125 -11.5625 C 7.253906 -11.5625 7.191406 -11.546875 7.140625 -11.515625 C 7.085938 -11.492188 7.039062 -11.460938 7 -11.421875 C 6.957031 -11.378906 6.9375 -11.304688 6.9375 -11.203125 C 6.9375 -11.160156 6.941406 -10.976562 6.953125 -10.65625 C 6.953125 -10.332031 6.960938 -9.921875 6.984375 -9.421875 C 6.984375 -8.921875 6.988281 -8.363281 7 -7.75 C 7.007812 -7.125 7.023438 -6.5 7.046875 -5.875 C 7.054688 -4.375 7.082031 -2.691406 7.125 -0.828125 C 7.132812 -0.679688 7.125 -0.546875 7.09375 -0.421875 C 7.070312 -0.316406 7.023438 -0.222656 6.953125 -0.140625 C 6.890625 -0.046875 6.785156 0 6.640625 0 Z M 4.484375 0 "/></g></g></g><g fill="#ffffff" fill-opacity="1"><g transform="translate(54.987432, 136.225376)"><g><path d="M 6.015625 -7.96875 C 6.285156 -7.832031 6.523438 -7.710938 6.734375 -7.609375 C 6.941406 -7.492188 7.097656 -7.382812 7.203125 -7.28125 C 7.203125 -7.269531 7.207031 -7.265625 7.21875 -7.265625 C 7.21875 -7.265625 7.21875 -7.253906 7.21875 -7.234375 C 7.863281 -6.816406 8.347656 -6.414062 8.671875 -6.03125 C 8.992188 -5.644531 9.226562 -5.300781 9.375 -5 C 9.507812 -4.707031 9.585938 -4.472656 9.609375 -4.296875 C 9.617188 -4.109375 9.628906 -4.007812 9.640625 -4 C 9.640625 -3.082031 9.453125 -2.351562 9.078125 -1.8125 C 8.703125 -1.257812 8.234375 -0.835938 7.671875 -0.546875 C 7.097656 -0.242188 6.484375 -0.0546875 5.828125 0.015625 C 5.171875 0.109375 4.566406 0.15625 4.015625 0.15625 C 3.585938 0.15625 3.210938 0.144531 2.890625 0.125 C 2.566406 0.09375 2.34375 0.078125 2.21875 0.078125 C 2 0.078125 1.832031 0.046875 1.71875 -0.015625 C 1.582031 -0.0664062 1.488281 -0.132812 1.4375 -0.21875 C 1.363281 -0.289062 1.320312 -0.359375 1.3125 -0.421875 L 1.296875 -0.53125 C 1.304688 -0.539062 1.296875 -0.691406 1.265625 -0.984375 C 1.222656 -1.285156 1.203125 -1.628906 1.203125 -2.015625 C 1.203125 -2.203125 1.25 -2.34375 1.34375 -2.4375 C 1.425781 -2.53125 1.523438 -2.597656 1.640625 -2.640625 C 1.742188 -2.679688 1.84375 -2.707031 1.9375 -2.71875 L 2.0625 -2.71875 C 2.070312 -2.71875 2.285156 -2.71875 2.703125 -2.71875 C 3.117188 -2.707031 3.648438 -2.703125 4.296875 -2.703125 C 4.617188 -2.703125 4.925781 -2.707031 5.21875 -2.71875 C 5.519531 -2.738281 5.789062 -2.78125 6.03125 -2.84375 C 6.257812 -2.90625 6.445312 -3.015625 6.59375 -3.171875 C 6.738281 -3.316406 6.820312 -3.523438 6.84375 -3.796875 C 6.84375 -3.984375 6.757812 -4.171875 6.59375 -4.359375 C 6.414062 -4.535156 6.203125 -4.707031 5.953125 -4.875 C 5.679688 -5.050781 5.382812 -5.226562 5.0625 -5.40625 C 4.738281 -5.5625 4.429688 -5.707031 4.140625 -5.84375 L 4.109375 -5.84375 L 4.046875 -5.890625 C 3.796875 -6.023438 3.570312 -6.144531 3.375 -6.25 C 3.15625 -6.363281 2.992188 -6.472656 2.890625 -6.578125 C 2.867188 -6.578125 2.859375 -6.582031 2.859375 -6.59375 C 2.859375 -6.59375 2.851562 -6.59375 2.84375 -6.59375 C 2.207031 -7.007812 1.726562 -7.414062 1.40625 -7.8125 C 1.082031 -8.195312 0.851562 -8.535156 0.71875 -8.828125 C 0.570312 -9.128906 0.492188 -9.375 0.484375 -9.5625 C 0.472656 -9.75 0.457031 -9.847656 0.4375 -9.859375 C 0.4375 -10.773438 0.628906 -11.507812 1.015625 -12.0625 C 1.390625 -12.601562 1.859375 -13.019531 2.421875 -13.3125 C 2.984375 -13.601562 3.59375 -13.796875 4.25 -13.890625 C 4.914062 -13.972656 5.523438 -14.015625 6.078125 -14.015625 C 6.503906 -14.015625 6.878906 -14.003906 7.203125 -13.984375 C 7.523438 -13.953125 7.742188 -13.9375 7.859375 -13.9375 C 8.085938 -13.9375 8.265625 -13.910156 8.390625 -13.859375 C 8.515625 -13.785156 8.609375 -13.71875 8.671875 -13.65625 C 8.722656 -13.570312 8.757812 -13.5 8.78125 -13.4375 L 8.796875 -13.328125 C 8.785156 -13.316406 8.796875 -13.164062 8.828125 -12.875 C 8.859375 -12.570312 8.875 -12.226562 8.875 -11.84375 C 8.875 -11.65625 8.832031 -11.515625 8.75 -11.421875 C 8.65625 -11.328125 8.554688 -11.257812 8.453125 -11.21875 C 8.347656 -11.175781 8.253906 -11.15625 8.171875 -11.15625 L 8.03125 -11.140625 L 7.90625 -11.140625 C 7.757812 -11.140625 7.5 -11.144531 7.125 -11.15625 C 6.75 -11.15625 6.304688 -11.15625 5.796875 -11.15625 C 5.472656 -11.15625 5.160156 -11.148438 4.859375 -11.140625 C 4.566406 -11.117188 4.304688 -11.078125 4.078125 -11.015625 C 3.835938 -10.929688 3.640625 -10.820312 3.484375 -10.6875 C 3.335938 -10.539062 3.257812 -10.332031 3.25 -10.0625 C 3.238281 -9.875 3.316406 -9.691406 3.484375 -9.515625 C 3.648438 -9.328125 3.867188 -9.144531 4.140625 -8.96875 C 4.398438 -8.800781 4.691406 -8.632812 5.015625 -8.46875 L 5.953125 -8.015625 L 5.96875 -8.015625 Z M 6.015625 -7.96875 "/></g></g></g><g fill="#ffffff" fill-opacity="1"><g transform="translate(68.665396, 136.225376)"><g><path d="M 1.046875 -1.875 C 1.046875 -2.269531 1.117188 -2.570312 1.265625 -2.78125 C 1.421875 -3 1.597656 -3.160156 1.796875 -3.265625 C 1.984375 -3.367188 2.171875 -3.4375 2.359375 -3.46875 C 2.535156 -3.476562 2.648438 -3.484375 2.703125 -3.484375 C 3.066406 -3.484375 3.367188 -3.429688 3.609375 -3.328125 C 3.847656 -3.203125 4.046875 -3.046875 4.203125 -2.859375 C 4.328125 -2.671875 4.425781 -2.457031 4.5 -2.21875 C 4.550781 -1.976562 4.578125 -1.726562 4.578125 -1.46875 C 4.578125 -1.21875 4.507812 -1.003906 4.375 -0.828125 C 4.226562 -0.640625 4.054688 -0.484375 3.859375 -0.359375 C 3.648438 -0.242188 3.429688 -0.15625 3.203125 -0.09375 C 2.972656 -0.0390625 2.765625 -0.015625 2.578125 -0.015625 C 2.398438 -0.015625 2.21875 -0.0390625 2.03125 -0.09375 C 1.84375 -0.132812 1.679688 -0.222656 1.546875 -0.359375 C 1.398438 -0.492188 1.28125 -0.679688 1.1875 -0.921875 C 1.09375 -1.171875 1.046875 -1.488281 1.046875 -1.875 Z M 1.046875 -1.875 "/></g></g></g><g fill="#ffffff" fill-opacity="1"><g transform="translate(77.825042, 136.225376)"><g><path d="M 14.78125 -0.234375 C 14.78125 -0.128906 14.757812 -0.0664062 14.71875 -0.046875 C 14.664062 -0.015625 14.613281 0 14.5625 0 C 14.507812 0 14.476562 -0.00390625 14.46875 -0.015625 L 14.421875 -0.015625 L 9.453125 0 C 9.359375 0 9.300781 -0.0234375 9.28125 -0.078125 C 9.238281 -0.128906 9.203125 -0.191406 9.171875 -0.265625 C 9.160156 -0.347656 9.160156 -0.4375 9.171875 -0.53125 C 9.191406 -0.863281 9.207031 -1.164062 9.21875 -1.4375 C 9.226562 -1.675781 9.242188 -1.910156 9.265625 -2.140625 C 9.273438 -2.359375 9.28125 -2.5 9.28125 -2.5625 C 9.289062 -2.664062 9.363281 -2.742188 9.5 -2.796875 C 9.550781 -2.816406 9.617188 -2.828125 9.703125 -2.828125 L 10.40625 -2.828125 C 10.539062 -2.828125 10.625 -2.875 10.65625 -2.96875 C 10.664062 -3.007812 10.671875 -3.054688 10.671875 -3.109375 L 10.6875 -5.703125 C 10.6875 -5.816406 10.65625 -5.878906 10.59375 -5.890625 C 10.519531 -5.898438 10.476562 -5.90625 10.46875 -5.90625 L 4.96875 -5.9375 C 4.90625 -5.9375 4.867188 -5.898438 4.859375 -5.828125 C 4.835938 -5.765625 4.828125 -5.691406 4.828125 -5.609375 C 4.804688 -5.515625 4.804688 -5.40625 4.828125 -5.28125 L 4.84375 -2.796875 C 4.84375 -2.679688 4.882812 -2.609375 4.96875 -2.578125 C 5 -2.566406 5.035156 -2.5625 5.078125 -2.5625 L 5.8125 -2.5625 C 5.894531 -2.5625 5.953125 -2.539062 5.984375 -2.5 C 6.015625 -2.445312 6.046875 -2.394531 6.078125 -2.34375 C 6.097656 -2.257812 6.109375 -2.175781 6.109375 -2.09375 L 6.09375 -0.328125 C 6.09375 -0.171875 6.039062 -0.0820312 5.9375 -0.0625 C 5.8125 -0.03125 5.695312 -0.015625 5.59375 -0.015625 L 0.890625 -0.015625 C 0.773438 -0.015625 0.703125 -0.0351562 0.671875 -0.078125 C 0.628906 -0.117188 0.59375 -0.171875 0.5625 -0.234375 C 0.539062 -0.296875 0.53125 -0.363281 0.53125 -0.4375 L 0.5625 -1.09375 C 0.570312 -1.257812 0.585938 -1.441406 0.609375 -1.640625 C 0.609375 -1.828125 0.609375 -1.992188 0.609375 -2.140625 C 0.609375 -2.285156 0.617188 -2.398438 0.640625 -2.484375 C 0.671875 -2.546875 0.707031 -2.597656 0.75 -2.640625 C 0.769531 -2.679688 0.8125 -2.703125 0.875 -2.703125 L 1.796875 -2.703125 C 1.859375 -2.703125 1.910156 -2.722656 1.953125 -2.765625 C 1.992188 -2.804688 2.019531 -2.847656 2.03125 -2.890625 C 2.0625 -2.941406 2.078125 -3 2.078125 -3.0625 L 2.203125 -10.828125 C 2.203125 -10.941406 2.175781 -11.007812 2.125 -11.03125 C 2.0625 -11.039062 2.003906 -11.046875 1.953125 -11.046875 L 1.859375 -11.046875 C 1.742188 -11.046875 1.640625 -11.054688 1.546875 -11.078125 L 1.015625 -11.078125 C 0.859375 -11.078125 0.78125 -11.132812 0.78125 -11.25 C 0.769531 -11.363281 0.78125 -11.425781 0.8125 -11.4375 C 0.820312 -11.4375 0.828125 -11.53125 0.828125 -11.71875 L 0.828125 -12.34375 C 0.828125 -12.570312 0.828125 -12.800781 0.828125 -13.03125 C 0.816406 -13.25 0.8125 -13.40625 0.8125 -13.5 C 0.8125 -13.632812 0.835938 -13.71875 0.890625 -13.75 C 0.929688 -13.78125 1.003906 -13.796875 1.109375 -13.796875 L 6.109375 -13.703125 C 6.179688 -13.703125 6.226562 -13.671875 6.25 -13.609375 C 6.28125 -13.554688 6.296875 -13.5 6.296875 -13.4375 C 6.296875 -13.351562 6.28125 -13.257812 6.25 -13.15625 L 6.28125 -11.15625 C 6.28125 -11.03125 6.242188 -10.960938 6.171875 -10.953125 C 6.109375 -10.921875 6.03125 -10.90625 5.9375 -10.90625 L 5.625 -10.90625 C 5.53125 -10.894531 5.4375 -10.890625 5.34375 -10.890625 L 5.109375 -10.890625 C 5.035156 -10.890625 4.988281 -10.867188 4.96875 -10.828125 C 4.925781 -10.773438 4.90625 -10.722656 4.90625 -10.671875 C 4.90625 -10.597656 4.910156 -10.546875 4.921875 -10.515625 C 4.921875 -10.453125 4.925781 -10.421875 4.9375 -10.421875 C 4.957031 -10.421875 4.96875 -10.335938 4.96875 -10.171875 C 4.945312 -9.992188 4.9375 -9.789062 4.9375 -9.5625 C 4.925781 -9.332031 4.914062 -9.109375 4.90625 -8.890625 C 4.882812 -8.679688 4.875 -8.539062 4.875 -8.46875 C 4.875 -8.320312 4.929688 -8.234375 5.046875 -8.203125 C 5.148438 -8.179688 5.207031 -8.175781 5.21875 -8.1875 L 5.640625 -8.203125 C 5.929688 -8.203125 6.285156 -8.203125 6.703125 -8.203125 L 10.59375 -8.203125 C 10.695312 -8.203125 10.773438 -8.257812 10.828125 -8.375 C 10.847656 -8.414062 10.859375 -8.46875 10.859375 -8.53125 L 10.875 -10.8125 C 10.875 -10.875 10.859375 -10.925781 10.828125 -10.96875 L 10.734375 -11.046875 L 10.5625 -11.09375 L 9.65625 -11.109375 C 9.550781 -11.109375 9.484375 -11.15625 9.453125 -11.25 C 9.441406 -11.28125 9.4375 -11.320312 9.4375 -11.375 L 9.453125 -13.65625 C 9.453125 -13.789062 9.492188 -13.878906 9.578125 -13.921875 C 9.648438 -13.960938 9.71875 -13.984375 9.78125 -13.984375 L 9.859375 -13.984375 C 9.859375 -13.960938 9.867188 -13.953125 9.890625 -13.953125 L 10.234375 -13.9375 C 10.453125 -13.925781 10.738281 -13.921875 11.09375 -13.921875 C 11.425781 -13.898438 11.800781 -13.882812 12.21875 -13.875 C 12.625 -13.863281 13.007812 -13.851562 13.375 -13.84375 C 13.71875 -13.820312 14.019531 -13.8125 14.28125 -13.8125 C 14.539062 -13.800781 14.6875 -13.796875 14.71875 -13.796875 C 14.789062 -13.796875 14.835938 -13.773438 14.859375 -13.734375 C 14.878906 -13.679688 14.894531 -13.628906 14.90625 -13.578125 C 14.90625 -13.492188 14.898438 -13.410156 14.890625 -13.328125 L 14.890625 -11.3125 C 14.890625 -11.082031 14.785156 -10.96875 14.578125 -10.96875 L 13.65625 -10.96875 C 13.601562 -10.96875 13.5625 -10.929688 13.53125 -10.859375 L 13.53125 -10.71875 L 13.515625 -2.859375 C 13.515625 -2.742188 13.535156 -2.675781 13.578125 -2.65625 C 13.617188 -2.632812 13.644531 -2.625 13.65625 -2.625 C 13.664062 -2.625 13.773438 -2.628906 13.984375 -2.640625 C 14.179688 -2.640625 14.347656 -2.640625 14.484375 -2.640625 C 14.609375 -2.640625 14.679688 -2.585938 14.703125 -2.484375 C 14.710938 -2.429688 14.71875 -2.375 14.71875 -2.3125 C 14.738281 -1.988281 14.753906 -1.6875 14.765625 -1.40625 C 14.765625 -1.164062 14.769531 -0.9375 14.78125 -0.71875 C 14.78125 -0.5 14.78125 -0.335938 14.78125 -0.234375 Z M 14.78125 -0.234375 "/></g></g></g><g fill="#ffffff" fill-opacity="1"><g transform="translate(96.807989, 136.225376)"><g><path d="M 10.3125 -2.15625 C 10.375 -2.15625 10.394531 -2.191406 10.375 -2.265625 C 10.332031 -2.328125 10.3125 -2.363281 10.3125 -2.375 L 10.265625 -2.484375 C 10.242188 -2.535156 10.210938 -2.601562 10.171875 -2.6875 C 10.128906 -2.757812 10.09375 -2.835938 10.0625 -2.921875 C 10.019531 -3.003906 9.988281 -3.066406 9.96875 -3.109375 C 9.9375 -3.171875 9.863281 -3.210938 9.75 -3.234375 C 9.625 -3.242188 9.523438 -3.25 9.453125 -3.25 L 4.734375 -3.234375 C 4.679688 -3.234375 4.632812 -3.191406 4.59375 -3.109375 C 4.539062 -3.015625 4.492188 -2.921875 4.453125 -2.828125 C 4.410156 -2.710938 4.378906 -2.609375 4.359375 -2.515625 C 4.328125 -2.421875 4.3125 -2.363281 4.3125 -2.34375 C 4.257812 -2.289062 4.253906 -2.253906 4.296875 -2.234375 C 4.328125 -2.222656 4.351562 -2.21875 4.375 -2.21875 L 5.203125 -2.21875 C 5.335938 -2.21875 5.429688 -2.148438 5.484375 -2.015625 C 5.492188 -1.960938 5.5 -1.894531 5.5 -1.8125 C 5.488281 -1.582031 5.484375 -1.367188 5.484375 -1.171875 C 5.484375 -0.984375 5.484375 -0.804688 5.484375 -0.640625 C 5.472656 -0.472656 5.46875 -0.347656 5.46875 -0.265625 C 5.46875 -0.179688 5.441406 -0.117188 5.390625 -0.078125 C 5.316406 -0.0351562 5.25 -0.00390625 5.1875 0.015625 C 5.09375 0.0351562 4.988281 0.046875 4.875 0.046875 L 0.828125 0.015625 C 0.679688 0.015625 0.582031 -0.00390625 0.53125 -0.046875 C 0.457031 -0.078125 0.410156 -0.113281 0.390625 -0.15625 C 0.359375 -0.207031 0.347656 -0.269531 0.359375 -0.34375 C 0.378906 -0.5625 0.394531 -0.769531 0.40625 -0.96875 C 0.40625 -1.144531 0.410156 -1.320312 0.421875 -1.5 C 0.421875 -1.65625 0.421875 -1.78125 0.421875 -1.875 C 0.421875 -2.0625 0.484375 -2.179688 0.609375 -2.234375 C 0.722656 -2.273438 0.789062 -2.296875 0.8125 -2.296875 C 0.820312 -2.296875 0.898438 -2.289062 1.046875 -2.28125 C 1.191406 -2.269531 1.328125 -2.265625 1.453125 -2.265625 C 1.515625 -2.265625 1.566406 -2.296875 1.609375 -2.359375 C 1.648438 -2.410156 1.691406 -2.476562 1.734375 -2.5625 C 1.765625 -2.625 1.789062 -2.691406 1.8125 -2.765625 C 1.820312 -2.816406 1.828125 -2.847656 1.828125 -2.859375 C 1.828125 -2.878906 1.878906 -3.007812 1.984375 -3.25 C 2.054688 -3.488281 2.148438 -3.753906 2.265625 -4.046875 C 2.359375 -4.347656 2.453125 -4.617188 2.546875 -4.859375 C 2.640625 -5.097656 2.691406 -5.226562 2.703125 -5.25 C 2.710938 -5.257812 2.785156 -5.425781 2.921875 -5.75 C 3.046875 -6.0625 3.203125 -6.457031 3.390625 -6.9375 C 3.566406 -7.425781 3.757812 -7.953125 3.96875 -8.515625 C 4.1875 -9.066406 4.390625 -9.59375 4.578125 -10.09375 C 4.765625 -10.570312 4.925781 -10.988281 5.0625 -11.34375 C 5.195312 -11.6875 5.28125 -11.878906 5.3125 -11.921875 C 5.34375 -12.003906 5.347656 -12.054688 5.328125 -12.078125 C 5.296875 -12.109375 5.257812 -12.125 5.21875 -12.125 C 4.9375 -12.125 4.648438 -12.128906 4.359375 -12.140625 C 4.054688 -12.148438 3.765625 -12.191406 3.484375 -12.265625 C 3.335938 -12.304688 3.234375 -12.351562 3.171875 -12.40625 C 3.085938 -12.457031 3.03125 -12.507812 3 -12.5625 C 2.976562 -12.601562 2.972656 -12.644531 2.984375 -12.6875 C 2.984375 -12.726562 2.988281 -12.75 3 -12.75 C 3.019531 -12.75 3.050781 -12.800781 3.09375 -12.90625 C 3.113281 -13.019531 3.144531 -13.148438 3.1875 -13.296875 C 3.226562 -13.429688 3.273438 -13.570312 3.328125 -13.71875 C 3.367188 -13.863281 3.398438 -13.984375 3.421875 -14.078125 C 3.460938 -14.210938 3.539062 -14.300781 3.65625 -14.34375 C 3.75 -14.382812 3.84375 -14.40625 3.9375 -14.40625 C 4.007812 -14.40625 4.054688 -14.394531 4.078125 -14.375 L 4.09375 -14.359375 L 4.15625 -14.359375 C 4.195312 -14.347656 4.265625 -14.335938 4.359375 -14.328125 C 4.441406 -14.304688 4.582031 -14.273438 4.78125 -14.234375 C 5.050781 -14.179688 5.328125 -14.148438 5.609375 -14.140625 C 5.890625 -14.109375 6.164062 -14.09375 6.4375 -14.09375 C 6.625 -14.09375 6.796875 -14.101562 6.953125 -14.125 C 7.109375 -14.125 7.242188 -14.128906 7.359375 -14.140625 C 7.492188 -14.140625 7.625 -14.144531 7.75 -14.15625 C 7.851562 -14.15625 7.953125 -14.148438 8.046875 -14.140625 L 8.265625 -14.140625 C 8.347656 -14.140625 8.410156 -14.132812 8.453125 -14.125 C 8.535156 -14.101562 8.609375 -14.082031 8.671875 -14.0625 C 8.742188 -14.019531 8.789062 -13.984375 8.8125 -13.953125 C 8.820312 -13.941406 8.875 -13.816406 8.96875 -13.578125 C 9.050781 -13.316406 9.15625 -13.015625 9.28125 -12.671875 C 9.394531 -12.304688 9.519531 -11.925781 9.65625 -11.53125 C 9.789062 -11.132812 9.914062 -10.78125 10.03125 -10.46875 C 10.101562 -10.269531 10.226562 -9.953125 10.40625 -9.515625 C 10.570312 -9.078125 10.757812 -8.585938 10.96875 -8.046875 C 11.175781 -7.503906 11.398438 -6.945312 11.640625 -6.375 C 11.867188 -5.789062 12.09375 -5.253906 12.3125 -4.765625 C 12.507812 -4.265625 12.679688 -3.835938 12.828125 -3.484375 C 12.972656 -3.117188 13.070312 -2.898438 13.125 -2.828125 C 13.28125 -2.597656 13.394531 -2.445312 13.46875 -2.375 C 13.53125 -2.351562 13.570312 -2.34375 13.59375 -2.34375 C 13.71875 -2.320312 13.835938 -2.3125 13.953125 -2.3125 C 14.066406 -2.3125 14.179688 -2.3125 14.296875 -2.3125 C 14.410156 -2.300781 14.5 -2.296875 14.5625 -2.296875 C 14.644531 -2.296875 14.707031 -2.285156 14.75 -2.265625 C 14.769531 -2.222656 14.796875 -2.179688 14.828125 -2.140625 C 14.835938 -2.085938 14.84375 -2.023438 14.84375 -1.953125 C 14.875 -1.703125 14.898438 -1.46875 14.921875 -1.25 C 14.953125 -1.0625 14.972656 -0.875 14.984375 -0.6875 C 15.003906 -0.5 15.015625 -0.363281 15.015625 -0.28125 C 15.015625 -0.125 14.976562 -0.0351562 14.90625 -0.015625 C 14.820312 0.00390625 14.78125 0.0234375 14.78125 0.046875 L 13.859375 0.046875 C 13.566406 0.046875 13.257812 0.0351562 12.9375 0.015625 C 12.59375 0.015625 12.25 0.015625 11.90625 0.015625 C 11.550781 0.015625 11.226562 0.0078125 10.9375 0 C 10.632812 0 10.382812 0 10.1875 0 L 9.828125 0 C 9.679688 0 9.585938 -0.0625 9.546875 -0.1875 C 9.503906 -0.300781 9.484375 -0.367188 9.484375 -0.390625 L 9.453125 -0.609375 C 9.441406 -0.753906 9.429688 -0.921875 9.421875 -1.109375 C 9.390625 -1.296875 9.367188 -1.476562 9.359375 -1.65625 C 9.328125 -1.832031 9.3125 -1.945312 9.3125 -2 C 9.3125 -2.082031 9.332031 -2.128906 9.375 -2.140625 C 9.40625 -2.148438 9.453125 -2.15625 9.515625 -2.15625 Z M 8.53125 -5.640625 C 8.570312 -5.640625 8.644531 -5.648438 8.75 -5.671875 C 8.863281 -5.671875 8.976562 -5.675781 9.09375 -5.6875 C 9.207031 -5.6875 9.3125 -5.703125 9.40625 -5.734375 C 9.476562 -5.742188 9.507812 -5.765625 9.5 -5.796875 C 9.488281 -5.816406 9.457031 -5.894531 9.40625 -6.03125 C 9.34375 -6.164062 9.28125 -6.304688 9.21875 -6.453125 C 9.132812 -6.628906 9.046875 -6.828125 8.953125 -7.046875 C 8.679688 -7.753906 8.445312 -8.390625 8.25 -8.953125 L 7.53125 -10.890625 C 7.53125 -10.941406 7.492188 -10.96875 7.421875 -10.96875 C 7.398438 -10.96875 7.378906 -10.96875 7.359375 -10.96875 C 7.335938 -10.957031 7.316406 -10.953125 7.296875 -10.953125 C 7.273438 -10.921875 7.226562 -10.832031 7.15625 -10.6875 C 7.082031 -10.53125 7.023438 -10.394531 6.984375 -10.28125 C 6.960938 -10.25 6.90625 -10.117188 6.8125 -9.890625 C 6.71875 -9.660156 6.601562 -9.390625 6.46875 -9.078125 C 6.34375 -8.753906 6.203125 -8.410156 6.046875 -8.046875 C 5.890625 -7.679688 5.75 -7.351562 5.625 -7.0625 C 5.488281 -6.75 5.382812 -6.492188 5.3125 -6.296875 L 5.15625 -5.984375 C 5.144531 -5.984375 5.117188 -5.929688 5.078125 -5.828125 C 5.023438 -5.722656 5.035156 -5.660156 5.109375 -5.640625 Z M 8.53125 -5.640625 "/></g></g></g><g fill="#ffffff" fill-opacity="1"><g transform="translate(115.266481, 136.225376)"><g><path d="M 4.09375 -11.640625 C 3.945312 -11.640625 3.835938 -11.601562 3.765625 -11.53125 C 3.703125 -11.46875 3.65625 -11.40625 3.625 -11.34375 C 3.601562 -11.257812 3.597656 -11.191406 3.609375 -11.140625 C 3.609375 -11.066406 3.613281 -11.035156 3.625 -11.046875 C 3.644531 -11.066406 3.644531 -10.972656 3.625 -10.765625 C 3.613281 -10.554688 3.601562 -10.316406 3.59375 -10.046875 C 3.5625 -9.765625 3.539062 -9.492188 3.53125 -9.234375 C 3.519531 -8.984375 3.515625 -8.8125 3.515625 -8.71875 C 3.515625 -8.625 3.539062 -8.554688 3.59375 -8.515625 C 3.632812 -8.460938 3.679688 -8.421875 3.734375 -8.390625 C 3.796875 -8.359375 3.867188 -8.34375 3.953125 -8.34375 C 4.859375 -8.40625 5.679688 -8.457031 6.421875 -8.5 C 6.722656 -8.519531 7.03125 -8.535156 7.34375 -8.546875 C 7.65625 -8.566406 7.941406 -8.582031 8.203125 -8.59375 C 8.460938 -8.601562 8.6875 -8.617188 8.875 -8.640625 C 9.050781 -8.640625 9.164062 -8.640625 9.21875 -8.640625 C 9.34375 -8.640625 9.429688 -8.609375 9.484375 -8.546875 C 9.535156 -8.492188 9.578125 -8.441406 9.609375 -8.390625 C 9.617188 -8.328125 9.625 -8.265625 9.625 -8.203125 L 9.609375 -8.109375 L 9.609375 -7.90625 C 9.585938 -7.757812 9.570312 -7.597656 9.5625 -7.421875 C 9.550781 -7.234375 9.546875 -7.039062 9.546875 -6.84375 C 9.523438 -6.632812 9.515625 -6.472656 9.515625 -6.359375 C 9.515625 -6.179688 9.460938 -6.070312 9.359375 -6.03125 C 9.234375 -5.976562 9.117188 -5.953125 9.015625 -5.953125 C 8.960938 -5.953125 8.929688 -5.957031 8.921875 -5.96875 L 8.53125 -5.96875 C 8.289062 -5.957031 7.992188 -5.953125 7.640625 -5.953125 C 7.296875 -5.941406 6.921875 -5.925781 6.515625 -5.90625 C 6.097656 -5.894531 5.707031 -5.890625 5.34375 -5.890625 C 4.96875 -5.878906 4.644531 -5.875 4.375 -5.875 C 4.101562 -5.851562 3.941406 -5.84375 3.890625 -5.84375 C 3.796875 -5.84375 3.726562 -5.816406 3.6875 -5.765625 C 3.644531 -5.703125 3.617188 -5.632812 3.609375 -5.5625 C 3.585938 -5.5 3.578125 -5.429688 3.578125 -5.359375 L 3.578125 -5.265625 L 3.546875 -2.578125 C 3.546875 -2.429688 3.570312 -2.335938 3.625 -2.296875 C 3.6875 -2.253906 3.742188 -2.234375 3.796875 -2.234375 C 3.847656 -2.234375 3.878906 -2.242188 3.890625 -2.265625 L 4.296875 -2.265625 C 4.535156 -2.265625 4.835938 -2.269531 5.203125 -2.28125 C 5.566406 -2.28125 5.972656 -2.285156 6.421875 -2.296875 C 6.859375 -2.296875 7.28125 -2.300781 7.6875 -2.3125 C 8.09375 -2.3125 8.457031 -2.3125 8.78125 -2.3125 L 9.421875 -2.3125 C 9.609375 -2.3125 9.742188 -2.28125 9.828125 -2.21875 C 9.890625 -2.15625 9.9375 -2.082031 9.96875 -2 C 9.976562 -1.90625 9.96875 -1.796875 9.9375 -1.671875 C 9.925781 -1.535156 9.914062 -1.394531 9.90625 -1.25 C 9.894531 -1.125 9.890625 -1 9.890625 -0.875 C 9.867188 -0.71875 9.859375 -0.566406 9.859375 -0.421875 C 9.859375 -0.234375 9.8125 -0.117188 9.71875 -0.078125 C 9.613281 -0.0234375 9.519531 0 9.4375 0 C 9.382812 0 9.34375 -0.00390625 9.3125 -0.015625 L 1.578125 -0.015625 C 1.347656 -0.015625 1.175781 -0.0976562 1.0625 -0.265625 C 0.945312 -0.410156 0.867188 -0.578125 0.828125 -0.765625 C 0.773438 -0.941406 0.753906 -1.109375 0.765625 -1.265625 C 0.765625 -1.421875 0.769531 -1.5 0.78125 -1.5 C 0.800781 -1.5 0.8125 -1.625 0.8125 -1.875 L 0.8125 -6.953125 C 0.789062 -7.210938 0.773438 -7.546875 0.765625 -7.953125 C 0.753906 -8.347656 0.738281 -8.789062 0.71875 -9.28125 C 0.707031 -9.757812 0.695312 -10.238281 0.6875 -10.71875 C 0.675781 -11.1875 0.671875 -11.617188 0.671875 -12.015625 C 0.648438 -12.410156 0.640625 -12.71875 0.640625 -12.9375 C 0.640625 -13.175781 0.679688 -13.367188 0.765625 -13.515625 C 0.847656 -13.660156 0.960938 -13.769531 1.109375 -13.84375 C 1.242188 -13.90625 1.40625 -13.953125 1.59375 -13.984375 C 1.769531 -13.992188 1.953125 -14 2.140625 -14 L 9.703125 -14.078125 C 9.835938 -14.078125 9.945312 -14.050781 10.03125 -14 C 10.09375 -13.925781 10.140625 -13.851562 10.171875 -13.78125 C 10.210938 -13.6875 10.238281 -13.582031 10.25 -13.46875 C 10.238281 -13.28125 10.234375 -13.101562 10.234375 -12.9375 C 10.210938 -12.769531 10.203125 -12.609375 10.203125 -12.453125 C 10.191406 -12.273438 10.1875 -12.113281 10.1875 -11.96875 C 10.1875 -11.8125 10.140625 -11.710938 10.046875 -11.671875 C 9.941406 -11.617188 9.828125 -11.59375 9.703125 -11.59375 C 9.660156 -11.59375 9.617188 -11.601562 9.578125 -11.625 C 9.523438 -11.625 9.484375 -11.625 9.453125 -11.625 C 9.421875 -11.625 9.390625 -11.628906 9.359375 -11.640625 Z M 4.09375 -11.640625 "/></g></g></g><g fill="#ffffff" fill-opacity="1"><g transform="translate(-5.154639, 107.095012)"><g><path d="M 26.5 -16.453125 L 46.21875 -16.453125 L 46.21875 -30.3125 L 16.3125 -48.390625 C 14.226562 -49.753906 12.550781 -50.929688 11.28125 -51.921875 C 10.007812 -52.921875 9.054688 -54.054688 8.421875 -55.328125 C 7.703125 -56.503906 7.25 -57.910156 7.0625 -59.546875 C 6.882812 -61.078125 6.796875 -63.113281 6.796875 -65.65625 L 6.796875 -83.734375 C 6.796875 -85.273438 7.113281 -86.769531 7.75 -88.21875 C 8.289062 -89.582031 9.101562 -90.804688 10.1875 -91.890625 C 11.1875 -92.890625 12.410156 -93.707031 13.859375 -94.34375 C 15.222656 -94.882812 16.71875 -95.15625 18.34375 -95.15625 L 54.375 -95.15625 C 56.007812 -95.15625 57.550781 -94.882812 59 -94.34375 C 60.351562 -93.707031 61.578125 -92.890625 62.671875 -91.890625 C 63.660156 -90.804688 64.472656 -89.582031 65.109375 -88.21875 C 65.648438 -86.769531 65.921875 -85.273438 65.921875 -83.734375 L 65.921875 -68.921875 L 46.21875 -65.65625 L 46.21875 -78.703125 L 26.5 -78.703125 L 26.5 -65.25 L 59.40625 -45.265625 C 61.664062 -43.992188 63.296875 -42.363281 64.296875 -40.375 C 65.296875 -38.5625 65.835938 -36.519531 65.921875 -34.25 C 65.921875 -31.894531 65.921875 -29.222656 65.921875 -26.234375 L 65.921875 -11.546875 C 65.921875 -8.378906 64.789062 -5.660156 62.53125 -3.390625 C 60.257812 -1.128906 57.539062 0 54.375 0 L 18.34375 0 C 15.175781 0 12.457031 -1.128906 10.1875 -3.390625 C 7.925781 -5.660156 6.796875 -8.378906 6.796875 -11.546875 L 6.796875 -29.5 L 26.5 -29.5 Z M 26.5 -16.453125 "/></g></g></g><g clip-path="url(#ac6e141e7d)"><g clip-path="url(#cb267a0e9d)"><path fill="#56a576" d="M 56.847656 34.578125 L 101.914062 34.578125 L 101.914062 79.644531 L 56.847656 79.644531 Z M 56.847656 34.578125 " fill-opacity="1" fill-rule="nonzero"/></g></g><g clip-path="url(#6beb22aae3)"><g clip-path="url(#9ef8d43b8e)"><path fill="#ffffff" d="M 65.738281 43.472656 L 93.023438 43.472656 L 93.023438 70.753906 L 65.738281 70.753906 Z M 65.738281 43.472656 " fill-opacity="1" fill-rule="nonzero"/></g></g></svg>